<svg width="363" height="74" viewBox="0 0 363 74" fill="none" xmlns="http://www.w3.org/2000/svg">
<path d="M30.802 64.6017V12.9624H34.1102V64.6017H30.802ZM39.5767 30.0074C39.4153 28.3802 38.7228 27.1161 37.499 26.2151C36.2753 25.3141 34.6145 24.8636 32.5166 24.8636C31.0912 24.8636 29.8876 25.0653 28.9059 25.4688C27.9242 25.8588 27.1712 26.4034 26.6467 27.1027C26.1357 27.802 25.8802 28.5954 25.8802 29.4829C25.8533 30.2225 26.0079 30.868 26.3441 31.4194C26.6938 31.9708 27.1712 32.4481 27.7763 32.8516C28.3815 33.2416 29.0807 33.5845 29.8741 33.8803C30.6676 34.1627 31.5148 34.4048 32.4158 34.6065L36.1273 35.4941C37.9293 35.8975 39.5834 36.4354 41.0896 37.1078C42.5957 37.7802 43.9001 38.6072 45.0028 39.5889C46.1056 40.5706 46.9595 41.7271 47.5646 43.0584C48.1832 44.3897 48.4993 45.9161 48.5127 47.6374C48.4993 50.1655 47.8538 52.3575 46.5762 54.2133C45.3121 56.0556 43.4833 57.4878 41.0896 58.5099C38.7093 59.5184 35.8382 60.0227 32.4763 60.0227C29.1412 60.0227 26.2365 59.5117 23.7622 58.4897C21.3012 57.4677 19.3782 55.9548 17.9931 53.9511C16.6214 51.9339 15.902 49.4394 15.8347 46.4674H24.2866C24.3808 47.8525 24.7775 49.009 25.4767 49.9369C26.1895 50.8514 27.1375 51.5439 28.3209 52.0146C29.5178 52.4718 30.8693 52.7004 32.3754 52.7004C33.8547 52.7004 35.1389 52.4853 36.2282 52.0549C37.3309 51.6246 38.1848 51.0262 38.79 50.2597C39.3951 49.4931 39.6977 48.6123 39.6977 47.6172C39.6977 46.6893 39.422 45.9093 38.8707 45.2773C38.3328 44.6452 37.5394 44.1073 36.4904 43.6636C35.455 43.2198 34.1841 42.8163 32.678 42.4533L28.1797 41.3236C24.6968 40.4764 21.9467 39.1518 19.9296 37.3498C17.9124 35.5478 16.9105 33.1205 16.924 30.0679C16.9105 27.5666 17.5762 25.3814 18.921 23.5121C20.2792 21.6429 22.1417 20.1838 24.5085 19.1349C26.8753 18.086 29.5649 17.5615 32.5771 17.5615C35.6432 17.5615 38.3193 18.086 40.6054 19.1349C42.905 20.1838 44.6936 21.6429 45.9711 23.5121C47.2486 25.3814 47.9076 27.5464 47.9479 30.0074H39.5767ZM54.3877 59.4377V18.1263H70.9284C73.9676 18.1263 76.5025 18.5768 78.5331 19.4778C80.5637 20.3788 82.09 21.6294 83.112 23.2297C84.1341 24.8166 84.6451 26.6455 84.6451 28.7164C84.6451 30.3301 84.3223 31.7489 83.6768 32.9726C83.0314 34.1829 82.1438 35.178 81.0142 35.958C79.898 36.7245 78.6205 37.2692 77.1816 37.5919V37.9953C78.755 38.0626 80.2275 38.5063 81.5992 39.3267C82.9843 40.147 84.1072 41.2968 84.9678 42.776C85.8285 44.2418 86.2588 45.99 86.2588 48.0206C86.2588 50.2126 85.7142 52.1692 84.6249 53.8906C83.5491 55.5984 81.9555 56.9499 79.8442 57.945C77.7329 58.9402 75.1308 59.4377 72.0378 59.4377H54.3877ZM63.122 52.297H70.2426C72.6766 52.297 74.4517 51.8331 75.5679 50.9052C76.684 49.9638 77.2421 48.7132 77.2421 47.1532C77.2421 46.0102 76.9664 45.0016 76.4151 44.1275C75.8637 43.2534 75.077 42.5676 74.055 42.07C73.0464 41.5724 71.8428 41.3236 70.4443 41.3236H63.122V52.297ZM63.122 35.4134H69.5971C70.7939 35.4134 71.8563 35.2049 72.7842 34.7881C73.7255 34.3577 74.4651 33.7526 75.0031 32.9726C75.5544 32.1926 75.8301 31.258 75.8301 30.1688C75.8301 28.6761 75.2989 27.4725 74.2365 26.558C73.1876 25.6436 71.6949 25.1864 69.7584 25.1864H63.122V35.4134ZM117.459 18.1263H126.194V44.9545C126.194 47.9668 125.474 50.6026 124.035 52.8618C122.61 55.121 120.613 56.8827 118.044 58.1468C115.476 59.3974 112.484 60.0227 109.068 60.0227C105.639 60.0227 102.64 59.3974 100.071 58.1468C97.5028 56.8827 95.5058 55.121 94.0803 52.8618C92.6549 50.6026 91.9422 47.9668 91.9422 44.9545V18.1263H100.676V44.2082C100.676 45.7816 101.019 47.1801 101.705 48.4039C102.404 49.6276 103.386 50.5891 104.65 51.2884C105.914 51.9877 107.387 52.3373 109.068 52.3373C110.762 52.3373 112.235 51.9877 113.485 51.2884C114.75 50.5891 115.724 49.6276 116.41 48.4039C117.11 47.1801 117.459 45.7816 117.459 44.2082V18.1263ZM155.79 30.0074C155.629 28.3802 154.936 27.1161 153.713 26.2151C152.489 25.3141 150.828 24.8636 148.73 24.8636C147.305 24.8636 146.101 25.0653 145.12 25.4688C144.138 25.8588 143.385 26.4034 142.86 27.1027C142.349 27.802 142.094 28.5954 142.094 29.4829C142.067 30.2225 142.222 30.868 142.558 31.4194C142.907 31.9708 143.385 32.4481 143.99 32.8516C144.595 33.2416 145.294 33.5845 146.088 33.8803C146.881 34.1627 147.728 34.4048 148.629 34.6065L152.341 35.4941C154.143 35.8975 155.797 36.4354 157.303 37.1078C158.809 37.7802 160.114 38.6072 161.216 39.5889C162.319 40.5706 163.173 41.7271 163.778 43.0584C164.397 44.3897 164.713 45.9161 164.726 47.6374C164.713 50.1655 164.067 52.3575 162.79 54.2133C161.526 56.0556 159.697 57.4878 157.303 58.5099C154.923 59.5184 152.052 60.0227 148.69 60.0227C145.355 60.0227 142.45 59.5117 139.976 58.4897C137.515 57.4677 135.592 55.9548 134.207 53.9511C132.835 51.9339 132.116 49.4394 132.048 46.4674H140.5C140.594 47.8525 140.991 49.009 141.69 49.9369C142.403 50.8514 143.351 51.5439 144.535 52.0146C145.731 52.4718 147.083 52.7004 148.589 52.7004C150.068 52.7004 151.353 52.4853 152.442 52.0549C153.545 51.6246 154.398 51.0262 155.004 50.2597C155.609 49.4931 155.911 48.6123 155.911 47.6172C155.911 46.6893 155.636 45.9093 155.084 45.2773C154.546 44.6452 153.753 44.1073 152.704 43.6636C151.669 43.2198 150.398 42.8163 148.892 42.4533L144.393 41.3236C140.91 40.4764 138.16 39.1518 136.143 37.3498C134.126 35.5478 133.124 33.1205 133.138 30.0679C133.124 27.5666 133.79 25.3814 135.135 23.5121C136.493 21.6429 138.355 20.1838 140.722 19.1349C143.089 18.086 145.778 17.5615 148.791 17.5615C151.857 17.5615 154.533 18.086 156.819 19.1349C159.119 20.1838 160.907 21.6429 162.185 23.5121C163.462 25.3814 164.121 27.5464 164.162 30.0074H155.79ZM179.336 18.1263V59.4377H170.601V18.1263H179.336ZM221.076 18.1263V59.4377H213.531L195.559 33.4366H195.256V59.4377H186.522V18.1263H194.187L212.019 44.1073H212.382V18.1263H221.076ZM228.292 59.4377V18.1263H256.129V25.3276H237.026V35.1713H254.697V42.3726H237.026V52.2365H256.21V59.4377H228.292ZM285.484 30.0074C285.322 28.3802 284.63 27.1161 283.406 26.2151C282.182 25.3141 280.521 24.8636 278.424 24.8636C276.998 24.8636 275.794 25.0653 274.813 25.4688C273.831 25.8588 273.078 26.4034 272.554 27.1027C272.043 27.802 271.787 28.5954 271.787 29.4829C271.76 30.2225 271.915 30.868 272.251 31.4194C272.601 31.9708 273.078 32.4481 273.683 32.8516C274.288 33.2416 274.988 33.5845 275.781 33.8803C276.574 34.1627 277.422 34.4048 278.323 34.6065L282.034 35.4941C283.836 35.8975 285.49 36.4354 286.996 37.1078C288.503 37.7802 289.807 38.6072 290.91 39.5889C292.012 40.5706 292.866 41.7271 293.472 43.0584C294.09 44.3897 294.406 45.9161 294.42 47.6374C294.406 50.1655 293.761 52.3575 292.483 54.2133C291.219 56.0556 289.39 57.4878 286.996 58.5099C284.616 59.5184 281.745 60.0227 278.383 60.0227C275.048 60.0227 272.143 59.5117 269.669 58.4897C267.208 57.4677 265.285 55.9548 263.9 53.9511C262.528 51.9339 261.809 49.4394 261.742 46.4674H270.194C270.288 47.8525 270.684 49.009 271.384 49.9369C272.096 50.8514 273.044 51.5439 274.228 52.0146C275.425 52.4718 276.776 52.7004 278.282 52.7004C279.762 52.7004 281.046 52.4853 282.135 52.0549C283.238 51.6246 284.092 51.0262 284.697 50.2597C285.302 49.4931 285.605 48.6123 285.605 47.6172C285.605 46.6893 285.329 45.9093 284.778 45.2773C284.24 44.6452 283.446 44.1073 282.397 43.6636C281.362 43.2198 280.091 42.8163 278.585 42.4533L274.087 41.3236C270.604 40.4764 267.854 39.1518 265.836 37.3498C263.819 35.5478 262.817 33.1205 262.831 30.0679C262.817 27.5666 263.483 25.3814 264.828 23.5121C266.186 21.6429 268.049 20.1838 270.415 19.1349C272.782 18.086 275.472 17.5615 278.484 17.5615C281.55 17.5615 284.226 18.086 286.512 19.1349C288.812 20.1838 290.6 21.6429 291.878 23.5121C293.156 25.3814 293.814 27.5464 293.855 30.0074H285.484ZM322.705 30.0074C322.544 28.3802 321.851 27.1161 320.628 26.2151C319.404 25.3141 317.743 24.8636 315.645 24.8636C314.22 24.8636 313.016 25.0653 312.034 25.4688C311.053 25.8588 310.3 26.4034 309.775 27.1027C309.264 27.802 309.009 28.5954 309.009 29.4829C308.982 30.2225 309.136 30.868 309.473 31.4194C309.822 31.9708 310.3 32.4481 310.905 32.8516C311.51 33.2416 312.209 33.5845 313.003 33.8803C313.796 34.1627 314.643 34.4048 315.544 34.6065L319.256 35.4941C321.058 35.8975 322.712 36.4354 324.218 37.1078C325.724 37.7802 327.029 38.6072 328.131 39.5889C329.234 40.5706 330.088 41.7271 330.693 43.0584C331.312 44.3897 331.628 45.9161 331.641 47.6374C331.628 50.1655 330.982 52.3575 329.705 54.2133C328.441 56.0556 326.612 57.4878 324.218 58.5099C321.838 59.5184 318.967 60.0227 315.605 60.0227C312.27 60.0227 309.365 59.5117 306.891 58.4897C304.43 57.4677 302.507 55.9548 301.122 53.9511C299.75 51.9339 299.03 49.4394 298.963 46.4674H307.415C307.509 47.8525 307.906 49.009 308.605 49.9369C309.318 50.8514 310.266 51.5439 311.449 52.0146C312.646 52.4718 313.998 52.7004 315.504 52.7004C316.983 52.7004 318.267 52.4853 319.357 52.0549C320.459 51.6246 321.313 51.0262 321.919 50.2597C322.524 49.4931 322.826 48.6123 322.826 47.6172C322.826 46.6893 322.551 45.9093 321.999 45.2773C321.461 44.6452 320.668 44.1073 319.619 43.6636C318.583 43.2198 317.313 42.8163 315.807 42.4533L311.308 41.3236C307.825 40.4764 305.075 39.1518 303.058 37.3498C301.041 35.5478 300.039 33.1205 300.052 30.0679C300.039 27.5666 300.705 25.3814 302.049 23.5121C303.408 21.6429 305.27 20.1838 307.637 19.1349C310.004 18.086 312.693 17.5615 315.706 17.5615C318.772 17.5615 321.448 18.086 323.734 19.1349C326.034 20.1838 327.822 21.6429 329.1 23.5121C330.377 25.3814 331.036 27.5464 331.076 30.0074H322.705Z" fill="black"/>
<path d="M30.4537 60.1639V8.52464H33.7618V60.1639H30.4537ZM39.2283 25.5696C39.067 23.9425 38.3744 22.6784 37.1507 21.7774C35.9269 20.8764 34.2661 20.4259 32.1683 20.4259C30.7428 20.4259 29.5393 20.6276 28.5576 21.031C27.5759 21.421 26.8228 21.9656 26.2984 22.6649C25.7873 23.3642 25.5318 24.1576 25.5318 25.0452C25.5049 25.7848 25.6596 26.4303 25.9958 26.9817C26.3454 27.533 26.8228 28.0104 27.428 28.4138C28.0331 28.8038 28.7324 29.1467 29.5258 29.4426C30.3192 29.725 31.1664 29.967 32.0674 30.1688L35.779 31.0563C37.581 31.4597 39.2351 31.9977 40.7412 32.67C42.2474 33.3424 43.5518 34.1695 44.6545 35.1511C45.7572 36.1328 46.6112 37.2893 47.2163 38.6207C47.8349 39.952 48.1509 41.4783 48.1644 43.1996C48.1509 45.7278 47.5054 47.9198 46.2279 49.7756C44.9638 51.6179 43.1349 53.0501 40.7412 54.0721C38.361 55.0807 35.4899 55.585 32.1279 55.585C28.7929 55.585 25.8882 55.074 23.4138 54.0519C20.9529 53.0299 19.0299 51.517 17.6447 49.5133C16.2731 47.4962 15.5536 45.0016 15.4864 42.0297H23.9383C24.0324 43.4148 24.4291 44.5713 25.1284 45.4992C25.8411 46.4136 26.7892 47.1062 27.9726 47.5769C29.1694 48.0341 30.5209 48.2627 32.0271 48.2627C33.5063 48.2627 34.7906 48.0475 35.8799 47.6172C36.9826 47.1869 37.8365 46.5884 38.4417 45.8219C39.0468 45.0554 39.3494 44.1746 39.3494 43.1794C39.3494 42.2516 39.0737 41.4716 38.5223 40.8395C37.9844 40.2075 37.191 39.6696 36.1421 39.2258C35.1066 38.782 33.8358 38.3786 32.3297 38.0155L27.8314 36.8859C24.3484 36.0387 21.5984 34.7141 19.5812 32.9121C17.5641 31.1101 16.5622 28.6828 16.5756 25.6302C16.5622 23.1289 17.2279 20.9436 18.5726 19.0744C19.9309 17.2052 21.7934 15.7461 24.1602 14.6971C26.527 13.6482 29.2165 13.1238 32.2288 13.1238C35.2949 13.1238 37.971 13.6482 40.2571 14.6971C42.5567 15.7461 44.3452 17.2052 45.6227 19.0744C46.9003 20.9436 47.5592 23.1087 47.5996 25.5696H39.2283ZM54.0393 55V13.6886H70.5801C73.6192 13.6886 76.1541 14.1391 78.1847 15.0401C80.2154 15.9411 81.7417 17.1917 82.7637 18.792C83.7857 20.3788 84.2967 22.2077 84.2967 24.2787C84.2967 25.8924 83.974 27.3111 83.3285 28.5349C82.683 29.7452 81.7955 30.7403 80.6659 31.5203C79.5497 32.2868 78.2722 32.8314 76.8332 33.1542V33.5576C78.4066 33.6248 79.8792 34.0686 81.2508 34.8889C82.6359 35.7092 83.7588 36.859 84.6195 38.3383C85.4801 39.8041 85.9105 41.5523 85.9105 43.5829C85.9105 45.7749 85.3658 47.7315 84.2766 49.4528C83.2007 51.1607 81.6072 52.5122 79.4959 53.5073C77.3846 54.5024 74.7825 55 71.6895 55H54.0393ZM62.7736 47.8593H69.8942C72.3283 47.8593 74.1034 47.3953 75.2195 46.4674C76.3357 45.5261 76.8938 44.2754 76.8938 42.7155C76.8938 41.5724 76.6181 40.5639 76.0667 39.6898C75.5154 38.8157 74.7287 38.1298 73.7067 37.6323C72.6981 37.1347 71.4945 36.8859 70.0959 36.8859H62.7736V47.8593ZM62.7736 30.9756H69.2487C70.4456 30.9756 71.5079 30.7672 72.4358 30.3503C73.3772 29.92 74.1168 29.3148 74.6547 28.5349C75.2061 27.7549 75.4818 26.8203 75.4818 25.731C75.4818 24.2383 74.9506 23.0347 73.8882 22.1203C72.8393 21.2059 71.3466 20.7486 69.4101 20.7486H62.7736V30.9756ZM117.111 13.6886H125.845V40.5168C125.845 43.5291 125.126 46.1648 123.687 48.4241C122.261 50.6833 120.264 52.4449 117.696 53.709C115.127 54.9597 112.135 55.585 108.719 55.585C105.29 55.585 102.291 54.9597 99.723 53.709C97.1544 52.4449 95.1575 50.6833 93.732 48.4241C92.3065 46.1648 91.5938 43.5291 91.5938 40.5168V13.6886H100.328V39.7704C100.328 41.3438 100.671 42.7424 101.357 43.9661C102.056 45.1899 103.038 46.1514 104.302 46.8507C105.566 47.55 107.039 47.8996 108.719 47.8996C110.414 47.8996 111.886 47.55 113.137 46.8507C114.401 46.1514 115.376 45.1899 116.062 43.9661C116.761 42.7424 117.111 41.3438 117.111 39.7704V13.6886ZM155.442 25.5696C155.281 23.9425 154.588 22.6784 153.364 21.7774C152.141 20.8764 150.48 20.4259 148.382 20.4259C146.956 20.4259 145.753 20.6276 144.771 21.031C143.789 21.421 143.036 21.9656 142.512 22.6649C142.001 23.3642 141.745 24.1576 141.745 25.0452C141.719 25.7848 141.873 26.4303 142.209 26.9817C142.559 27.533 143.036 28.0104 143.642 28.4138C144.247 28.8038 144.946 29.1467 145.739 29.4426C146.533 29.725 147.38 29.967 148.281 30.1688L151.993 31.0563C153.795 31.4597 155.449 31.9977 156.955 32.67C158.461 33.3424 159.765 34.1695 160.868 35.1511C161.971 36.1328 162.825 37.2893 163.43 38.6207C164.049 39.952 164.365 41.4783 164.378 43.1996C164.365 45.7278 163.719 47.9198 162.441 49.7756C161.177 51.6179 159.349 53.0501 156.955 54.0721C154.575 55.0807 151.703 55.585 148.342 55.585C145.007 55.585 142.102 55.074 139.627 54.0519C137.166 53.0299 135.243 51.517 133.858 49.5133C132.487 47.4962 131.767 45.0016 131.7 42.0297H140.152C140.246 43.4148 140.643 44.5713 141.342 45.4992C142.055 46.4136 143.003 47.1062 144.186 47.5769C145.383 48.0341 146.735 48.2627 148.241 48.2627C149.72 48.2627 151.004 48.0475 152.093 47.6172C153.196 47.1869 154.05 46.5884 154.655 45.8219C155.26 45.0554 155.563 44.1746 155.563 43.1794C155.563 42.2516 155.287 41.4716 154.736 40.8395C154.198 40.2075 153.405 39.6696 152.356 39.2258C151.32 38.782 150.049 38.3786 148.543 38.0155L144.045 36.8859C140.562 36.0387 137.812 34.7141 135.795 32.9121C133.778 31.1101 132.776 28.6828 132.789 25.6302C132.776 23.1289 133.441 20.9436 134.786 19.0744C136.144 17.2052 138.007 15.7461 140.374 14.6971C142.741 13.6482 145.43 13.1238 148.442 13.1238C151.508 13.1238 154.185 13.6482 156.471 14.6971C158.77 15.7461 160.559 17.2052 161.836 19.0744C163.114 20.9436 163.773 23.1087 163.813 25.5696H155.442ZM178.987 13.6886V55H170.253V13.6886H178.987ZM220.727 13.6886V55H213.183L195.21 28.9988H194.908V55H186.173V13.6886H193.839L211.67 39.6696H212.033V13.6886H220.727ZM227.944 55V13.6886H255.781V20.8898H236.678V30.7336H254.348V37.9348H236.678V47.7987H255.861V55H227.944ZM285.135 25.5696C284.974 23.9425 284.281 22.6784 283.058 21.7774C281.834 20.8764 280.173 20.4259 278.075 20.4259C276.65 20.4259 275.446 20.6276 274.464 21.031C273.483 21.421 272.73 21.9656 272.205 22.6649C271.694 23.3642 271.439 24.1576 271.439 25.0452C271.412 25.7848 271.566 26.4303 271.903 26.9817C272.252 27.533 272.73 28.0104 273.335 28.4138C273.94 28.8038 274.639 29.1467 275.433 29.4426C276.226 29.725 277.073 29.967 277.974 30.1688L281.686 31.0563C283.488 31.4597 285.142 31.9977 286.648 32.67C288.154 33.3424 289.459 34.1695 290.561 35.1511C291.664 36.1328 292.518 37.2893 293.123 38.6207C293.742 39.952 294.058 41.4783 294.071 43.1996C294.058 45.7278 293.412 47.9198 292.135 49.7756C290.871 51.6179 289.042 53.0501 286.648 54.0721C284.268 55.0807 281.397 55.585 278.035 55.585C274.7 55.585 271.795 55.074 269.321 54.0519C266.86 53.0299 264.937 51.517 263.552 49.5133C262.18 47.4962 261.46 45.0016 261.393 42.0297H269.845C269.939 43.4148 270.336 44.5713 271.035 45.4992C271.748 46.4136 272.696 47.1062 273.879 47.5769C275.076 48.0341 276.428 48.2627 277.934 48.2627C279.413 48.2627 280.697 48.0475 281.787 47.6172C282.889 47.1869 283.743 46.5884 284.349 45.8219C284.954 45.0554 285.256 44.1746 285.256 43.1794C285.256 42.2516 284.981 41.4716 284.429 40.8395C283.891 40.2075 283.098 39.6696 282.049 39.2258C281.013 38.782 279.743 38.3786 278.237 38.0155L273.738 36.8859C270.255 36.0387 267.505 34.7141 265.488 32.9121C263.471 31.1101 262.469 28.6828 262.483 25.6302C262.469 23.1289 263.135 20.9436 264.48 19.0744C265.838 17.2052 267.7 15.7461 270.067 14.6971C272.434 13.6482 275.123 13.1238 278.136 13.1238C281.202 13.1238 283.878 13.6482 286.164 14.6971C288.464 15.7461 290.252 17.2052 291.53 19.0744C292.807 20.9436 293.466 23.1087 293.506 25.5696H285.135ZM322.357 25.5696C322.195 23.9425 321.503 22.6784 320.279 21.7774C319.055 20.8764 317.395 20.4259 315.297 20.4259C313.871 20.4259 312.668 20.6276 311.686 21.031C310.704 21.421 309.951 21.9656 309.427 22.6649C308.916 23.3642 308.66 24.1576 308.66 25.0452C308.633 25.7848 308.788 26.4303 309.124 26.9817C309.474 27.533 309.951 28.0104 310.556 28.4138C311.162 28.8038 311.861 29.1467 312.654 29.4426C313.448 29.725 314.295 29.967 315.196 30.1688L318.908 31.0563C320.71 31.4597 322.364 31.9977 323.87 32.67C325.376 33.3424 326.68 34.1695 327.783 35.1511C328.886 36.1328 329.74 37.2893 330.345 38.6207C330.963 39.952 331.279 41.4783 331.293 43.1996C331.279 45.7278 330.634 47.9198 329.356 49.7756C328.092 51.6179 326.263 53.0501 323.87 54.0721C321.489 55.0807 318.618 55.585 315.256 55.585C311.921 55.585 309.017 55.074 306.542 54.0519C304.081 53.0299 302.158 51.517 300.773 49.5133C299.402 47.4962 298.682 45.0016 298.615 42.0297H307.067C307.161 43.4148 307.558 44.5713 308.257 45.4992C308.97 46.4136 309.918 47.1062 311.101 47.5769C312.298 48.0341 313.649 48.2627 315.156 48.2627C316.635 48.2627 317.919 48.0475 319.008 47.6172C320.111 47.1869 320.965 46.5884 321.57 45.8219C322.175 45.0554 322.478 44.1746 322.478 43.1794C322.478 42.2516 322.202 41.4716 321.651 40.8395C321.113 40.2075 320.32 39.6696 319.271 39.2258C318.235 38.782 316.964 38.3786 315.458 38.0155L310.96 36.8859C307.477 36.0387 304.727 34.7141 302.71 32.9121C300.693 31.1101 299.691 28.6828 299.704 25.6302C299.691 23.1289 300.356 20.9436 301.701 19.0744C303.059 17.2052 304.922 15.7461 307.289 14.6971C309.655 13.6482 312.345 13.1238 315.357 13.1238C318.423 13.1238 321.1 13.6482 323.386 14.6971C325.685 15.7461 327.474 17.2052 328.751 19.0744C330.029 20.9436 330.688 23.1087 330.728 25.5696H322.357Z" fill="#FCC02F"/>
</svg>
