<svg width="468" height="158" viewBox="0 0 468 158" fill="none" xmlns="http://www.w3.org/2000/svg">
<path d="M7.04545 66V19.4545H16.8864V38.6591H36.8636V19.4545H46.6818V66H36.8636V46.7727H16.8864V66H7.04545ZM97.5682 42.7273C97.5682 47.803 96.6061 52.1212 94.6818 55.6818C92.7727 59.2424 90.1667 61.9621 86.8636 63.8409C83.5758 65.7045 79.8788 66.6364 75.7727 66.6364C71.6364 66.6364 67.9242 65.697 64.6364 63.8182C61.3485 61.9394 58.75 59.2197 56.8409 55.6591C54.9318 52.0985 53.9773 47.7879 53.9773 42.7273C53.9773 37.6515 54.9318 33.3333 56.8409 29.7727C58.75 26.2121 61.3485 23.5 64.6364 21.6364C67.9242 19.7576 71.6364 18.8182 75.7727 18.8182C79.8788 18.8182 83.5758 19.7576 86.8636 21.6364C90.1667 23.5 92.7727 26.2121 94.6818 29.7727C96.6061 33.3333 97.5682 37.6515 97.5682 42.7273ZM87.5909 42.7273C87.5909 39.4394 87.0985 36.6667 86.1136 34.4091C85.1439 32.1515 83.7727 30.4394 82 29.2727C80.2273 28.1061 78.1515 27.5227 75.7727 27.5227C73.3939 27.5227 71.3182 28.1061 69.5455 29.2727C67.7727 30.4394 66.3939 32.1515 65.4091 34.4091C64.4394 36.6667 63.9545 39.4394 63.9545 42.7273C63.9545 46.0152 64.4394 48.7879 65.4091 51.0455C66.3939 53.303 67.7727 55.0152 69.5455 56.1818C71.3182 57.3485 73.3939 57.9318 75.7727 57.9318C78.1515 57.9318 80.2273 57.3485 82 56.1818C83.7727 55.0152 85.1439 53.303 86.1136 51.0455C87.0985 48.7879 87.5909 46.0152 87.5909 42.7273ZM113.585 66L100.267 19.4545H111.017L118.722 51.7955H119.108L127.608 19.4545H136.812L145.29 51.8636H145.699L153.403 19.4545H164.153L150.835 66H141.244L132.381 35.5682H132.017L123.176 66H113.585ZM182.46 27.5682V19.4545H220.688V27.5682H206.438V66H196.71V27.5682H182.46ZM267.631 42.7273C267.631 47.803 266.669 52.1212 264.744 55.6818C262.835 59.2424 260.229 61.9621 256.926 63.8409C253.638 65.7045 249.941 66.6364 245.835 66.6364C241.699 66.6364 237.987 65.697 234.699 63.8182C231.411 61.9394 228.813 59.2197 226.903 55.6591C224.994 52.0985 224.04 47.7879 224.04 42.7273C224.04 37.6515 224.994 33.3333 226.903 29.7727C228.813 26.2121 231.411 23.5 234.699 21.6364C237.987 19.7576 241.699 18.8182 245.835 18.8182C249.941 18.8182 253.638 19.7576 256.926 21.6364C260.229 23.5 262.835 26.2121 264.744 29.7727C266.669 33.3333 267.631 37.6515 267.631 42.7273ZM257.653 42.7273C257.653 39.4394 257.161 36.6667 256.176 34.4091C255.206 32.1515 253.835 30.4394 252.062 29.2727C250.29 28.1061 248.214 27.5227 245.835 27.5227C243.456 27.5227 241.381 28.1061 239.608 29.2727C237.835 30.4394 236.456 32.1515 235.472 34.4091C234.502 36.6667 234.017 39.4394 234.017 42.7273C234.017 46.0152 234.502 48.7879 235.472 51.0455C236.456 53.303 237.835 55.0152 239.608 56.1818C241.381 57.3485 243.456 57.9318 245.835 57.9318C248.214 57.9318 250.29 57.3485 252.062 56.1818C253.835 55.0152 255.206 53.303 256.176 51.0455C257.161 48.7879 257.653 46.0152 257.653 42.7273ZM289.733 66V19.4545H308.369C311.794 19.4545 314.65 19.9621 316.938 20.9773C319.225 21.9924 320.945 23.4015 322.097 25.2045C323.248 26.9924 323.824 29.053 323.824 31.3864C323.824 33.2045 323.46 34.803 322.733 36.1818C322.006 37.5455 321.006 38.6667 319.733 39.5455C318.475 40.4091 317.036 41.0227 315.415 41.3864V41.8409C317.188 41.9167 318.847 42.4167 320.392 43.3409C321.953 44.2652 323.218 45.5606 324.188 47.2273C325.157 48.8788 325.642 50.8485 325.642 53.1364C325.642 55.6061 325.028 57.8106 323.801 59.75C322.589 61.6742 320.794 63.197 318.415 64.3182C316.036 65.4394 313.104 66 309.619 66H289.733ZM299.574 57.9545H307.597C310.339 57.9545 312.339 57.4318 313.597 56.3864C314.854 55.3258 315.483 53.9167 315.483 52.1591C315.483 50.8712 315.172 49.7348 314.551 48.75C313.93 47.7652 313.044 46.9924 311.892 46.4318C310.756 45.8712 309.4 45.5909 307.824 45.5909H299.574V57.9545ZM299.574 38.9318H306.869C308.218 38.9318 309.415 38.697 310.46 38.2273C311.521 37.7424 312.354 37.0606 312.96 36.1818C313.581 35.303 313.892 34.25 313.892 33.0227C313.892 31.3409 313.294 29.9848 312.097 28.9545C310.915 27.9242 309.233 27.4091 307.051 27.4091H299.574V38.9318ZM360.795 19.4545H370.636V49.6818C370.636 53.0758 369.826 56.0455 368.205 58.5909C366.598 61.1364 364.348 63.1212 361.455 64.5455C358.561 65.9545 355.189 66.6591 351.341 66.6591C347.477 66.6591 344.098 65.9545 341.205 64.5455C338.311 63.1212 336.061 61.1364 334.455 58.5909C332.848 56.0455 332.045 53.0758 332.045 49.6818V19.4545H341.886V48.8409C341.886 50.6136 342.273 52.1894 343.045 53.5682C343.833 54.947 344.939 56.0303 346.364 56.8182C347.788 57.6061 349.447 58 351.341 58C353.25 58 354.909 57.6061 356.318 56.8182C357.742 56.0303 358.841 54.947 359.614 53.5682C360.402 52.1894 360.795 50.6136 360.795 48.8409V19.4545ZM376.006 19.4545H387.028L397.642 39.5H398.097L408.71 19.4545H419.733L402.756 49.5455V66H392.983V49.5455L376.006 19.4545ZM22.4091 148.818V90.6364H26.1364V148.818H22.4091ZM32.2955 109.841C32.1136 108.008 31.3333 106.583 29.9545 105.568C28.5758 104.553 26.7045 104.045 24.3409 104.045C22.7348 104.045 21.3788 104.273 20.2727 104.727C19.1667 105.167 18.3182 105.78 17.7273 106.568C17.1515 107.356 16.8636 108.25 16.8636 109.25C16.8333 110.083 17.0076 110.811 17.3864 111.432C17.7803 112.053 18.3182 112.591 19 113.045C19.6818 113.485 20.4697 113.871 21.3636 114.205C22.2576 114.523 23.2121 114.795 24.2273 115.023L28.4091 116.023C30.4394 116.477 32.303 117.083 34 117.841C35.697 118.598 37.1667 119.53 38.4091 120.636C39.6515 121.742 40.6136 123.045 41.2955 124.545C41.9924 126.045 42.3485 127.765 42.3636 129.705C42.3485 132.553 41.6212 135.023 40.1818 137.114C38.7576 139.189 36.697 140.803 34 141.955C31.3182 143.091 28.0833 143.659 24.2955 143.659C20.5379 143.659 17.2652 143.083 14.4773 141.932C11.7045 140.78 9.53788 139.076 7.97727 136.818C6.43182 134.545 5.62121 131.735 5.54545 128.386H15.0682C15.1742 129.947 15.6212 131.25 16.4091 132.295C17.2121 133.326 18.2803 134.106 19.6136 134.636C20.9621 135.152 22.4848 135.409 24.1818 135.409C25.8485 135.409 27.2955 135.167 28.5227 134.682C29.7652 134.197 30.7273 133.523 31.4091 132.659C32.0909 131.795 32.4318 130.803 32.4318 129.682C32.4318 128.636 32.1212 127.758 31.5 127.045C30.8939 126.333 30 125.727 28.8182 125.227C27.6515 124.727 26.2197 124.273 24.5227 123.864L19.4545 122.591C15.5303 121.636 12.4318 120.144 10.1591 118.114C7.88636 116.083 6.75758 113.348 6.77273 109.909C6.75758 107.091 7.50758 104.629 9.02273 102.523C10.553 100.417 12.6515 98.7727 15.3182 97.5909C17.9848 96.4091 21.0152 95.8182 24.4091 95.8182C27.8636 95.8182 30.8788 96.4091 33.4545 97.5909C36.0455 98.7727 38.0606 100.417 39.5 102.523C40.9394 104.629 41.6818 107.068 41.7273 109.841H32.2955ZM48.983 143V96.4545H67.6193C71.0436 96.4545 73.8996 96.9621 76.1875 97.9773C78.4754 98.9924 80.1951 100.402 81.3466 102.205C82.4981 103.992 83.0739 106.053 83.0739 108.386C83.0739 110.205 82.7102 111.803 81.983 113.182C81.2557 114.545 80.2557 115.667 78.983 116.545C77.7254 117.409 76.286 118.023 74.6648 118.386V118.841C76.4375 118.917 78.0966 119.417 79.642 120.341C81.2027 121.265 82.4678 122.561 83.4375 124.227C84.4072 125.879 84.892 127.848 84.892 130.136C84.892 132.606 84.2784 134.811 83.0511 136.75C81.839 138.674 80.0436 140.197 77.6648 141.318C75.286 142.439 72.3542 143 68.8693 143H48.983ZM58.8239 134.955H66.8466C69.589 134.955 71.589 134.432 72.8466 133.386C74.1042 132.326 74.733 130.917 74.733 129.159C74.733 127.871 74.4223 126.735 73.8011 125.75C73.1799 124.765 72.2936 123.992 71.142 123.432C70.0057 122.871 68.6496 122.591 67.0739 122.591H58.8239V134.955ZM58.8239 115.932H66.1193C67.4678 115.932 68.6648 115.697 69.7102 115.227C70.7708 114.742 71.6042 114.061 72.2102 113.182C72.8314 112.303 73.142 111.25 73.142 110.023C73.142 108.341 72.5436 106.985 71.3466 105.955C70.1648 104.924 68.483 104.409 66.3011 104.409H58.8239V115.932ZM120.045 96.4545H129.886V126.682C129.886 130.076 129.076 133.045 127.455 135.591C125.848 138.136 123.598 140.121 120.705 141.545C117.811 142.955 114.439 143.659 110.591 143.659C106.727 143.659 103.348 142.955 100.455 141.545C97.5606 140.121 95.3106 138.136 93.7045 135.591C92.0985 133.045 91.2955 130.076 91.2955 126.682V96.4545H101.136V125.841C101.136 127.614 101.523 129.189 102.295 130.568C103.083 131.947 104.189 133.03 105.614 133.818C107.038 134.606 108.697 135 110.591 135C112.5 135 114.159 134.606 115.568 133.818C116.992 133.03 118.091 131.947 118.864 130.568C119.652 129.189 120.045 127.614 120.045 125.841V96.4545ZM163.233 109.841C163.051 108.008 162.271 106.583 160.892 105.568C159.513 104.553 157.642 104.045 155.278 104.045C153.672 104.045 152.316 104.273 151.21 104.727C150.104 105.167 149.256 105.78 148.665 106.568C148.089 107.356 147.801 108.25 147.801 109.25C147.771 110.083 147.945 110.811 148.324 111.432C148.718 112.053 149.256 112.591 149.938 113.045C150.619 113.485 151.407 113.871 152.301 114.205C153.195 114.523 154.15 114.795 155.165 115.023L159.347 116.023C161.377 116.477 163.241 117.083 164.938 117.841C166.634 118.598 168.104 119.53 169.347 120.636C170.589 121.742 171.551 123.045 172.233 124.545C172.93 126.045 173.286 127.765 173.301 129.705C173.286 132.553 172.559 135.023 171.119 137.114C169.695 139.189 167.634 140.803 164.938 141.955C162.256 143.091 159.021 143.659 155.233 143.659C151.475 143.659 148.203 143.083 145.415 141.932C142.642 140.78 140.475 139.076 138.915 136.818C137.369 134.545 136.559 131.735 136.483 128.386H146.006C146.112 129.947 146.559 131.25 147.347 132.295C148.15 133.326 149.218 134.106 150.551 134.636C151.9 135.152 153.422 135.409 155.119 135.409C156.786 135.409 158.233 135.167 159.46 134.682C160.703 134.197 161.665 133.523 162.347 132.659C163.028 131.795 163.369 130.803 163.369 129.682C163.369 128.636 163.059 127.758 162.438 127.045C161.831 126.333 160.938 125.727 159.756 125.227C158.589 124.727 157.157 124.273 155.46 123.864L150.392 122.591C146.468 121.636 143.369 120.144 141.097 118.114C138.824 116.083 137.695 113.348 137.71 109.909C137.695 107.091 138.445 104.629 139.96 102.523C141.491 100.417 143.589 98.7727 146.256 97.5909C148.922 96.4091 151.953 95.8182 155.347 95.8182C158.801 95.8182 161.816 96.4091 164.392 97.5909C166.983 98.7727 168.998 100.417 170.438 102.523C171.877 104.629 172.619 107.068 172.665 109.841H163.233ZM189.761 96.4545V143H179.92V96.4545H189.761ZM236.79 96.4545V143H228.29L208.04 113.705H207.699V143H197.858V96.4545H206.494L226.585 125.727H226.994V96.4545H236.79ZM244.92 143V96.4545H276.284V104.568H254.761V115.659H274.67V123.773H254.761V134.886H276.375V143H244.92ZM309.358 109.841C309.176 108.008 308.396 106.583 307.017 105.568C305.638 104.553 303.767 104.045 301.403 104.045C299.797 104.045 298.441 104.273 297.335 104.727C296.229 105.167 295.381 105.78 294.79 106.568C294.214 107.356 293.926 108.25 293.926 109.25C293.896 110.083 294.07 110.811 294.449 111.432C294.843 112.053 295.381 112.591 296.062 113.045C296.744 113.485 297.532 113.871 298.426 114.205C299.32 114.523 300.275 114.795 301.29 115.023L305.472 116.023C307.502 116.477 309.366 117.083 311.062 117.841C312.759 118.598 314.229 119.53 315.472 120.636C316.714 121.742 317.676 123.045 318.358 124.545C319.055 126.045 319.411 127.765 319.426 129.705C319.411 132.553 318.684 135.023 317.244 137.114C315.82 139.189 313.759 140.803 311.062 141.955C308.381 143.091 305.146 143.659 301.358 143.659C297.6 143.659 294.328 143.083 291.54 141.932C288.767 140.78 286.6 139.076 285.04 136.818C283.494 134.545 282.684 131.735 282.608 128.386H292.131C292.237 129.947 292.684 131.25 293.472 132.295C294.275 133.326 295.343 134.106 296.676 134.636C298.025 135.152 299.547 135.409 301.244 135.409C302.911 135.409 304.358 135.167 305.585 134.682C306.828 134.197 307.79 133.523 308.472 132.659C309.153 131.795 309.494 130.803 309.494 129.682C309.494 128.636 309.184 127.758 308.562 127.045C307.956 126.333 307.063 125.727 305.881 125.227C304.714 124.727 303.282 124.273 301.585 123.864L296.517 122.591C292.593 121.636 289.494 120.144 287.222 118.114C284.949 116.083 283.82 113.348 283.835 109.909C283.82 107.091 284.57 104.629 286.085 102.523C287.616 100.417 289.714 98.7727 292.381 97.5909C295.047 96.4091 298.078 95.8182 301.472 95.8182C304.926 95.8182 307.941 96.4091 310.517 97.5909C313.108 98.7727 315.123 100.417 316.562 102.523C318.002 104.629 318.744 107.068 318.79 109.841H309.358ZM351.295 109.841C351.114 108.008 350.333 106.583 348.955 105.568C347.576 104.553 345.705 104.045 343.341 104.045C341.735 104.045 340.379 104.273 339.273 104.727C338.167 105.167 337.318 105.78 336.727 106.568C336.152 107.356 335.864 108.25 335.864 109.25C335.833 110.083 336.008 110.811 336.386 111.432C336.78 112.053 337.318 112.591 338 113.045C338.682 113.485 339.47 113.871 340.364 114.205C341.258 114.523 342.212 114.795 343.227 115.023L347.409 116.023C349.439 116.477 351.303 117.083 353 117.841C354.697 118.598 356.167 119.53 357.409 120.636C358.652 121.742 359.614 123.045 360.295 124.545C360.992 126.045 361.348 127.765 361.364 129.705C361.348 132.553 360.621 135.023 359.182 137.114C357.758 139.189 355.697 140.803 353 141.955C350.318 143.091 347.083 143.659 343.295 143.659C339.538 143.659 336.265 143.083 333.477 141.932C330.705 140.78 328.538 139.076 326.977 136.818C325.432 134.545 324.621 131.735 324.545 128.386H334.068C334.174 129.947 334.621 131.25 335.409 132.295C336.212 133.326 337.28 134.106 338.614 134.636C339.962 135.152 341.485 135.409 343.182 135.409C344.848 135.409 346.295 135.167 347.523 134.682C348.765 134.197 349.727 133.523 350.409 132.659C351.091 131.795 351.432 130.803 351.432 129.682C351.432 128.636 351.121 127.758 350.5 127.045C349.894 126.333 349 125.727 347.818 125.227C346.652 124.727 345.22 124.273 343.523 123.864L338.455 122.591C334.53 121.636 331.432 120.144 329.159 118.114C326.886 116.083 325.758 113.348 325.773 109.909C325.758 107.091 326.508 104.629 328.023 102.523C329.553 100.417 331.652 98.7727 334.318 97.5909C336.985 96.4091 340.015 95.8182 343.409 95.8182C346.864 95.8182 349.879 96.4091 352.455 97.5909C355.045 98.7727 357.061 100.417 358.5 102.523C359.939 104.629 360.682 107.068 360.727 109.841H351.295Z" fill="black"/>
<path d="M4.04545 62V15.4545H13.8864V34.6591H33.8636V15.4545H43.6818V62H33.8636V42.7727H13.8864V62H4.04545ZM94.5682 38.7273C94.5682 43.803 93.6061 48.1212 91.6818 51.6818C89.7727 55.2424 87.1667 57.9621 83.8636 59.8409C80.5758 61.7045 76.8788 62.6364 72.7727 62.6364C68.6364 62.6364 64.9242 61.697 61.6364 59.8182C58.3485 57.9394 55.75 55.2197 53.8409 51.6591C51.9318 48.0985 50.9773 43.7879 50.9773 38.7273C50.9773 33.6515 51.9318 29.3333 53.8409 25.7727C55.75 22.2121 58.3485 19.5 61.6364 17.6364C64.9242 15.7576 68.6364 14.8182 72.7727 14.8182C76.8788 14.8182 80.5758 15.7576 83.8636 17.6364C87.1667 19.5 89.7727 22.2121 91.6818 25.7727C93.6061 29.3333 94.5682 33.6515 94.5682 38.7273ZM84.5909 38.7273C84.5909 35.4394 84.0985 32.6667 83.1136 30.4091C82.1439 28.1515 80.7727 26.4394 79 25.2727C77.2273 24.1061 75.1515 23.5227 72.7727 23.5227C70.3939 23.5227 68.3182 24.1061 66.5455 25.2727C64.7727 26.4394 63.3939 28.1515 62.4091 30.4091C61.4394 32.6667 60.9545 35.4394 60.9545 38.7273C60.9545 42.0152 61.4394 44.7879 62.4091 47.0455C63.3939 49.303 64.7727 51.0152 66.5455 52.1818C68.3182 53.3485 70.3939 53.9318 72.7727 53.9318C75.1515 53.9318 77.2273 53.3485 79 52.1818C80.7727 51.0152 82.1439 49.303 83.1136 47.0455C84.0985 44.7879 84.5909 42.0152 84.5909 38.7273ZM110.585 62L97.267 15.4545H108.017L115.722 47.7955H116.108L124.608 15.4545H133.812L142.29 47.8636H142.699L150.403 15.4545H161.153L147.835 62H138.244L129.381 31.5682H129.017L120.176 62H110.585ZM179.46 23.5682V15.4545H217.688V23.5682H203.438V62H193.71V23.5682H179.46ZM264.631 38.7273C264.631 43.803 263.669 48.1212 261.744 51.6818C259.835 55.2424 257.229 57.9621 253.926 59.8409C250.638 61.7045 246.941 62.6364 242.835 62.6364C238.699 62.6364 234.987 61.697 231.699 59.8182C228.411 57.9394 225.813 55.2197 223.903 51.6591C221.994 48.0985 221.04 43.7879 221.04 38.7273C221.04 33.6515 221.994 29.3333 223.903 25.7727C225.813 22.2121 228.411 19.5 231.699 17.6364C234.987 15.7576 238.699 14.8182 242.835 14.8182C246.941 14.8182 250.638 15.7576 253.926 17.6364C257.229 19.5 259.835 22.2121 261.744 25.7727C263.669 29.3333 264.631 33.6515 264.631 38.7273ZM254.653 38.7273C254.653 35.4394 254.161 32.6667 253.176 30.4091C252.206 28.1515 250.835 26.4394 249.062 25.2727C247.29 24.1061 245.214 23.5227 242.835 23.5227C240.456 23.5227 238.381 24.1061 236.608 25.2727C234.835 26.4394 233.456 28.1515 232.472 30.4091C231.502 32.6667 231.017 35.4394 231.017 38.7273C231.017 42.0152 231.502 44.7879 232.472 47.0455C233.456 49.303 234.835 51.0152 236.608 52.1818C238.381 53.3485 240.456 53.9318 242.835 53.9318C245.214 53.9318 247.29 53.3485 249.062 52.1818C250.835 51.0152 252.206 49.303 253.176 47.0455C254.161 44.7879 254.653 42.0152 254.653 38.7273ZM286.733 62V15.4545H305.369C308.794 15.4545 311.65 15.9621 313.938 16.9773C316.225 17.9924 317.945 19.4015 319.097 21.2045C320.248 22.9924 320.824 25.053 320.824 27.3864C320.824 29.2045 320.46 30.803 319.733 32.1818C319.006 33.5455 318.006 34.6667 316.733 35.5455C315.475 36.4091 314.036 37.0227 312.415 37.3864V37.8409C314.188 37.9167 315.847 38.4167 317.392 39.3409C318.953 40.2652 320.218 41.5606 321.188 43.2273C322.157 44.8788 322.642 46.8485 322.642 49.1364C322.642 51.6061 322.028 53.8106 320.801 55.75C319.589 57.6742 317.794 59.197 315.415 60.3182C313.036 61.4394 310.104 62 306.619 62H286.733ZM296.574 53.9545H304.597C307.339 53.9545 309.339 53.4318 310.597 52.3864C311.854 51.3258 312.483 49.9167 312.483 48.1591C312.483 46.8712 312.172 45.7348 311.551 44.75C310.93 43.7652 310.044 42.9924 308.892 42.4318C307.756 41.8712 306.4 41.5909 304.824 41.5909H296.574V53.9545ZM296.574 34.9318H303.869C305.218 34.9318 306.415 34.697 307.46 34.2273C308.521 33.7424 309.354 33.0606 309.96 32.1818C310.581 31.303 310.892 30.25 310.892 29.0227C310.892 27.3409 310.294 25.9848 309.097 24.9545C307.915 23.9242 306.233 23.4091 304.051 23.4091H296.574V34.9318ZM357.795 15.4545H367.636V45.6818C367.636 49.0758 366.826 52.0455 365.205 54.5909C363.598 57.1364 361.348 59.1212 358.455 60.5455C355.561 61.9545 352.189 62.6591 348.341 62.6591C344.477 62.6591 341.098 61.9545 338.205 60.5455C335.311 59.1212 333.061 57.1364 331.455 54.5909C329.848 52.0455 329.045 49.0758 329.045 45.6818V15.4545H338.886V44.8409C338.886 46.6136 339.273 48.1894 340.045 49.5682C340.833 50.947 341.939 52.0303 343.364 52.8182C344.788 53.6061 346.447 54 348.341 54C350.25 54 351.909 53.6061 353.318 52.8182C354.742 52.0303 355.841 50.947 356.614 49.5682C357.402 48.1894 357.795 46.6136 357.795 44.8409V15.4545ZM373.006 15.4545H384.028L394.642 35.5H395.097L405.71 15.4545H416.733L399.756 45.5455V62H389.983V45.5455L373.006 15.4545Z" fill="white"/>
<path d="M19.4091 144.818V86.6364H23.1364V144.818H19.4091ZM29.2955 105.841C29.1136 104.008 28.3333 102.583 26.9545 101.568C25.5758 100.553 23.7045 100.045 21.3409 100.045C19.7348 100.045 18.3788 100.273 17.2727 100.727C16.1667 101.167 15.3182 101.78 14.7273 102.568C14.1515 103.356 13.8636 104.25 13.8636 105.25C13.8333 106.083 14.0076 106.811 14.3864 107.432C14.7803 108.053 15.3182 108.591 16 109.045C16.6818 109.485 17.4697 109.871 18.3636 110.205C19.2576 110.523 20.2121 110.795 21.2273 111.023L25.4091 112.023C27.4394 112.477 29.303 113.083 31 113.841C32.697 114.598 34.1667 115.53 35.4091 116.636C36.6515 117.742 37.6136 119.045 38.2955 120.545C38.9924 122.045 39.3485 123.765 39.3636 125.705C39.3485 128.553 38.6212 131.023 37.1818 133.114C35.7576 135.189 33.697 136.803 31 137.955C28.3182 139.091 25.0833 139.659 21.2955 139.659C17.5379 139.659 14.2652 139.083 11.4773 137.932C8.70455 136.78 6.53788 135.076 4.97727 132.818C3.43182 130.545 2.62121 127.735 2.54545 124.386H12.0682C12.1742 125.947 12.6212 127.25 13.4091 128.295C14.2121 129.326 15.2803 130.106 16.6136 130.636C17.9621 131.152 19.4848 131.409 21.1818 131.409C22.8485 131.409 24.2955 131.167 25.5227 130.682C26.7652 130.197 27.7273 129.523 28.4091 128.659C29.0909 127.795 29.4318 126.803 29.4318 125.682C29.4318 124.636 29.1212 123.758 28.5 123.045C27.8939 122.333 27 121.727 25.8182 121.227C24.6515 120.727 23.2197 120.273 21.5227 119.864L16.4545 118.591C12.5303 117.636 9.43182 116.144 7.15909 114.114C4.88636 112.083 3.75758 109.348 3.77273 105.909C3.75758 103.091 4.50758 100.629 6.02273 98.5227C7.55303 96.4167 9.65152 94.7727 12.3182 93.5909C14.9848 92.4091 18.0152 91.8182 21.4091 91.8182C24.8636 91.8182 27.8788 92.4091 30.4545 93.5909C33.0455 94.7727 35.0606 96.4167 36.5 98.5227C37.9394 100.629 38.6818 103.068 38.7273 105.841H29.2955ZM45.983 139V92.4545H64.6193C68.0436 92.4545 70.8996 92.9621 73.1875 93.9773C75.4754 94.9924 77.1951 96.4015 78.3466 98.2045C79.4981 99.9924 80.0739 102.053 80.0739 104.386C80.0739 106.205 79.7102 107.803 78.983 109.182C78.2557 110.545 77.2557 111.667 75.983 112.545C74.7254 113.409 73.286 114.023 71.6648 114.386V114.841C73.4375 114.917 75.0966 115.417 76.642 116.341C78.2027 117.265 79.4678 118.561 80.4375 120.227C81.4072 121.879 81.892 123.848 81.892 126.136C81.892 128.606 81.2784 130.811 80.0511 132.75C78.839 134.674 77.0436 136.197 74.6648 137.318C72.286 138.439 69.3542 139 65.8693 139H45.983ZM55.8239 130.955H63.8466C66.589 130.955 68.589 130.432 69.8466 129.386C71.1042 128.326 71.733 126.917 71.733 125.159C71.733 123.871 71.4223 122.735 70.8011 121.75C70.1799 120.765 69.2936 119.992 68.142 119.432C67.0057 118.871 65.6496 118.591 64.0739 118.591H55.8239V130.955ZM55.8239 111.932H63.1193C64.4678 111.932 65.6648 111.697 66.7102 111.227C67.7708 110.742 68.6042 110.061 69.2102 109.182C69.8314 108.303 70.142 107.25 70.142 106.023C70.142 104.341 69.5436 102.985 68.3466 101.955C67.1648 100.924 65.483 100.409 63.3011 100.409H55.8239V111.932ZM117.045 92.4545H126.886V122.682C126.886 126.076 126.076 129.045 124.455 131.591C122.848 134.136 120.598 136.121 117.705 137.545C114.811 138.955 111.439 139.659 107.591 139.659C103.727 139.659 100.348 138.955 97.4545 137.545C94.5606 136.121 92.3106 134.136 90.7045 131.591C89.0985 129.045 88.2955 126.076 88.2955 122.682V92.4545H98.1364V121.841C98.1364 123.614 98.5227 125.189 99.2955 126.568C100.083 127.947 101.189 129.03 102.614 129.818C104.038 130.606 105.697 131 107.591 131C109.5 131 111.159 130.606 112.568 129.818C113.992 129.03 115.091 127.947 115.864 126.568C116.652 125.189 117.045 123.614 117.045 121.841V92.4545ZM160.233 105.841C160.051 104.008 159.271 102.583 157.892 101.568C156.513 100.553 154.642 100.045 152.278 100.045C150.672 100.045 149.316 100.273 148.21 100.727C147.104 101.167 146.256 101.78 145.665 102.568C145.089 103.356 144.801 104.25 144.801 105.25C144.771 106.083 144.945 106.811 145.324 107.432C145.718 108.053 146.256 108.591 146.938 109.045C147.619 109.485 148.407 109.871 149.301 110.205C150.195 110.523 151.15 110.795 152.165 111.023L156.347 112.023C158.377 112.477 160.241 113.083 161.938 113.841C163.634 114.598 165.104 115.53 166.347 116.636C167.589 117.742 168.551 119.045 169.233 120.545C169.93 122.045 170.286 123.765 170.301 125.705C170.286 128.553 169.559 131.023 168.119 133.114C166.695 135.189 164.634 136.803 161.938 137.955C159.256 139.091 156.021 139.659 152.233 139.659C148.475 139.659 145.203 139.083 142.415 137.932C139.642 136.78 137.475 135.076 135.915 132.818C134.369 130.545 133.559 127.735 133.483 124.386H143.006C143.112 125.947 143.559 127.25 144.347 128.295C145.15 129.326 146.218 130.106 147.551 130.636C148.9 131.152 150.422 131.409 152.119 131.409C153.786 131.409 155.233 131.167 156.46 130.682C157.703 130.197 158.665 129.523 159.347 128.659C160.028 127.795 160.369 126.803 160.369 125.682C160.369 124.636 160.059 123.758 159.438 123.045C158.831 122.333 157.938 121.727 156.756 121.227C155.589 120.727 154.157 120.273 152.46 119.864L147.392 118.591C143.468 117.636 140.369 116.144 138.097 114.114C135.824 112.083 134.695 109.348 134.71 105.909C134.695 103.091 135.445 100.629 136.96 98.5227C138.491 96.4167 140.589 94.7727 143.256 93.5909C145.922 92.4091 148.953 91.8182 152.347 91.8182C155.801 91.8182 158.816 92.4091 161.392 93.5909C163.983 94.7727 165.998 96.4167 167.438 98.5227C168.877 100.629 169.619 103.068 169.665 105.841H160.233ZM186.761 92.4545V139H176.92V92.4545H186.761ZM233.79 92.4545V139H225.29L205.04 109.705H204.699V139H194.858V92.4545H203.494L223.585 121.727H223.994V92.4545H233.79ZM241.92 139V92.4545H273.284V100.568H251.761V111.659H271.67V119.773H251.761V130.886H273.375V139H241.92ZM306.358 105.841C306.176 104.008 305.396 102.583 304.017 101.568C302.638 100.553 300.767 100.045 298.403 100.045C296.797 100.045 295.441 100.273 294.335 100.727C293.229 101.167 292.381 101.78 291.79 102.568C291.214 103.356 290.926 104.25 290.926 105.25C290.896 106.083 291.07 106.811 291.449 107.432C291.843 108.053 292.381 108.591 293.062 109.045C293.744 109.485 294.532 109.871 295.426 110.205C296.32 110.523 297.275 110.795 298.29 111.023L302.472 112.023C304.502 112.477 306.366 113.083 308.062 113.841C309.759 114.598 311.229 115.53 312.472 116.636C313.714 117.742 314.676 119.045 315.358 120.545C316.055 122.045 316.411 123.765 316.426 125.705C316.411 128.553 315.684 131.023 314.244 133.114C312.82 135.189 310.759 136.803 308.062 137.955C305.381 139.091 302.146 139.659 298.358 139.659C294.6 139.659 291.328 139.083 288.54 137.932C285.767 136.78 283.6 135.076 282.04 132.818C280.494 130.545 279.684 127.735 279.608 124.386H289.131C289.237 125.947 289.684 127.25 290.472 128.295C291.275 129.326 292.343 130.106 293.676 130.636C295.025 131.152 296.547 131.409 298.244 131.409C299.911 131.409 301.358 131.167 302.585 130.682C303.828 130.197 304.79 129.523 305.472 128.659C306.153 127.795 306.494 126.803 306.494 125.682C306.494 124.636 306.184 123.758 305.562 123.045C304.956 122.333 304.063 121.727 302.881 121.227C301.714 120.727 300.282 120.273 298.585 119.864L293.517 118.591C289.593 117.636 286.494 116.144 284.222 114.114C281.949 112.083 280.82 109.348 280.835 105.909C280.82 103.091 281.57 100.629 283.085 98.5227C284.616 96.4167 286.714 94.7727 289.381 93.5909C292.047 92.4091 295.078 91.8182 298.472 91.8182C301.926 91.8182 304.941 92.4091 307.517 93.5909C310.108 94.7727 312.123 96.4167 313.562 98.5227C315.002 100.629 315.744 103.068 315.79 105.841H306.358ZM348.295 105.841C348.114 104.008 347.333 102.583 345.955 101.568C344.576 100.553 342.705 100.045 340.341 100.045C338.735 100.045 337.379 100.273 336.273 100.727C335.167 101.167 334.318 101.78 333.727 102.568C333.152 103.356 332.864 104.25 332.864 105.25C332.833 106.083 333.008 106.811 333.386 107.432C333.78 108.053 334.318 108.591 335 109.045C335.682 109.485 336.47 109.871 337.364 110.205C338.258 110.523 339.212 110.795 340.227 111.023L344.409 112.023C346.439 112.477 348.303 113.083 350 113.841C351.697 114.598 353.167 115.53 354.409 116.636C355.652 117.742 356.614 119.045 357.295 120.545C357.992 122.045 358.348 123.765 358.364 125.705C358.348 128.553 357.621 131.023 356.182 133.114C354.758 135.189 352.697 136.803 350 137.955C347.318 139.091 344.083 139.659 340.295 139.659C336.538 139.659 333.265 139.083 330.477 137.932C327.705 136.78 325.538 135.076 323.977 132.818C322.432 130.545 321.621 127.735 321.545 124.386H331.068C331.174 125.947 331.621 127.25 332.409 128.295C333.212 129.326 334.28 130.106 335.614 130.636C336.962 131.152 338.485 131.409 340.182 131.409C341.848 131.409 343.295 131.167 344.523 130.682C345.765 130.197 346.727 129.523 347.409 128.659C348.091 127.795 348.432 126.803 348.432 125.682C348.432 124.636 348.121 123.758 347.5 123.045C346.894 122.333 346 121.727 344.818 121.227C343.652 120.727 342.22 120.273 340.523 119.864L335.455 118.591C331.53 117.636 328.432 116.144 326.159 114.114C323.886 112.083 322.758 109.348 322.773 105.909C322.758 103.091 323.508 100.629 325.023 98.5227C326.553 96.4167 328.652 94.7727 331.318 93.5909C333.985 92.4091 337.015 91.8182 340.409 91.8182C343.864 91.8182 346.879 92.4091 349.455 93.5909C352.045 94.7727 354.061 96.4167 355.5 98.5227C356.939 100.629 357.682 103.068 357.727 105.841H348.295Z" fill="#FCC02F"/>
</svg>
