<svg width="231" height="49" viewBox="0 0 231 49" fill="none" xmlns="http://www.w3.org/2000/svg">
<path d="M0.0454545 1.45454H12.1818L25 32.7273H25.5455L38.3636 1.45454H50.5V48H40.9545V17.7045H40.5682L28.5227 47.7727H22.0227L9.97727 17.5909H9.59091V48H0.0454545V1.45454ZM58.608 48V1.45454H89.9716V9.56818H68.4489V20.6591H88.358V28.7727H68.4489V39.8864H90.0625V48H58.608Z" fill="white"/>
<path d="M97.7955 1.45454H109.932L122.75 32.7273H123.295L136.114 1.45454H148.25V48H138.705V17.7045H138.318L126.273 47.7727H119.773L107.727 17.5909H107.341V48H97.7955V1.45454ZM156.358 48V1.45454H187.722V9.56818H166.199V20.6591H186.108V28.7727H166.199V39.8864H187.812V48H156.358ZM220.795 14.8409C220.614 13.0076 219.833 11.5833 218.455 10.5682C217.076 9.55303 215.205 9.04545 212.841 9.04545C211.235 9.04545 209.879 9.27273 208.773 9.72727C207.667 10.1667 206.818 10.7803 206.227 11.5682C205.652 12.3561 205.364 13.25 205.364 14.25C205.333 15.0833 205.508 15.8106 205.886 16.4318C206.28 17.053 206.818 17.5909 207.5 18.0455C208.182 18.4848 208.97 18.8712 209.864 19.2045C210.758 19.5227 211.712 19.7955 212.727 20.0227L216.909 21.0227C218.939 21.4773 220.803 22.0833 222.5 22.8409C224.197 23.5985 225.667 24.5303 226.909 25.6364C228.152 26.7424 229.114 28.0455 229.795 29.5455C230.492 31.0455 230.848 32.7652 230.864 34.7045C230.848 37.553 230.121 40.0227 228.682 42.1136C227.258 44.1894 225.197 45.803 222.5 46.9545C219.818 48.0909 216.583 48.6591 212.795 48.6591C209.038 48.6591 205.765 48.0833 202.977 46.9318C200.205 45.7803 198.038 44.0758 196.477 41.8182C194.932 39.5455 194.121 36.7348 194.045 33.3864H203.568C203.674 34.947 204.121 36.25 204.909 37.2955C205.712 38.3258 206.78 39.1061 208.114 39.6364C209.462 40.1515 210.985 40.4091 212.682 40.4091C214.348 40.4091 215.795 40.1667 217.023 39.6818C218.265 39.197 219.227 38.5227 219.909 37.6591C220.591 36.7955 220.932 35.803 220.932 34.6818C220.932 33.6364 220.621 32.7576 220 32.0455C219.394 31.3333 218.5 30.7273 217.318 30.2273C216.152 29.7273 214.72 29.2727 213.023 28.8636L207.955 27.5909C204.03 26.6364 200.932 25.1439 198.659 23.1136C196.386 21.0833 195.258 18.3485 195.273 14.9091C195.258 12.0909 196.008 9.62879 197.523 7.52273C199.053 5.41667 201.152 3.77273 203.818 2.59091C206.485 1.40909 209.515 0.81818 212.909 0.81818C216.364 0.81818 219.379 1.40909 221.955 2.59091C224.545 3.77273 226.561 5.41667 228 7.52273C229.439 9.62879 230.182 12.0682 230.227 14.8409H220.795Z" fill="#FCC02F"/>
</svg>
