<svg width="521" height="49" viewBox="0 0 521 49" fill="none" xmlns="http://www.w3.org/2000/svg">
<path d="M0.0454545 48V1.45454H18.4091C21.9394 1.45454 24.947 2.12879 27.4318 3.47727C29.9167 4.81061 31.8106 6.66667 33.1136 9.04545C34.4318 11.4091 35.0909 14.1364 35.0909 17.2273C35.0909 20.3182 34.4242 23.0455 33.0909 25.4091C31.7576 27.7727 29.8258 29.6136 27.2955 30.9318C24.7803 32.25 21.7348 32.9091 18.1591 32.9091H6.45455V25.0227H16.5682C18.4621 25.0227 20.0227 24.697 21.25 24.0455C22.4924 23.3788 23.4167 22.4621 24.0227 21.2955C24.6439 20.1136 24.9545 18.7576 24.9545 17.2273C24.9545 15.6818 24.6439 14.3333 24.0227 13.1818C23.4167 12.0151 22.4924 11.1136 21.25 10.4773C20.0076 9.82576 18.4318 9.5 16.5227 9.5H9.88636V48H0.0454545ZM41.483 48V1.45454H72.3011V9.56818H51.3239V20.6591H70.2557V28.7727H51.3239V48H41.483ZM78.9205 48V1.45454H97.2841C100.814 1.45454 103.822 2.12879 106.307 3.47727C108.792 4.81061 110.686 6.66667 111.989 9.04545C113.307 11.4091 113.966 14.1364 113.966 17.2273C113.966 20.3182 113.299 23.0455 111.966 25.4091C110.633 27.7727 108.701 29.6136 106.17 30.9318C103.655 32.25 100.61 32.9091 97.0341 32.9091H85.3295V25.0227H95.4432C97.3371 25.0227 98.8977 24.697 100.125 24.0455C101.367 23.3788 102.292 22.4621 102.898 21.2955C103.519 20.1136 103.83 18.7576 103.83 17.2273C103.83 15.6818 103.519 14.3333 102.898 13.1818C102.292 12.0151 101.367 11.1136 100.125 10.4773C98.8826 9.82576 97.3068 9.5 95.3977 9.5H88.7614V48H78.9205Z" fill="white"/>
<path d="M166.034 16.5C165.716 15.3939 165.269 14.4167 164.693 13.5682C164.117 12.7045 163.413 11.9773 162.58 11.3864C161.761 10.7803 160.822 10.3182 159.761 10C158.716 9.68182 157.557 9.52273 156.284 9.52273C153.905 9.52273 151.814 10.1136 150.011 11.2955C148.223 12.4773 146.83 14.197 145.83 16.4545C144.83 18.697 144.33 21.4394 144.33 24.6818C144.33 27.9242 144.822 30.6818 145.807 32.9545C146.792 35.2273 148.186 36.9621 149.989 38.1591C151.792 39.3409 153.92 39.9318 156.375 39.9318C158.602 39.9318 160.504 39.5379 162.08 38.75C163.67 37.947 164.883 36.8182 165.716 35.3636C166.564 33.9091 166.989 32.1894 166.989 30.2045L168.989 30.5H156.989V23.0909H176.466V28.9545C176.466 33.0455 175.602 36.5606 173.875 39.5C172.148 42.4242 169.769 44.6818 166.739 46.2727C163.708 47.8485 160.239 48.6364 156.33 48.6364C151.966 48.6364 148.133 47.6742 144.83 45.75C141.527 43.8106 138.951 41.0606 137.102 37.5C135.269 33.9242 134.352 29.6818 134.352 24.7727C134.352 21 134.898 17.6364 135.989 14.6818C137.095 11.7121 138.64 9.19697 140.625 7.13636C142.61 5.07576 144.92 3.50757 147.557 2.43182C150.193 1.35606 153.049 0.81818 156.125 0.81818C158.761 0.81818 161.216 1.20454 163.489 1.97727C165.761 2.73485 167.777 3.81061 169.534 5.20454C171.307 6.59848 172.754 8.25757 173.875 10.1818C174.996 12.0909 175.716 14.197 176.034 16.5H166.034ZM183.858 48V1.45454H215.222V9.56818H193.699V20.6591H213.608V28.7727H193.699V39.8864H215.312V48H183.858ZM261.977 1.45454V48H253.477L233.227 18.7045H232.886V48H223.045V1.45454H231.682L251.773 30.7273H252.182V1.45454H261.977ZM270.108 48V1.45454H301.472V9.56818H279.949V20.6591H299.858V28.7727H279.949V39.8864H301.562V48H270.108ZM309.295 48V1.45454H327.659C331.174 1.45454 334.174 2.08333 336.659 3.34091C339.159 4.58333 341.061 6.34848 342.364 8.63636C343.682 10.9091 344.341 13.5833 344.341 16.6591C344.341 19.75 343.674 22.4091 342.341 24.6364C341.008 26.8485 339.076 28.5455 336.545 29.7273C334.03 30.9091 330.985 31.5 327.409 31.5H315.114V23.5909H325.818C327.697 23.5909 329.258 23.3333 330.5 22.8182C331.742 22.303 332.667 21.5303 333.273 20.5C333.894 19.4697 334.205 18.1894 334.205 16.6591C334.205 15.1136 333.894 13.8106 333.273 12.75C332.667 11.6894 331.735 10.8864 330.477 10.3409C329.235 9.7803 327.667 9.5 325.773 9.5H319.136V48H309.295ZM334.432 26.8182L346 48H335.136L323.818 26.8182H334.432ZM359.318 48H348.773L364.841 1.45454H377.523L393.568 48H383.023L371.364 12.0909H371L359.318 48ZM358.659 29.7045H383.568V37.3864H358.659V29.7045ZM391.71 9.56818V1.45454H429.938V9.56818H415.688V48H405.96V9.56818H391.71ZM476.881 24.7273C476.881 29.803 475.919 34.1212 473.994 37.6818C472.085 41.2424 469.479 43.9621 466.176 45.8409C462.888 47.7045 459.191 48.6364 455.085 48.6364C450.949 48.6364 447.237 47.697 443.949 45.8182C440.661 43.9394 438.063 41.2197 436.153 37.6591C434.244 34.0985 433.29 29.7879 433.29 24.7273C433.29 19.6515 434.244 15.3333 436.153 11.7727C438.063 8.21212 440.661 5.5 443.949 3.63636C447.237 1.75757 450.949 0.81818 455.085 0.81818C459.191 0.81818 462.888 1.75757 466.176 3.63636C469.479 5.5 472.085 8.21212 473.994 11.7727C475.919 15.3333 476.881 19.6515 476.881 24.7273ZM466.903 24.7273C466.903 21.4394 466.411 18.6667 465.426 16.4091C464.456 14.1515 463.085 12.4394 461.312 11.2727C459.54 10.1061 457.464 9.52273 455.085 9.52273C452.706 9.52273 450.631 10.1061 448.858 11.2727C447.085 12.4394 445.706 14.1515 444.722 16.4091C443.752 18.6667 443.267 21.4394 443.267 24.7273C443.267 28.0152 443.752 30.7879 444.722 33.0455C445.706 35.303 447.085 37.0152 448.858 38.1818C450.631 39.3485 452.706 39.9318 455.085 39.9318C457.464 39.9318 459.54 39.3485 461.312 38.1818C463.085 37.0152 464.456 35.303 465.426 33.0455C466.411 30.7879 466.903 28.0152 466.903 24.7273ZM484.17 48V1.45454H502.534C506.049 1.45454 509.049 2.08333 511.534 3.34091C514.034 4.58333 515.936 6.34848 517.239 8.63636C518.557 10.9091 519.216 13.5833 519.216 16.6591C519.216 19.75 518.549 22.4091 517.216 24.6364C515.883 26.8485 513.951 28.5455 511.42 29.7273C508.905 30.9091 505.86 31.5 502.284 31.5H489.989V23.5909H500.693C502.572 23.5909 504.133 23.3333 505.375 22.8182C506.617 22.303 507.542 21.5303 508.148 20.5C508.769 19.4697 509.08 18.1894 509.08 16.6591C509.08 15.1136 508.769 13.8106 508.148 12.75C507.542 11.6894 506.61 10.8864 505.352 10.3409C504.11 9.7803 502.542 9.5 500.648 9.5H494.011V48H484.17ZM509.307 26.8182L520.875 48H510.011L498.693 26.8182H509.307Z" fill="#FCC02F"/>
</svg>
