<svg width="40" height="40" viewBox="0 0 40 40" fill="none" xmlns="http://www.w3.org/2000/svg">
<circle cx="20.2209" cy="19.5261" r="19.5261" fill="#FCC02F"/>
<mask id="path-2-inside-1_101_270" fill="white">
<path d="M31.7104 10.1768C31.6911 10.0884 31.6487 10.0066 31.5875 9.93995C31.5264 9.87324 31.4486 9.82397 31.3621 9.79715C31.0475 9.73509 30.7219 9.75836 30.4193 9.86455C30.4193 9.86455 9.42317 17.4109 8.22423 18.2467C7.96512 18.4264 7.879 18.5305 7.83631 18.6541C7.62888 19.2487 8.2744 19.5108 8.2744 19.5108L13.6858 21.2744C13.7772 21.2902 13.871 21.2845 13.9598 21.2579C15.191 20.4806 26.3454 13.4367 26.9902 13.2C27.0913 13.1693 27.1662 13.2 27.1497 13.2749C26.8861 14.1781 17.2534 22.7384 17.2002 22.7908C17.1744 22.812 17.1541 22.8392 17.141 22.87C17.128 22.9008 17.1226 22.9343 17.1253 22.9676L16.6221 28.2479C16.6221 28.2479 16.4109 29.8954 18.0554 28.2479C19.2214 27.0804 20.3402 26.1143 20.9011 25.6448C22.7621 26.9291 24.7646 28.3497 25.628 29.0896C25.7729 29.2303 25.9446 29.3404 26.133 29.4132C26.3214 29.486 26.5225 29.5201 26.7244 29.5135C27.5481 29.482 27.7728 28.5811 27.7728 28.5811C27.7728 28.5811 31.598 13.188 31.7268 11.1249C31.7388 10.9227 31.756 10.7932 31.7575 10.6546C31.7644 10.4939 31.7485 10.3331 31.7104 10.1768Z"/>
</mask>
<path d="M31.7104 10.1768C31.6911 10.0884 31.6487 10.0066 31.5875 9.93995C31.5264 9.87324 31.4486 9.82397 31.3621 9.79715C31.0475 9.73509 30.7219 9.75836 30.4193 9.86455C30.4193 9.86455 9.42317 17.4109 8.22423 18.2467C7.96512 18.4264 7.879 18.5305 7.83631 18.6541C7.62888 19.2487 8.2744 19.5108 8.2744 19.5108L13.6858 21.2744C13.7772 21.2902 13.871 21.2845 13.9598 21.2579C15.191 20.4806 26.3454 13.4367 26.9902 13.2C27.0913 13.1693 27.1662 13.2 27.1497 13.2749C26.8861 14.1781 17.2534 22.7384 17.2002 22.7908C17.1744 22.812 17.1541 22.8392 17.141 22.87C17.128 22.9008 17.1226 22.9343 17.1253 22.9676L16.6221 28.2479C16.6221 28.2479 16.4109 29.8954 18.0554 28.2479C19.2214 27.0804 20.3402 26.1143 20.9011 25.6448C22.7621 26.9291 24.7646 28.3497 25.628 29.0896C25.7729 29.2303 25.9446 29.3404 26.133 29.4132C26.3214 29.486 26.5225 29.5201 26.7244 29.5135C27.5481 29.482 27.7728 28.5811 27.7728 28.5811C27.7728 28.5811 31.598 13.188 31.7268 11.1249C31.7388 10.9227 31.756 10.7932 31.7575 10.6546C31.7644 10.4939 31.7485 10.3331 31.7104 10.1768Z" fill="#083ADB"/>
<path d="M31.3621 9.79715L31.6654 8.81964L31.6135 8.80355L31.5602 8.79304L31.3621 9.79715ZM30.4193 9.86455L30.0805 8.89881L30.3238 10.8835L30.4193 9.86455ZM8.22423 18.2467L8.80755 19.0876L8.80949 19.0863L8.22423 18.2467ZM7.83631 18.6541L8.80266 18.9912L8.80368 18.9882L7.83631 18.6541ZM8.2744 19.5108L7.88937 20.459L7.92288 20.4727L7.95727 20.4839L8.2744 19.5108ZM13.6858 21.2744L13.3686 22.2475L13.4387 22.2703L13.5114 22.2829L13.6858 21.2744ZM13.9598 21.2579L14.2537 22.2383L14.3879 22.198L14.5062 22.1233L13.9598 21.2579ZM26.9902 13.2L26.6928 12.2207L26.6649 12.2292L26.6376 12.2392L26.9902 13.2ZM27.1497 13.2749L28.1322 13.5617L28.1419 13.5285L28.1493 13.4948L27.1497 13.2749ZM17.2002 22.7908L17.8494 23.582L17.8855 23.5524L17.9188 23.5196L17.2002 22.7908ZM17.1253 22.9676L18.1442 23.0647L18.1528 22.9742L18.1453 22.8837L17.1253 22.9676ZM16.6221 28.2479L17.6372 28.378L17.6393 28.3615L17.6409 28.345L16.6221 28.2479ZM18.0554 28.2479L17.3313 27.5246L17.3311 27.5248L18.0554 28.2479ZM20.9011 25.6448L21.4825 24.8025L20.8414 24.36L20.2442 24.86L20.9011 25.6448ZM25.628 29.0896L26.3411 28.3555L26.3182 28.3332L26.294 28.3124L25.628 29.0896ZM26.7244 29.5135L26.7582 30.5364L26.7634 30.5362L26.7244 29.5135ZM27.7728 28.5811L28.7658 28.8288L28.766 28.8279L27.7728 28.5811ZM31.7268 11.1249L32.7483 11.1887L32.7485 11.1854L31.7268 11.1249ZM31.7575 10.6546L30.735 10.6112L30.7343 10.6274L30.7341 10.6435L31.7575 10.6546ZM32.7104 9.95905C32.6526 9.69365 32.5254 9.44834 32.3418 9.24817L30.8333 10.6317C30.772 10.565 30.7296 10.4831 30.7103 10.3946L32.7104 9.95905ZM32.3418 9.24817C32.1582 9.04799 31.9248 8.90012 31.6654 8.81964L31.0589 10.7747C30.9724 10.7478 30.8945 10.6985 30.8333 10.6317L32.3418 9.24817ZM31.5602 8.79304C31.0663 8.69564 30.5554 8.73216 30.0805 8.89881L30.7582 10.8303C30.8885 10.7846 31.0286 10.7745 31.1641 10.8013L31.5602 8.79304ZM30.4193 9.86455C30.0731 8.90141 30.0731 8.90144 30.0729 8.9015C30.0727 8.90156 30.0725 8.90165 30.0721 8.90177C30.0715 8.902 30.0705 8.90235 30.0693 8.90281C30.0667 8.90373 30.0629 8.90511 30.0578 8.90693C30.0476 8.91058 30.0325 8.91601 30.0126 8.92318C29.9728 8.93752 29.9136 8.95879 29.8365 8.98656C29.6822 9.04211 29.4559 9.12365 29.1674 9.22772C28.5906 9.43586 27.7652 9.73409 26.771 10.0946C24.7829 10.8155 22.119 11.7856 19.4172 12.782C16.7164 13.778 13.9737 14.8018 11.8294 15.6296C10.7581 16.0432 9.83012 16.4102 9.12932 16.7015C8.77958 16.8469 8.47924 16.9764 8.24285 17.0853C8.03349 17.1817 7.7997 17.295 7.63897 17.4071L8.80949 19.0863C8.79863 19.0939 8.86937 19.0503 9.09929 18.9444C9.30218 18.8509 9.57587 18.7326 9.91498 18.5916C10.5919 18.3103 11.501 17.9506 12.5666 17.5392C14.6963 16.717 17.4275 15.6975 20.1255 14.7025C22.8226 13.7078 25.4827 12.7391 27.4688 12.0189C28.4618 11.6588 29.2861 11.361 29.8621 11.1532C30.1501 11.0492 30.3761 10.9679 30.5299 10.9124C30.6069 10.8847 30.6658 10.8635 30.7055 10.8493C30.7253 10.8421 30.7403 10.8367 30.7504 10.8331C30.7554 10.8313 30.7592 10.8299 30.7617 10.829C30.763 10.8286 30.7639 10.8282 30.7646 10.828C30.7649 10.8279 30.7651 10.8278 30.7653 10.8278C30.7654 10.8277 30.7655 10.8277 30.4193 9.86455ZM7.64091 17.4057C7.3374 17.6163 7.02189 17.8772 6.86895 18.3199L8.80368 18.9882C8.79321 19.0185 8.77708 19.0555 8.75404 19.0935C8.73171 19.1304 8.71091 19.1551 8.69976 19.1671C8.68995 19.1777 8.6899 19.176 8.7084 19.1609C8.72691 19.1457 8.75795 19.122 8.80755 19.0876L7.64091 17.4057ZM6.86997 18.3169C6.60625 19.0729 6.91423 19.6786 7.2424 20.0174C7.39213 20.172 7.54662 20.2769 7.65592 20.3415C7.7126 20.375 7.7627 20.401 7.80201 20.42C7.8218 20.4295 7.83924 20.4375 7.85387 20.444C7.86119 20.4472 7.86785 20.4501 7.87377 20.4526C7.87674 20.4538 7.87952 20.455 7.88213 20.4561C7.88343 20.4566 7.88468 20.4571 7.88589 20.4576C7.88649 20.4579 7.88709 20.4581 7.88767 20.4584C7.88796 20.4585 7.88838 20.4586 7.88853 20.4587C7.88895 20.4589 7.88937 20.459 8.2744 19.5108C8.65943 18.5625 8.65985 18.5627 8.66026 18.5628C8.6604 18.5629 8.66081 18.5631 8.66108 18.5632C8.66162 18.5634 8.66216 18.5636 8.66268 18.5638C8.66373 18.5643 8.66476 18.5647 8.66575 18.5651C8.66773 18.5659 8.66959 18.5667 8.67134 18.5674C8.67484 18.5689 8.67789 18.5702 8.68054 18.5714C8.68581 18.5737 8.68959 18.5755 8.69213 18.5767C8.69695 18.5791 8.69824 18.5799 8.69764 18.5795C8.69239 18.5764 8.69846 18.5786 8.71274 18.5934C8.72787 18.609 8.77338 18.6611 8.80028 18.7539C8.83101 18.86 8.81717 18.9496 8.80265 18.9912L6.86997 18.3169ZM7.95727 20.4839L13.3686 22.2475L14.0029 20.3013L8.59154 18.5377L7.95727 20.4839ZM13.5114 22.2829C13.759 22.3257 14.0131 22.3104 14.2537 22.2383L13.666 20.2775C13.7289 20.2587 13.7954 20.2547 13.8601 20.2659L13.5114 22.2829ZM14.5062 22.1233C15.1218 21.7347 18.2163 19.7806 21.237 17.8943C22.7478 16.951 24.2376 16.0261 25.3888 15.323C25.9649 14.9712 26.4525 14.6771 26.814 14.4648C26.9953 14.3584 27.1398 14.2755 27.2456 14.2171C27.3797 14.1431 27.3899 14.1436 27.3428 14.1608L26.6376 12.2392C26.51 12.2861 26.3574 12.3693 26.2568 12.4249C26.1277 12.4961 25.9652 12.5895 25.7774 12.6998C25.4007 12.921 24.9014 13.2222 24.3219 13.5761C23.1618 14.2846 21.6652 15.2137 20.1528 16.1581C17.1274 18.0473 14.0291 20.0038 13.4134 20.3925L14.5062 22.1233ZM27.2876 14.1793C27.2196 14.2 26.982 14.2609 26.6937 14.131C26.5294 14.057 26.3414 13.9132 26.2255 13.6746C26.1106 13.4384 26.1159 13.211 26.1502 13.055L28.1493 13.4948C28.1918 13.3014 28.1939 13.0421 28.0665 12.78C27.938 12.5156 27.7281 12.352 27.5344 12.2647C27.1876 12.1085 26.862 12.1694 26.6928 12.2207L27.2876 14.1793ZM26.1673 12.9882C26.2101 12.8415 26.271 12.791 26.1792 12.9122C26.1191 12.9915 26.0237 13.1056 25.8882 13.2561C25.6191 13.5548 25.2373 13.9474 24.7718 14.4076C23.8435 15.3255 22.6233 16.4724 21.4019 17.5999C20.1821 18.7258 18.9681 19.826 18.0552 20.6485C17.1697 21.4462 16.5166 22.0276 16.4817 22.062L17.9188 23.5196C17.9104 23.5279 18.4813 23.0196 19.4252 22.1693C20.3416 21.3437 21.5622 20.2375 22.7903 19.1039C24.0166 17.9719 25.2573 16.8061 26.211 15.8632C26.6864 15.3931 27.1008 14.9683 27.4092 14.6258C27.5624 14.4557 27.701 14.2932 27.8111 14.1478C27.8894 14.0444 28.0564 13.8212 28.1322 13.5617L26.1673 12.9882ZM16.551 21.9996C16.3972 22.1258 16.2763 22.2875 16.1987 22.4707L18.0834 23.2693C18.0318 23.3909 17.9515 23.4982 17.8494 23.582L16.551 21.9996ZM16.1987 22.4707C16.121 22.6539 16.089 22.8532 16.1053 23.0515L18.1453 22.8837C18.1562 23.0153 18.1349 23.1477 18.0834 23.2693L16.1987 22.4707ZM16.1065 22.8705L15.6032 28.1508L17.6409 28.345L18.1442 23.0647L16.1065 22.8705ZM16.6221 28.2479C15.6069 28.1177 15.6069 28.1182 15.6068 28.1186C15.6068 28.1188 15.6067 28.1192 15.6067 28.1195C15.6066 28.1202 15.6065 28.1208 15.6065 28.1215C15.6063 28.1228 15.6061 28.1243 15.6059 28.1259C15.6055 28.1291 15.6051 28.1327 15.6046 28.1367C15.6037 28.1448 15.6027 28.1546 15.6016 28.166C15.5993 28.1887 15.5968 28.2181 15.5947 28.2529C15.5905 28.321 15.5874 28.4166 15.5924 28.5264C15.5998 28.689 15.6303 29.1118 15.9001 29.4755C16.0595 29.6904 16.3063 29.888 16.6433 29.9678C16.9625 30.0434 17.2581 29.9885 17.4888 29.9043C17.9185 29.7473 18.344 29.4075 18.7798 28.9709L17.3311 27.5248C17.1497 27.7066 17.0115 27.825 16.9114 27.8993C16.8075 27.9765 16.7688 27.988 16.7866 27.9816C16.8058 27.9745 16.9317 27.9325 17.1151 27.976C17.3163 28.0236 17.461 28.144 17.544 28.2559C17.6148 28.3514 17.6336 28.4286 17.6361 28.439C17.6401 28.4553 17.6382 28.4543 17.6372 28.4327C17.6363 28.4138 17.6368 28.3936 17.6378 28.378C17.6382 28.371 17.6386 28.3666 17.6387 28.366C17.6387 28.3657 17.6386 28.3665 17.6384 28.3684C17.6383 28.3694 17.6382 28.3706 17.638 28.3722C17.6379 28.373 17.6378 28.3739 17.6376 28.3749C17.6376 28.3753 17.6375 28.3758 17.6374 28.3764C17.6374 28.3766 17.6374 28.377 17.6373 28.3772C17.6373 28.3776 17.6372 28.378 16.6221 28.2479ZM18.7796 28.9711C19.9166 27.8326 21.0107 26.8878 21.5581 26.4296L20.2442 24.86C19.6698 25.3409 18.5262 26.3282 17.3313 27.5246L18.7796 28.9711ZM20.3198 26.4871C22.1953 27.7815 24.148 29.1692 24.9621 29.8668L26.294 28.3124C25.3812 27.5303 23.3288 26.0767 21.4825 24.8025L20.3198 26.4871ZM24.9149 29.8237C25.1585 30.0603 25.4472 30.2454 25.764 30.3678L26.5021 28.4586C26.442 28.4354 26.3873 28.4003 26.3411 28.3555L24.9149 29.8237ZM25.764 30.3678C26.0807 30.4903 26.4188 30.5476 26.7582 30.5364L26.6905 28.4906C26.6262 28.4927 26.5621 28.4818 26.5021 28.4586L25.764 30.3678ZM26.7634 30.5362C27.602 30.5042 28.1255 30.0118 28.3981 29.6193C28.5331 29.4249 28.6209 29.238 28.6753 29.102C28.703 29.0326 28.7235 28.9727 28.738 28.9264C28.7453 28.9032 28.7512 28.8831 28.7557 28.8668C28.758 28.8586 28.76 28.8513 28.7617 28.8449C28.7625 28.8417 28.7633 28.8388 28.764 28.8361C28.7643 28.8348 28.7647 28.8335 28.765 28.8323C28.7651 28.8316 28.7653 28.831 28.7654 28.8305C28.7655 28.8302 28.7656 28.8297 28.7656 28.8296C28.7657 28.8292 28.7658 28.8288 27.7728 28.5811C26.7797 28.3335 26.7798 28.3331 26.78 28.3327C26.78 28.3325 26.7801 28.3321 26.7802 28.3319C26.7803 28.3313 26.7804 28.3308 26.7805 28.3303C26.7808 28.3293 26.781 28.3283 26.7813 28.3274C26.7817 28.3256 26.7822 28.324 26.7826 28.3225C26.7833 28.3195 26.784 28.3173 26.7844 28.3157C26.7853 28.3126 26.7855 28.3119 26.7851 28.3134C26.7841 28.3165 26.7806 28.3272 26.7744 28.3427C26.7608 28.3766 26.741 28.417 26.7169 28.4517C26.6926 28.4867 26.6774 28.4968 26.6784 28.4961C26.6872 28.4904 26.6964 28.4903 26.6853 28.4908L26.7634 30.5362ZM27.7728 28.5811C28.766 28.8279 28.7661 28.8279 28.7661 28.8277C28.7661 28.8276 28.7662 28.8274 28.7662 28.8272C28.7663 28.8267 28.7665 28.826 28.7668 28.825C28.7672 28.8232 28.7679 28.8203 28.7689 28.8166C28.7707 28.8091 28.7735 28.798 28.7771 28.7833C28.7844 28.754 28.7952 28.7106 28.8092 28.6538C28.8373 28.5403 28.8786 28.3736 28.9311 28.1608C29.0361 27.7353 29.1862 27.1252 29.3667 26.3867C29.7277 24.9099 30.2105 22.9188 30.6974 20.8625C31.1842 18.8073 31.6761 16.6826 32.0548 14.9402C32.4238 13.2423 32.7101 11.8013 32.7483 11.1887L30.7054 11.0611C30.6792 11.4801 30.439 12.7369 30.0546 14.5054C29.6798 16.2295 29.1913 18.34 28.7056 20.3908C28.2201 22.4407 27.7386 24.4268 27.3783 25.9007C27.1982 26.6375 27.0484 27.2462 26.9438 27.6705C26.8914 27.8827 26.8503 28.0487 26.8223 28.1617C26.8084 28.2182 26.7976 28.2614 26.7904 28.2904C26.7868 28.305 26.7841 28.316 26.7823 28.3233C26.7814 28.327 26.7807 28.3297 26.7802 28.3316C26.78 28.3325 26.7798 28.3332 26.7797 28.3336C26.7796 28.3339 26.7796 28.334 26.7796 28.3341C26.7796 28.3342 26.7795 28.3343 27.7728 28.5811ZM32.7485 11.1854C32.7545 11.084 32.7792 10.8253 32.7809 10.6657L30.7341 10.6435C30.7329 10.761 30.7231 10.7614 30.7052 11.0644L32.7485 11.1854ZM32.7801 10.698C32.791 10.4412 32.7656 10.184 32.7047 9.93425L30.7161 10.4194C30.7314 10.4821 30.7377 10.5467 30.735 10.6112L32.7801 10.698Z" fill="#083ADB" mask="url(#path-2-inside-1_101_270)"/>
</svg>
