<svg width="644" height="59" viewBox="0 0 644 59" fill="none" xmlns="http://www.w3.org/2000/svg">
<mask id="path-1-outside-1_27_165" maskUnits="userSpaceOnUse" x="-2" y="-1" width="647" height="61" fill="black">
<rect fill="white" x="-2" y="-1" width="647" height="61"/>
<path d="M13.5227 53L0.204545 6.45454H10.9545L18.6591 38.7955H19.0455L27.5455 6.45454H36.75L45.2273 38.8636H45.6364L53.3409 6.45454H64.0909L50.7727 53H41.1818L32.3182 22.5682H31.9545L23.1136 53H13.5227ZM67.5852 14.5682V6.45454H105.812V14.5682H91.5625V53H81.8352V14.5682H67.5852ZM112.108 53V6.45454H142.926V14.5682H121.949V25.6591H140.881V33.7727H121.949V53H112.108ZM174.199 6.45454V53H164.358V6.45454H174.199ZM207.545 19.8409C207.364 18.0076 206.583 16.5833 205.205 15.5682C203.826 14.553 201.955 14.0455 199.591 14.0455C197.985 14.0455 196.629 14.2727 195.523 14.7273C194.417 15.1667 193.568 15.7803 192.977 16.5682C192.402 17.3561 192.114 18.25 192.114 19.25C192.083 20.0833 192.258 20.8106 192.636 21.4318C193.03 22.053 193.568 22.5909 194.25 23.0455C194.932 23.4848 195.72 23.8712 196.614 24.2045C197.508 24.5227 198.462 24.7955 199.477 25.0227L203.659 26.0227C205.689 26.4773 207.553 27.0833 209.25 27.8409C210.947 28.5985 212.417 29.5303 213.659 30.6364C214.902 31.7424 215.864 33.0455 216.545 34.5455C217.242 36.0455 217.598 37.7652 217.614 39.7045C217.598 42.553 216.871 45.0227 215.432 47.1136C214.008 49.1894 211.947 50.803 209.25 51.9545C206.568 53.0909 203.333 53.6591 199.545 53.6591C195.788 53.6591 192.515 53.0833 189.727 51.9318C186.955 50.7803 184.788 49.0758 183.227 46.8182C181.682 44.5455 180.871 41.7348 180.795 38.3864H190.318C190.424 39.947 190.871 41.25 191.659 42.2955C192.462 43.3258 193.53 44.1061 194.864 44.6364C196.212 45.1515 197.735 45.4091 199.432 45.4091C201.098 45.4091 202.545 45.1667 203.773 44.6818C205.015 44.197 205.977 43.5227 206.659 42.6591C207.341 41.7955 207.682 40.803 207.682 39.6818C207.682 38.6364 207.371 37.7576 206.75 37.0455C206.144 36.3333 205.25 35.7273 204.068 35.2273C202.902 34.7273 201.47 34.2727 199.773 33.8636L194.705 32.5909C190.78 31.6364 187.682 30.1439 185.409 28.1136C183.136 26.0833 182.008 23.3485 182.023 19.9091C182.008 17.0909 182.758 14.6288 184.273 12.5227C185.803 10.4167 187.902 8.77273 190.568 7.59091C193.235 6.40909 196.265 5.81818 199.659 5.81818C203.114 5.81818 206.129 6.40909 208.705 7.59091C211.295 8.77273 213.311 10.4167 214.75 12.5227C216.189 14.6288 216.932 17.0682 216.977 19.8409H207.545Z"/>
<path d="M254.409 58.8182V0.63636H258.136V58.8182H254.409ZM264.295 19.8409C264.114 18.0076 263.333 16.5833 261.955 15.5682C260.576 14.553 258.705 14.0455 256.341 14.0455C254.735 14.0455 253.379 14.2727 252.273 14.7273C251.167 15.1667 250.318 15.7803 249.727 16.5682C249.152 17.3561 248.864 18.25 248.864 19.25C248.833 20.0833 249.008 20.8106 249.386 21.4318C249.78 22.053 250.318 22.5909 251 23.0455C251.682 23.4848 252.47 23.8712 253.364 24.2045C254.258 24.5227 255.212 24.7955 256.227 25.0227L260.409 26.0227C262.439 26.4773 264.303 27.0833 266 27.8409C267.697 28.5985 269.167 29.5303 270.409 30.6364C271.652 31.7424 272.614 33.0455 273.295 34.5455C273.992 36.0455 274.348 37.7652 274.364 39.7045C274.348 42.553 273.621 45.0227 272.182 47.1136C270.758 49.1894 268.697 50.803 266 51.9545C263.318 53.0909 260.083 53.6591 256.295 53.6591C252.538 53.6591 249.265 53.0833 246.477 51.9318C243.705 50.7803 241.538 49.0758 239.977 46.8182C238.432 44.5455 237.621 41.7348 237.545 38.3864H247.068C247.174 39.947 247.621 41.25 248.409 42.2955C249.212 43.3258 250.28 44.1061 251.614 44.6364C252.962 45.1515 254.485 45.4091 256.182 45.4091C257.848 45.4091 259.295 45.1667 260.523 44.6818C261.765 44.197 262.727 43.5227 263.409 42.6591C264.091 41.7955 264.432 40.803 264.432 39.6818C264.432 38.6364 264.121 37.7576 263.5 37.0455C262.894 36.3333 262 35.7273 260.818 35.2273C259.652 34.7273 258.22 34.2727 256.523 33.8636L251.455 32.5909C247.53 31.6364 244.432 30.1439 242.159 28.1136C239.886 26.0833 238.758 23.3485 238.773 19.9091C238.758 17.0909 239.508 14.6288 241.023 12.5227C242.553 10.4167 244.652 8.77273 247.318 7.59091C249.985 6.40909 253.015 5.81818 256.409 5.81818C259.864 5.81818 262.879 6.40909 265.455 7.59091C268.045 8.77273 270.061 10.4167 271.5 12.5227C272.939 14.6288 273.682 17.0682 273.727 19.8409H264.295ZM280.983 53V6.45454H299.619C303.044 6.45454 305.9 6.96212 308.188 7.97727C310.475 8.99242 312.195 10.4015 313.347 12.2045C314.498 13.9924 315.074 16.053 315.074 18.3864C315.074 20.2045 314.71 21.803 313.983 23.1818C313.256 24.5455 312.256 25.6667 310.983 26.5455C309.725 27.4091 308.286 28.0227 306.665 28.3864V28.8409C308.438 28.9167 310.097 29.4167 311.642 30.3409C313.203 31.2652 314.468 32.5606 315.438 34.2273C316.407 35.8788 316.892 37.8485 316.892 40.1364C316.892 42.6061 316.278 44.8106 315.051 46.75C313.839 48.6742 312.044 50.197 309.665 51.3182C307.286 52.4394 304.354 53 300.869 53H280.983ZM290.824 44.9545H298.847C301.589 44.9545 303.589 44.4318 304.847 43.3864C306.104 42.3258 306.733 40.9167 306.733 39.1591C306.733 37.8712 306.422 36.7348 305.801 35.75C305.18 34.7652 304.294 33.9924 303.142 33.4318C302.006 32.8712 300.65 32.5909 299.074 32.5909H290.824V44.9545ZM290.824 25.9318H298.119C299.468 25.9318 300.665 25.697 301.71 25.2273C302.771 24.7424 303.604 24.0606 304.21 23.1818C304.831 22.303 305.142 21.25 305.142 20.0227C305.142 18.3409 304.544 16.9848 303.347 15.9545C302.165 14.9242 300.483 14.4091 298.301 14.4091H290.824V25.9318ZM352.045 6.45454H361.886V36.6818C361.886 40.0758 361.076 43.0455 359.455 45.5909C357.848 48.1364 355.598 50.1212 352.705 51.5455C349.811 52.9545 346.439 53.6591 342.591 53.6591C338.727 53.6591 335.348 52.9545 332.455 51.5455C329.561 50.1212 327.311 48.1364 325.705 45.5909C324.098 43.0455 323.295 40.0758 323.295 36.6818V6.45454H333.136V35.8409C333.136 37.6136 333.523 39.1894 334.295 40.5682C335.083 41.947 336.189 43.0303 337.614 43.8182C339.038 44.6061 340.697 45 342.591 45C344.5 45 346.159 44.6061 347.568 43.8182C348.992 43.0303 350.091 41.947 350.864 40.5682C351.652 39.1894 352.045 37.6136 352.045 35.8409V6.45454ZM395.233 19.8409C395.051 18.0076 394.271 16.5833 392.892 15.5682C391.513 14.553 389.642 14.0455 387.278 14.0455C385.672 14.0455 384.316 14.2727 383.21 14.7273C382.104 15.1667 381.256 15.7803 380.665 16.5682C380.089 17.3561 379.801 18.25 379.801 19.25C379.771 20.0833 379.945 20.8106 380.324 21.4318C380.718 22.053 381.256 22.5909 381.938 23.0455C382.619 23.4848 383.407 23.8712 384.301 24.2045C385.195 24.5227 386.15 24.7955 387.165 25.0227L391.347 26.0227C393.377 26.4773 395.241 27.0833 396.938 27.8409C398.634 28.5985 400.104 29.5303 401.347 30.6364C402.589 31.7424 403.551 33.0455 404.233 34.5455C404.93 36.0455 405.286 37.7652 405.301 39.7045C405.286 42.553 404.559 45.0227 403.119 47.1136C401.695 49.1894 399.634 50.803 396.938 51.9545C394.256 53.0909 391.021 53.6591 387.233 53.6591C383.475 53.6591 380.203 53.0833 377.415 51.9318C374.642 50.7803 372.475 49.0758 370.915 46.8182C369.369 44.5455 368.559 41.7348 368.483 38.3864H378.006C378.112 39.947 378.559 41.25 379.347 42.2955C380.15 43.3258 381.218 44.1061 382.551 44.6364C383.9 45.1515 385.422 45.4091 387.119 45.4091C388.786 45.4091 390.233 45.1667 391.46 44.6818C392.703 44.197 393.665 43.5227 394.347 42.6591C395.028 41.7955 395.369 40.803 395.369 39.6818C395.369 38.6364 395.059 37.7576 394.438 37.0455C393.831 36.3333 392.938 35.7273 391.756 35.2273C390.589 34.7273 389.157 34.2727 387.46 33.8636L382.392 32.5909C378.468 31.6364 375.369 30.1439 373.097 28.1136C370.824 26.0833 369.695 23.3485 369.71 19.9091C369.695 17.0909 370.445 14.6288 371.96 12.5227C373.491 10.4167 375.589 8.77273 378.256 7.59091C380.922 6.40909 383.953 5.81818 387.347 5.81818C390.801 5.81818 393.816 6.40909 396.392 7.59091C398.983 8.77273 400.998 10.4167 402.438 12.5227C403.877 14.6288 404.619 17.0682 404.665 19.8409H395.233ZM421.761 6.45454V53H411.92V6.45454H421.761ZM468.79 6.45454V53H460.29L440.04 23.7045H439.699V53H429.858V6.45454H438.494L458.585 35.7273H458.994V6.45454H468.79ZM476.92 53V6.45454H508.284V14.5682H486.761V25.6591H506.67V33.7727H486.761V44.8864H508.375V53H476.92ZM541.358 19.8409C541.176 18.0076 540.396 16.5833 539.017 15.5682C537.638 14.553 535.767 14.0455 533.403 14.0455C531.797 14.0455 530.441 14.2727 529.335 14.7273C528.229 15.1667 527.381 15.7803 526.79 16.5682C526.214 17.3561 525.926 18.25 525.926 19.25C525.896 20.0833 526.07 20.8106 526.449 21.4318C526.843 22.053 527.381 22.5909 528.062 23.0455C528.744 23.4848 529.532 23.8712 530.426 24.2045C531.32 24.5227 532.275 24.7955 533.29 25.0227L537.472 26.0227C539.502 26.4773 541.366 27.0833 543.062 27.8409C544.759 28.5985 546.229 29.5303 547.472 30.6364C548.714 31.7424 549.676 33.0455 550.358 34.5455C551.055 36.0455 551.411 37.7652 551.426 39.7045C551.411 42.553 550.684 45.0227 549.244 47.1136C547.82 49.1894 545.759 50.803 543.062 51.9545C540.381 53.0909 537.146 53.6591 533.358 53.6591C529.6 53.6591 526.328 53.0833 523.54 51.9318C520.767 50.7803 518.6 49.0758 517.04 46.8182C515.494 44.5455 514.684 41.7348 514.608 38.3864H524.131C524.237 39.947 524.684 41.25 525.472 42.2955C526.275 43.3258 527.343 44.1061 528.676 44.6364C530.025 45.1515 531.547 45.4091 533.244 45.4091C534.911 45.4091 536.358 45.1667 537.585 44.6818C538.828 44.197 539.79 43.5227 540.472 42.6591C541.153 41.7955 541.494 40.803 541.494 39.6818C541.494 38.6364 541.184 37.7576 540.562 37.0455C539.956 36.3333 539.063 35.7273 537.881 35.2273C536.714 34.7273 535.282 34.2727 533.585 33.8636L528.517 32.5909C524.593 31.6364 521.494 30.1439 519.222 28.1136C516.949 26.0833 515.82 23.3485 515.835 19.9091C515.82 17.0909 516.57 14.6288 518.085 12.5227C519.616 10.4167 521.714 8.77273 524.381 7.59091C527.047 6.40909 530.078 5.81818 533.472 5.81818C536.926 5.81818 539.941 6.40909 542.517 7.59091C545.108 8.77273 547.123 10.4167 548.562 12.5227C550.002 14.6288 550.744 17.0682 550.79 19.8409H541.358ZM583.295 19.8409C583.114 18.0076 582.333 16.5833 580.955 15.5682C579.576 14.553 577.705 14.0455 575.341 14.0455C573.735 14.0455 572.379 14.2727 571.273 14.7273C570.167 15.1667 569.318 15.7803 568.727 16.5682C568.152 17.3561 567.864 18.25 567.864 19.25C567.833 20.0833 568.008 20.8106 568.386 21.4318C568.78 22.053 569.318 22.5909 570 23.0455C570.682 23.4848 571.47 23.8712 572.364 24.2045C573.258 24.5227 574.212 24.7955 575.227 25.0227L579.409 26.0227C581.439 26.4773 583.303 27.0833 585 27.8409C586.697 28.5985 588.167 29.5303 589.409 30.6364C590.652 31.7424 591.614 33.0455 592.295 34.5455C592.992 36.0455 593.348 37.7652 593.364 39.7045C593.348 42.553 592.621 45.0227 591.182 47.1136C589.758 49.1894 587.697 50.803 585 51.9545C582.318 53.0909 579.083 53.6591 575.295 53.6591C571.538 53.6591 568.265 53.0833 565.477 51.9318C562.705 50.7803 560.538 49.0758 558.977 46.8182C557.432 44.5455 556.621 41.7348 556.545 38.3864H566.068C566.174 39.947 566.621 41.25 567.409 42.2955C568.212 43.3258 569.28 44.1061 570.614 44.6364C571.962 45.1515 573.485 45.4091 575.182 45.4091C576.848 45.4091 578.295 45.1667 579.523 44.6818C580.765 44.197 581.727 43.5227 582.409 42.6591C583.091 41.7955 583.432 40.803 583.432 39.6818C583.432 38.6364 583.121 37.7576 582.5 37.0455C581.894 36.3333 581 35.7273 579.818 35.2273C578.652 34.7273 577.22 34.2727 575.523 33.8636L570.455 32.5909C566.53 31.6364 563.432 30.1439 561.159 28.1136C558.886 26.0833 557.758 23.3485 557.773 19.9091C557.758 17.0909 558.508 14.6288 560.023 12.5227C561.553 10.4167 563.652 8.77273 566.318 7.59091C568.985 6.40909 572.015 5.81818 575.409 5.81818C578.864 5.81818 581.879 6.40909 584.455 7.59091C587.045 8.77273 589.061 10.4167 590.5 12.5227C591.939 14.6288 592.682 17.0682 592.727 19.8409H583.295ZM622.932 39.0455V38.2727C622.947 35.6212 623.182 33.5076 623.636 31.9318C624.106 30.3561 624.788 29.0833 625.682 28.1136C626.576 27.1439 627.652 26.2652 628.909 25.4773C629.848 24.8712 630.689 24.2424 631.432 23.5909C632.174 22.9394 632.765 22.2197 633.205 21.4318C633.644 20.6288 633.864 19.7348 633.864 18.75C633.864 17.7045 633.614 16.7879 633.114 16C632.614 15.2121 631.939 14.6061 631.091 14.1818C630.258 13.7576 629.333 13.5455 628.318 13.5455C627.333 13.5455 626.402 13.7651 625.523 14.2045C624.644 14.6288 623.924 15.2652 623.364 16.1136C622.803 16.947 622.5 17.9848 622.455 19.2273H613.182C613.258 16.197 613.985 13.697 615.364 11.7273C616.742 9.74242 618.568 8.26515 620.841 7.29545C623.114 6.3106 625.621 5.81818 628.364 5.81818C631.379 5.81818 634.045 6.31818 636.364 7.31818C638.682 8.30303 640.5 9.73485 641.818 11.6136C643.136 13.4924 643.795 15.7576 643.795 18.4091C643.795 20.1818 643.5 21.7576 642.909 23.1364C642.333 24.5 641.523 25.7121 640.477 26.7727C639.432 27.8182 638.197 28.7652 636.773 29.6136C635.576 30.3258 634.591 31.0682 633.818 31.8409C633.061 32.6136 632.492 33.5076 632.114 34.5227C631.75 35.5379 631.561 36.7879 631.545 38.2727V39.0455H622.932ZM627.432 53.5909C625.917 53.5909 624.621 53.0606 623.545 52C622.485 50.9242 621.962 49.6364 621.977 48.1364C621.962 46.6515 622.485 45.3788 623.545 44.3182C624.621 43.2576 625.917 42.7273 627.432 42.7273C628.871 42.7273 630.136 43.2576 631.227 44.3182C632.318 45.3788 632.871 46.6515 632.886 48.1364C632.871 49.1364 632.606 50.053 632.091 50.8864C631.591 51.7045 630.932 52.3636 630.114 52.8636C629.295 53.3485 628.402 53.5909 627.432 53.5909Z"/>
</mask>
<path d="M13.5227 53L0.204545 6.45454H10.9545L18.6591 38.7955H19.0455L27.5455 6.45454H36.75L45.2273 38.8636H45.6364L53.3409 6.45454H64.0909L50.7727 53H41.1818L32.3182 22.5682H31.9545L23.1136 53H13.5227ZM67.5852 14.5682V6.45454H105.812V14.5682H91.5625V53H81.8352V14.5682H67.5852ZM112.108 53V6.45454H142.926V14.5682H121.949V25.6591H140.881V33.7727H121.949V53H112.108ZM174.199 6.45454V53H164.358V6.45454H174.199ZM207.545 19.8409C207.364 18.0076 206.583 16.5833 205.205 15.5682C203.826 14.553 201.955 14.0455 199.591 14.0455C197.985 14.0455 196.629 14.2727 195.523 14.7273C194.417 15.1667 193.568 15.7803 192.977 16.5682C192.402 17.3561 192.114 18.25 192.114 19.25C192.083 20.0833 192.258 20.8106 192.636 21.4318C193.03 22.053 193.568 22.5909 194.25 23.0455C194.932 23.4848 195.72 23.8712 196.614 24.2045C197.508 24.5227 198.462 24.7955 199.477 25.0227L203.659 26.0227C205.689 26.4773 207.553 27.0833 209.25 27.8409C210.947 28.5985 212.417 29.5303 213.659 30.6364C214.902 31.7424 215.864 33.0455 216.545 34.5455C217.242 36.0455 217.598 37.7652 217.614 39.7045C217.598 42.553 216.871 45.0227 215.432 47.1136C214.008 49.1894 211.947 50.803 209.25 51.9545C206.568 53.0909 203.333 53.6591 199.545 53.6591C195.788 53.6591 192.515 53.0833 189.727 51.9318C186.955 50.7803 184.788 49.0758 183.227 46.8182C181.682 44.5455 180.871 41.7348 180.795 38.3864H190.318C190.424 39.947 190.871 41.25 191.659 42.2955C192.462 43.3258 193.53 44.1061 194.864 44.6364C196.212 45.1515 197.735 45.4091 199.432 45.4091C201.098 45.4091 202.545 45.1667 203.773 44.6818C205.015 44.197 205.977 43.5227 206.659 42.6591C207.341 41.7955 207.682 40.803 207.682 39.6818C207.682 38.6364 207.371 37.7576 206.75 37.0455C206.144 36.3333 205.25 35.7273 204.068 35.2273C202.902 34.7273 201.47 34.2727 199.773 33.8636L194.705 32.5909C190.78 31.6364 187.682 30.1439 185.409 28.1136C183.136 26.0833 182.008 23.3485 182.023 19.9091C182.008 17.0909 182.758 14.6288 184.273 12.5227C185.803 10.4167 187.902 8.77273 190.568 7.59091C193.235 6.40909 196.265 5.81818 199.659 5.81818C203.114 5.81818 206.129 6.40909 208.705 7.59091C211.295 8.77273 213.311 10.4167 214.75 12.5227C216.189 14.6288 216.932 17.0682 216.977 19.8409H207.545Z" fill="white"/>
<path d="M254.409 58.8182V0.63636H258.136V58.8182H254.409ZM264.295 19.8409C264.114 18.0076 263.333 16.5833 261.955 15.5682C260.576 14.553 258.705 14.0455 256.341 14.0455C254.735 14.0455 253.379 14.2727 252.273 14.7273C251.167 15.1667 250.318 15.7803 249.727 16.5682C249.152 17.3561 248.864 18.25 248.864 19.25C248.833 20.0833 249.008 20.8106 249.386 21.4318C249.78 22.053 250.318 22.5909 251 23.0455C251.682 23.4848 252.47 23.8712 253.364 24.2045C254.258 24.5227 255.212 24.7955 256.227 25.0227L260.409 26.0227C262.439 26.4773 264.303 27.0833 266 27.8409C267.697 28.5985 269.167 29.5303 270.409 30.6364C271.652 31.7424 272.614 33.0455 273.295 34.5455C273.992 36.0455 274.348 37.7652 274.364 39.7045C274.348 42.553 273.621 45.0227 272.182 47.1136C270.758 49.1894 268.697 50.803 266 51.9545C263.318 53.0909 260.083 53.6591 256.295 53.6591C252.538 53.6591 249.265 53.0833 246.477 51.9318C243.705 50.7803 241.538 49.0758 239.977 46.8182C238.432 44.5455 237.621 41.7348 237.545 38.3864H247.068C247.174 39.947 247.621 41.25 248.409 42.2955C249.212 43.3258 250.28 44.1061 251.614 44.6364C252.962 45.1515 254.485 45.4091 256.182 45.4091C257.848 45.4091 259.295 45.1667 260.523 44.6818C261.765 44.197 262.727 43.5227 263.409 42.6591C264.091 41.7955 264.432 40.803 264.432 39.6818C264.432 38.6364 264.121 37.7576 263.5 37.0455C262.894 36.3333 262 35.7273 260.818 35.2273C259.652 34.7273 258.22 34.2727 256.523 33.8636L251.455 32.5909C247.53 31.6364 244.432 30.1439 242.159 28.1136C239.886 26.0833 238.758 23.3485 238.773 19.9091C238.758 17.0909 239.508 14.6288 241.023 12.5227C242.553 10.4167 244.652 8.77273 247.318 7.59091C249.985 6.40909 253.015 5.81818 256.409 5.81818C259.864 5.81818 262.879 6.40909 265.455 7.59091C268.045 8.77273 270.061 10.4167 271.5 12.5227C272.939 14.6288 273.682 17.0682 273.727 19.8409H264.295ZM280.983 53V6.45454H299.619C303.044 6.45454 305.9 6.96212 308.188 7.97727C310.475 8.99242 312.195 10.4015 313.347 12.2045C314.498 13.9924 315.074 16.053 315.074 18.3864C315.074 20.2045 314.71 21.803 313.983 23.1818C313.256 24.5455 312.256 25.6667 310.983 26.5455C309.725 27.4091 308.286 28.0227 306.665 28.3864V28.8409C308.438 28.9167 310.097 29.4167 311.642 30.3409C313.203 31.2652 314.468 32.5606 315.438 34.2273C316.407 35.8788 316.892 37.8485 316.892 40.1364C316.892 42.6061 316.278 44.8106 315.051 46.75C313.839 48.6742 312.044 50.197 309.665 51.3182C307.286 52.4394 304.354 53 300.869 53H280.983ZM290.824 44.9545H298.847C301.589 44.9545 303.589 44.4318 304.847 43.3864C306.104 42.3258 306.733 40.9167 306.733 39.1591C306.733 37.8712 306.422 36.7348 305.801 35.75C305.18 34.7652 304.294 33.9924 303.142 33.4318C302.006 32.8712 300.65 32.5909 299.074 32.5909H290.824V44.9545ZM290.824 25.9318H298.119C299.468 25.9318 300.665 25.697 301.71 25.2273C302.771 24.7424 303.604 24.0606 304.21 23.1818C304.831 22.303 305.142 21.25 305.142 20.0227C305.142 18.3409 304.544 16.9848 303.347 15.9545C302.165 14.9242 300.483 14.4091 298.301 14.4091H290.824V25.9318ZM352.045 6.45454H361.886V36.6818C361.886 40.0758 361.076 43.0455 359.455 45.5909C357.848 48.1364 355.598 50.1212 352.705 51.5455C349.811 52.9545 346.439 53.6591 342.591 53.6591C338.727 53.6591 335.348 52.9545 332.455 51.5455C329.561 50.1212 327.311 48.1364 325.705 45.5909C324.098 43.0455 323.295 40.0758 323.295 36.6818V6.45454H333.136V35.8409C333.136 37.6136 333.523 39.1894 334.295 40.5682C335.083 41.947 336.189 43.0303 337.614 43.8182C339.038 44.6061 340.697 45 342.591 45C344.5 45 346.159 44.6061 347.568 43.8182C348.992 43.0303 350.091 41.947 350.864 40.5682C351.652 39.1894 352.045 37.6136 352.045 35.8409V6.45454ZM395.233 19.8409C395.051 18.0076 394.271 16.5833 392.892 15.5682C391.513 14.553 389.642 14.0455 387.278 14.0455C385.672 14.0455 384.316 14.2727 383.21 14.7273C382.104 15.1667 381.256 15.7803 380.665 16.5682C380.089 17.3561 379.801 18.25 379.801 19.25C379.771 20.0833 379.945 20.8106 380.324 21.4318C380.718 22.053 381.256 22.5909 381.938 23.0455C382.619 23.4848 383.407 23.8712 384.301 24.2045C385.195 24.5227 386.15 24.7955 387.165 25.0227L391.347 26.0227C393.377 26.4773 395.241 27.0833 396.938 27.8409C398.634 28.5985 400.104 29.5303 401.347 30.6364C402.589 31.7424 403.551 33.0455 404.233 34.5455C404.93 36.0455 405.286 37.7652 405.301 39.7045C405.286 42.553 404.559 45.0227 403.119 47.1136C401.695 49.1894 399.634 50.803 396.938 51.9545C394.256 53.0909 391.021 53.6591 387.233 53.6591C383.475 53.6591 380.203 53.0833 377.415 51.9318C374.642 50.7803 372.475 49.0758 370.915 46.8182C369.369 44.5455 368.559 41.7348 368.483 38.3864H378.006C378.112 39.947 378.559 41.25 379.347 42.2955C380.15 43.3258 381.218 44.1061 382.551 44.6364C383.9 45.1515 385.422 45.4091 387.119 45.4091C388.786 45.4091 390.233 45.1667 391.46 44.6818C392.703 44.197 393.665 43.5227 394.347 42.6591C395.028 41.7955 395.369 40.803 395.369 39.6818C395.369 38.6364 395.059 37.7576 394.438 37.0455C393.831 36.3333 392.938 35.7273 391.756 35.2273C390.589 34.7273 389.157 34.2727 387.46 33.8636L382.392 32.5909C378.468 31.6364 375.369 30.1439 373.097 28.1136C370.824 26.0833 369.695 23.3485 369.71 19.9091C369.695 17.0909 370.445 14.6288 371.96 12.5227C373.491 10.4167 375.589 8.77273 378.256 7.59091C380.922 6.40909 383.953 5.81818 387.347 5.81818C390.801 5.81818 393.816 6.40909 396.392 7.59091C398.983 8.77273 400.998 10.4167 402.438 12.5227C403.877 14.6288 404.619 17.0682 404.665 19.8409H395.233ZM421.761 6.45454V53H411.92V6.45454H421.761ZM468.79 6.45454V53H460.29L440.04 23.7045H439.699V53H429.858V6.45454H438.494L458.585 35.7273H458.994V6.45454H468.79ZM476.92 53V6.45454H508.284V14.5682H486.761V25.6591H506.67V33.7727H486.761V44.8864H508.375V53H476.92ZM541.358 19.8409C541.176 18.0076 540.396 16.5833 539.017 15.5682C537.638 14.553 535.767 14.0455 533.403 14.0455C531.797 14.0455 530.441 14.2727 529.335 14.7273C528.229 15.1667 527.381 15.7803 526.79 16.5682C526.214 17.3561 525.926 18.25 525.926 19.25C525.896 20.0833 526.07 20.8106 526.449 21.4318C526.843 22.053 527.381 22.5909 528.062 23.0455C528.744 23.4848 529.532 23.8712 530.426 24.2045C531.32 24.5227 532.275 24.7955 533.29 25.0227L537.472 26.0227C539.502 26.4773 541.366 27.0833 543.062 27.8409C544.759 28.5985 546.229 29.5303 547.472 30.6364C548.714 31.7424 549.676 33.0455 550.358 34.5455C551.055 36.0455 551.411 37.7652 551.426 39.7045C551.411 42.553 550.684 45.0227 549.244 47.1136C547.82 49.1894 545.759 50.803 543.062 51.9545C540.381 53.0909 537.146 53.6591 533.358 53.6591C529.6 53.6591 526.328 53.0833 523.54 51.9318C520.767 50.7803 518.6 49.0758 517.04 46.8182C515.494 44.5455 514.684 41.7348 514.608 38.3864H524.131C524.237 39.947 524.684 41.25 525.472 42.2955C526.275 43.3258 527.343 44.1061 528.676 44.6364C530.025 45.1515 531.547 45.4091 533.244 45.4091C534.911 45.4091 536.358 45.1667 537.585 44.6818C538.828 44.197 539.79 43.5227 540.472 42.6591C541.153 41.7955 541.494 40.803 541.494 39.6818C541.494 38.6364 541.184 37.7576 540.562 37.0455C539.956 36.3333 539.063 35.7273 537.881 35.2273C536.714 34.7273 535.282 34.2727 533.585 33.8636L528.517 32.5909C524.593 31.6364 521.494 30.1439 519.222 28.1136C516.949 26.0833 515.82 23.3485 515.835 19.9091C515.82 17.0909 516.57 14.6288 518.085 12.5227C519.616 10.4167 521.714 8.77273 524.381 7.59091C527.047 6.40909 530.078 5.81818 533.472 5.81818C536.926 5.81818 539.941 6.40909 542.517 7.59091C545.108 8.77273 547.123 10.4167 548.562 12.5227C550.002 14.6288 550.744 17.0682 550.79 19.8409H541.358ZM583.295 19.8409C583.114 18.0076 582.333 16.5833 580.955 15.5682C579.576 14.553 577.705 14.0455 575.341 14.0455C573.735 14.0455 572.379 14.2727 571.273 14.7273C570.167 15.1667 569.318 15.7803 568.727 16.5682C568.152 17.3561 567.864 18.25 567.864 19.25C567.833 20.0833 568.008 20.8106 568.386 21.4318C568.78 22.053 569.318 22.5909 570 23.0455C570.682 23.4848 571.47 23.8712 572.364 24.2045C573.258 24.5227 574.212 24.7955 575.227 25.0227L579.409 26.0227C581.439 26.4773 583.303 27.0833 585 27.8409C586.697 28.5985 588.167 29.5303 589.409 30.6364C590.652 31.7424 591.614 33.0455 592.295 34.5455C592.992 36.0455 593.348 37.7652 593.364 39.7045C593.348 42.553 592.621 45.0227 591.182 47.1136C589.758 49.1894 587.697 50.803 585 51.9545C582.318 53.0909 579.083 53.6591 575.295 53.6591C571.538 53.6591 568.265 53.0833 565.477 51.9318C562.705 50.7803 560.538 49.0758 558.977 46.8182C557.432 44.5455 556.621 41.7348 556.545 38.3864H566.068C566.174 39.947 566.621 41.25 567.409 42.2955C568.212 43.3258 569.28 44.1061 570.614 44.6364C571.962 45.1515 573.485 45.4091 575.182 45.4091C576.848 45.4091 578.295 45.1667 579.523 44.6818C580.765 44.197 581.727 43.5227 582.409 42.6591C583.091 41.7955 583.432 40.803 583.432 39.6818C583.432 38.6364 583.121 37.7576 582.5 37.0455C581.894 36.3333 581 35.7273 579.818 35.2273C578.652 34.7273 577.22 34.2727 575.523 33.8636L570.455 32.5909C566.53 31.6364 563.432 30.1439 561.159 28.1136C558.886 26.0833 557.758 23.3485 557.773 19.9091C557.758 17.0909 558.508 14.6288 560.023 12.5227C561.553 10.4167 563.652 8.77273 566.318 7.59091C568.985 6.40909 572.015 5.81818 575.409 5.81818C578.864 5.81818 581.879 6.40909 584.455 7.59091C587.045 8.77273 589.061 10.4167 590.5 12.5227C591.939 14.6288 592.682 17.0682 592.727 19.8409H583.295ZM622.932 39.0455V38.2727C622.947 35.6212 623.182 33.5076 623.636 31.9318C624.106 30.3561 624.788 29.0833 625.682 28.1136C626.576 27.1439 627.652 26.2652 628.909 25.4773C629.848 24.8712 630.689 24.2424 631.432 23.5909C632.174 22.9394 632.765 22.2197 633.205 21.4318C633.644 20.6288 633.864 19.7348 633.864 18.75C633.864 17.7045 633.614 16.7879 633.114 16C632.614 15.2121 631.939 14.6061 631.091 14.1818C630.258 13.7576 629.333 13.5455 628.318 13.5455C627.333 13.5455 626.402 13.7651 625.523 14.2045C624.644 14.6288 623.924 15.2652 623.364 16.1136C622.803 16.947 622.5 17.9848 622.455 19.2273H613.182C613.258 16.197 613.985 13.697 615.364 11.7273C616.742 9.74242 618.568 8.26515 620.841 7.29545C623.114 6.3106 625.621 5.81818 628.364 5.81818C631.379 5.81818 634.045 6.31818 636.364 7.31818C638.682 8.30303 640.5 9.73485 641.818 11.6136C643.136 13.4924 643.795 15.7576 643.795 18.4091C643.795 20.1818 643.5 21.7576 642.909 23.1364C642.333 24.5 641.523 25.7121 640.477 26.7727C639.432 27.8182 638.197 28.7652 636.773 29.6136C635.576 30.3258 634.591 31.0682 633.818 31.8409C633.061 32.6136 632.492 33.5076 632.114 34.5227C631.75 35.5379 631.561 36.7879 631.545 38.2727V39.0455H622.932ZM627.432 53.5909C625.917 53.5909 624.621 53.0606 623.545 52C622.485 50.9242 621.962 49.6364 621.977 48.1364C621.962 46.6515 622.485 45.3788 623.545 44.3182C624.621 43.2576 625.917 42.7273 627.432 42.7273C628.871 42.7273 630.136 43.2576 631.227 44.3182C632.318 45.3788 632.871 46.6515 632.886 48.1364C632.871 49.1364 632.606 50.053 632.091 50.8864C631.591 51.7045 630.932 52.3636 630.114 52.8636C629.295 53.3485 628.402 53.5909 627.432 53.5909Z" fill="#FCC02F"/>
<path d="M13.5227 53L12.5613 53.2751L12.7687 54H13.5227V53ZM0.204545 6.45454V5.45454H-1.12172L-0.756872 6.72964L0.204545 6.45454ZM10.9545 6.45454L11.9273 6.2228L11.7443 5.45454H10.9545V6.45454ZM18.6591 38.7955L17.6863 39.0272L17.8693 39.7955H18.6591V38.7955ZM19.0455 38.7955V39.7955H19.8166L20.0126 39.0496L19.0455 38.7955ZM27.5455 6.45454V5.45454H26.7743L26.5783 6.20035L27.5455 6.45454ZM36.75 6.45454L37.7175 6.20149L37.5221 5.45454H36.75V6.45454ZM45.2273 38.8636L44.2598 39.1167L44.4552 39.8636H45.2273V38.8636ZM45.6364 38.8636V39.8636H46.4265L46.6092 39.0949L45.6364 38.8636ZM53.3409 6.45454V5.45454H52.5508L52.368 6.22326L53.3409 6.45454ZM64.0909 6.45454L65.0523 6.72964L65.4172 5.45454H64.0909V6.45454ZM50.7727 53V54H51.5267L51.7341 53.2751L50.7727 53ZM41.1818 53L40.2217 53.2796L40.4315 54H41.1818V53ZM32.3182 22.5682L33.2783 22.2885L33.0685 21.5682H32.3182V22.5682ZM31.9545 22.5682V21.5682H31.2037L30.9943 22.2892L31.9545 22.5682ZM23.1136 53V54H23.8645L24.0739 53.279L23.1136 53ZM14.4841 52.7249L1.16596 6.17945L-0.756872 6.72964L12.5613 53.2751L14.4841 52.7249ZM0.204545 7.45454H10.9545V5.45454H0.204545V7.45454ZM9.98177 6.68629L17.6863 39.0272L19.6319 38.5637L11.9273 6.2228L9.98177 6.68629ZM18.6591 39.7955H19.0455V37.7955H18.6591V39.7955ZM20.0126 39.0496L28.5126 6.70874L26.5783 6.20035L18.0783 38.5413L20.0126 39.0496ZM27.5455 7.45454H36.75V5.45454H27.5455V7.45454ZM35.7825 6.7076L44.2598 39.1167L46.1947 38.6106L37.7175 6.20149L35.7825 6.7076ZM45.2273 39.8636H45.6364V37.8636H45.2273V39.8636ZM46.6092 39.0949L54.3138 6.68583L52.368 6.22326L44.6635 38.6324L46.6092 39.0949ZM53.3409 7.45454H64.0909V5.45454H53.3409V7.45454ZM63.1295 6.17945L49.8113 52.7249L51.7341 53.2751L65.0523 6.72964L63.1295 6.17945ZM50.7727 52H41.1818V54H50.7727V52ZM42.1419 52.7204L33.2783 22.2885L31.3581 22.8478L40.2217 53.2796L42.1419 52.7204ZM32.3182 21.5682H31.9545V23.5682H32.3182V21.5682ZM30.9943 22.2892L22.1533 52.721L24.0739 53.279L32.9148 22.8472L30.9943 22.2892ZM23.1136 52H13.5227V54H23.1136V52ZM67.5852 14.5682H66.5852V15.5682H67.5852V14.5682ZM67.5852 6.45454V5.45454H66.5852V6.45454H67.5852ZM105.812 6.45454H106.812V5.45454H105.812V6.45454ZM105.812 14.5682V15.5682H106.812V14.5682H105.812ZM91.5625 14.5682V13.5682H90.5625V14.5682H91.5625ZM91.5625 53V54H92.5625V53H91.5625ZM81.8352 53H80.8352V54H81.8352V53ZM81.8352 14.5682H82.8352V13.5682H81.8352V14.5682ZM68.5852 14.5682V6.45454H66.5852V14.5682H68.5852ZM67.5852 7.45454H105.812V5.45454H67.5852V7.45454ZM104.812 6.45454V14.5682H106.812V6.45454H104.812ZM105.812 13.5682H91.5625V15.5682H105.812V13.5682ZM90.5625 14.5682V53H92.5625V14.5682H90.5625ZM91.5625 52H81.8352V54H91.5625V52ZM82.8352 53V14.5682H80.8352V53H82.8352ZM81.8352 13.5682H67.5852V15.5682H81.8352V13.5682ZM112.108 53H111.108V54H112.108V53ZM112.108 6.45454V5.45454H111.108V6.45454H112.108ZM142.926 6.45454H143.926V5.45454H142.926V6.45454ZM142.926 14.5682V15.5682H143.926V14.5682H142.926ZM121.949 14.5682V13.5682H120.949V14.5682H121.949ZM121.949 25.6591H120.949V26.6591H121.949V25.6591ZM140.881 25.6591H141.881V24.6591H140.881V25.6591ZM140.881 33.7727V34.7727H141.881V33.7727H140.881ZM121.949 33.7727V32.7727H120.949V33.7727H121.949ZM121.949 53V54H122.949V53H121.949ZM113.108 53V6.45454H111.108V53H113.108ZM112.108 7.45454H142.926V5.45454H112.108V7.45454ZM141.926 6.45454V14.5682H143.926V6.45454H141.926ZM142.926 13.5682H121.949V15.5682H142.926V13.5682ZM120.949 14.5682V25.6591H122.949V14.5682H120.949ZM121.949 26.6591H140.881V24.6591H121.949V26.6591ZM139.881 25.6591V33.7727H141.881V25.6591H139.881ZM140.881 32.7727H121.949V34.7727H140.881V32.7727ZM120.949 33.7727V53H122.949V33.7727H120.949ZM121.949 52H112.108V54H121.949V52ZM174.199 6.45454H175.199V5.45454H174.199V6.45454ZM174.199 53V54H175.199V53H174.199ZM164.358 53H163.358V54H164.358V53ZM164.358 6.45454V5.45454H163.358V6.45454H164.358ZM173.199 6.45454V53H175.199V6.45454H173.199ZM174.199 52H164.358V54H174.199V52ZM165.358 53V6.45454H163.358V53H165.358ZM164.358 7.45454H174.199V5.45454H164.358V7.45454ZM207.545 19.8409L206.55 19.9396L206.64 20.8409H207.545V19.8409ZM195.523 14.7273L195.892 15.6567L195.903 15.6522L195.523 14.7273ZM192.977 16.5682L192.177 15.9681L192.17 15.9782L192.977 16.5682ZM192.114 19.25L193.113 19.2863L193.114 19.2682V19.25H192.114ZM192.636 21.4318L191.783 21.9524L191.787 21.9599L191.792 21.9674L192.636 21.4318ZM194.25 23.0455L193.695 23.8775L193.702 23.8818L193.708 23.886L194.25 23.0455ZM196.614 24.2045L196.264 25.1415L196.271 25.1441L196.278 25.1466L196.614 24.2045ZM199.477 25.0227L199.71 24.0501L199.703 24.0485L199.696 24.0469L199.477 25.0227ZM203.659 26.0227L203.427 26.9953L203.434 26.997L203.441 26.9986L203.659 26.0227ZM209.25 27.8409L208.842 28.754L209.25 27.8409ZM213.659 30.6364L214.324 29.8895L213.659 30.6364ZM216.545 34.5455L215.635 34.9593L215.639 34.9668L216.545 34.5455ZM217.614 39.7045L218.614 39.7099L218.614 39.6967L217.614 39.7045ZM215.432 47.1136L214.608 46.5466L214.607 46.5479L215.432 47.1136ZM209.25 51.9545L209.64 52.8753L209.643 52.8742L209.25 51.9545ZM189.727 51.9318L189.344 52.8553L189.346 52.8561L189.727 51.9318ZM183.227 46.8182L182.4 47.3805L182.405 47.3868L183.227 46.8182ZM180.795 38.3864V37.3864H179.773L179.796 38.409L180.795 38.3864ZM190.318 38.3864L191.316 38.3186L191.253 37.3864H190.318V38.3864ZM191.659 42.2955L190.86 42.8973L190.865 42.9038L190.87 42.9102L191.659 42.2955ZM194.864 44.6364L194.494 45.5657L194.507 45.5705L194.864 44.6364ZM203.773 44.6818L203.409 43.7502L203.405 43.7518L203.773 44.6818ZM206.659 42.6591L207.444 43.2787L206.659 42.6591ZM206.75 37.0455L205.988 37.6936L205.996 37.7028L206.75 37.0455ZM204.068 35.2273L203.674 36.1464L203.679 36.1482L204.068 35.2273ZM199.773 33.8636L199.529 34.8336L199.538 34.8358L199.773 33.8636ZM194.705 32.5909L194.948 31.621L194.941 31.6192L194.705 32.5909ZM185.409 28.1136L184.743 28.8594L185.409 28.1136ZM182.023 19.9091L183.023 19.9135L183.023 19.9037L182.023 19.9091ZM184.273 12.5227L183.464 11.9349L183.461 11.9387L184.273 12.5227ZM208.705 7.59091L208.288 8.49981L208.29 8.50073L208.705 7.59091ZM214.75 12.5227L213.924 13.087V13.087L214.75 12.5227ZM216.977 19.8409V20.8409H217.994L217.977 19.8245L216.977 19.8409ZM208.541 19.7422C208.333 17.6511 207.423 15.9598 205.797 14.7629L204.612 16.3735C205.744 17.2068 206.394 18.364 206.55 19.9396L208.541 19.7422ZM205.797 14.7629C204.192 13.5811 202.088 13.0455 199.591 13.0455V15.0455C201.821 15.0455 203.459 15.5249 204.612 16.3735L205.797 14.7629ZM199.591 13.0455C197.897 13.0455 196.403 13.2844 195.143 13.8023L195.903 15.6522C196.855 15.2611 198.073 15.0455 199.591 15.0455V13.0455ZM195.154 13.7979C193.912 14.2911 192.9 15.0049 192.177 15.9682L193.777 17.1682C194.237 16.5557 194.921 16.0422 195.892 15.6566L195.154 13.7979ZM192.17 15.9782C191.466 16.9418 191.114 18.0435 191.114 19.25H193.114C193.114 18.4565 193.337 17.7703 193.785 17.1582L192.17 15.9782ZM191.114 19.2137C191.078 20.2135 191.287 21.1404 191.783 21.9524L193.49 20.9112C193.228 20.4809 193.089 19.9532 193.113 19.2863L191.114 19.2137ZM191.792 21.9674C192.269 22.7194 192.911 23.3543 193.695 23.8775L194.805 22.2134C194.226 21.8275 193.792 21.3867 193.481 20.8963L191.792 21.9674ZM193.708 23.886C194.46 24.3705 195.314 24.7873 196.264 25.1415L196.963 23.2676C196.125 22.9551 195.404 22.5992 194.792 22.2049L193.708 23.886ZM196.278 25.1466C197.214 25.4797 198.208 25.7633 199.259 25.9986L199.696 24.0469C198.716 23.8276 197.801 23.5658 196.949 23.2624L196.278 25.1466ZM199.245 25.9953L203.427 26.9953L203.892 25.0501L199.71 24.0501L199.245 25.9953ZM203.441 26.9986C205.414 27.4403 207.213 28.0266 208.842 28.754L209.658 26.9278C207.893 26.14 205.965 25.5143 203.878 25.0469L203.441 26.9986ZM208.842 28.754C210.456 29.4746 211.837 30.353 212.994 31.3833L214.324 29.8895C212.996 28.7076 211.438 27.7224 209.658 26.9278L208.842 28.754ZM212.994 31.3833C214.133 32.3975 215.012 33.5874 215.635 34.9593L217.456 34.1316C216.716 32.5035 215.67 31.0873 214.324 29.8895L212.994 31.3833ZM215.639 34.9668C216.266 36.3167 216.599 37.8915 216.614 39.7124L218.614 39.6967C218.598 37.6388 218.219 35.7742 217.452 34.1241L215.639 34.9668ZM216.614 39.6992C216.599 42.3725 215.92 44.6408 214.608 46.5466L216.256 47.6807C217.822 45.4047 218.598 42.7336 218.614 39.7099L216.614 39.6992ZM214.607 46.5479C213.307 48.4427 211.409 49.9454 208.857 51.0349L209.643 52.8742C212.485 51.6607 214.708 49.9361 216.256 47.6794L214.607 46.5479ZM208.86 51.0338C206.333 52.1047 203.238 52.6591 199.545 52.6591V54.6591C203.429 54.6591 206.804 54.0771 209.64 52.8753L208.86 51.0338ZM199.545 52.6591C195.888 52.6591 192.75 52.0984 190.109 51.0076L189.346 52.8561C192.28 54.0682 195.688 54.6591 199.545 54.6591V52.6591ZM190.111 51.0083C187.498 49.9233 185.491 48.3344 184.05 46.2495L182.405 47.3868C184.085 49.8172 186.411 51.6373 189.344 52.8553L190.111 51.0083ZM184.054 46.2559C182.639 44.1744 181.868 41.5619 181.795 38.3637L179.796 38.409C179.875 41.9078 180.725 44.9165 182.4 47.3805L184.054 46.2559ZM180.795 39.3864H190.318V37.3864H180.795V39.3864ZM189.32 38.4542C189.437 40.1701 189.935 41.6689 190.86 42.8973L192.458 41.6936C191.808 40.8311 191.411 39.7239 191.316 38.3186L189.32 38.4542ZM190.87 42.9102C191.793 44.0943 193.012 44.9762 194.494 45.5656L195.233 43.7072C194.048 43.2359 193.131 42.5572 192.448 41.6807L190.87 42.9102ZM194.507 45.5705C195.987 46.1361 197.634 46.4091 199.432 46.4091V44.4091C197.836 44.4091 196.437 44.1669 195.221 43.7022L194.507 45.5705ZM199.432 46.4091C201.193 46.4091 202.77 46.1533 204.14 45.6119L203.405 43.7518C202.321 44.18 201.004 44.4091 199.432 44.4091V46.4091ZM204.136 45.6134C205.509 45.0776 206.631 44.3088 207.444 43.2787L205.874 42.0394C205.324 42.7366 204.521 43.3163 203.409 43.7502L204.136 45.6134ZM207.444 43.2787C208.268 42.235 208.682 41.0233 208.682 39.6818H206.682C206.682 40.5828 206.414 41.3559 205.874 42.0394L207.444 43.2787ZM208.682 39.6818C208.682 38.4223 208.301 37.3021 207.504 36.3881L205.996 37.7028C206.441 38.213 206.682 38.8505 206.682 39.6818H208.682ZM207.512 36.3973C206.774 35.5308 205.733 34.8456 204.458 34.3063L203.679 36.1482C204.767 36.6089 205.514 37.1359 205.988 37.6936L207.512 36.3973ZM204.462 34.3081C203.229 33.7795 201.74 33.3092 200.007 32.8915L199.538 34.8358C201.199 35.2362 202.574 35.675 203.674 36.1464L204.462 34.3081ZM200.016 32.8937L194.948 31.621L194.461 33.5608L199.529 34.8335L200.016 32.8937ZM194.941 31.6192C191.126 30.6914 188.192 29.2589 186.075 27.3679L184.743 28.8594C187.172 31.029 190.434 32.5814 194.468 33.5626L194.941 31.6192ZM186.075 27.3679C184.045 25.554 183.009 23.1075 183.023 19.9135L181.023 19.9047C181.007 23.5894 182.228 26.6127 184.743 28.8594L186.075 27.3679ZM183.023 19.9037C183.009 17.2777 183.704 15.0262 185.084 13.1067L183.461 11.9387C181.812 14.2314 181.007 16.9041 181.023 19.9145L183.023 19.9037ZM185.082 13.1106C186.496 11.1635 188.448 9.6244 190.973 8.50515L190.163 6.67667C187.355 7.92106 185.11 9.66981 183.464 11.9349L185.082 13.1106ZM190.973 8.50515C193.493 7.38838 196.382 6.81818 199.659 6.81818V4.81818C196.148 4.81818 192.976 5.4298 190.163 6.67667L190.973 8.50515ZM199.659 6.81818C203.001 6.81818 205.868 7.38968 208.288 8.4998L209.122 6.68201C206.39 5.4285 203.227 4.81818 199.659 4.81818V6.81818ZM208.29 8.50073C210.734 9.61596 212.599 11.1484 213.924 13.087L215.576 11.9585C214.022 9.68495 211.856 7.9295 209.12 6.68109L208.29 8.50073ZM213.924 13.087C215.244 15.0173 215.935 17.2625 215.977 19.8573L217.977 19.8245C217.929 16.8738 217.135 14.2402 215.576 11.9585L213.924 13.087ZM216.977 18.8409H207.545V20.8409H216.977V18.8409ZM254.409 58.8182H253.409V59.8182H254.409V58.8182ZM254.409 0.63636V-0.36364H253.409V0.63636H254.409ZM258.136 0.63636H259.136V-0.36364H258.136V0.63636ZM258.136 58.8182V59.8182H259.136V58.8182H258.136ZM264.295 19.8409L263.3 19.9396L263.39 20.8409H264.295V19.8409ZM252.273 14.7273L252.642 15.6567L252.653 15.6522L252.273 14.7273ZM249.727 16.5682L248.927 15.9681L248.92 15.9782L249.727 16.5682ZM248.864 19.25L249.863 19.2863L249.864 19.2682V19.25H248.864ZM249.386 21.4318L248.533 21.9524L248.537 21.9599L248.542 21.9674L249.386 21.4318ZM251 23.0455L250.445 23.8775L250.452 23.8818L250.458 23.886L251 23.0455ZM253.364 24.2045L253.014 25.1415L253.021 25.1441L253.028 25.1466L253.364 24.2045ZM256.227 25.0227L256.46 24.0501L256.453 24.0485L256.446 24.0469L256.227 25.0227ZM260.409 26.0227L260.177 26.9953L260.184 26.997L260.191 26.9986L260.409 26.0227ZM266 27.8409L265.592 28.754L266 27.8409ZM270.409 30.6364L271.074 29.8895L270.409 30.6364ZM273.295 34.5455L272.385 34.9593L272.389 34.9668L273.295 34.5455ZM274.364 39.7045L275.364 39.7099L275.364 39.6967L274.364 39.7045ZM272.182 47.1136L271.358 46.5466L271.357 46.5479L272.182 47.1136ZM266 51.9545L266.39 52.8753L266.393 52.8742L266 51.9545ZM246.477 51.9318L246.094 52.8553L246.096 52.8561L246.477 51.9318ZM239.977 46.8182L239.15 47.3805L239.155 47.3868L239.977 46.8182ZM237.545 38.3864V37.3864H236.523L236.546 38.409L237.545 38.3864ZM247.068 38.3864L248.066 38.3186L248.003 37.3864H247.068V38.3864ZM248.409 42.2955L247.61 42.8973L247.615 42.9038L247.62 42.9102L248.409 42.2955ZM251.614 44.6364L251.244 45.5657L251.257 45.5705L251.614 44.6364ZM260.523 44.6818L260.159 43.7502L260.155 43.7518L260.523 44.6818ZM263.409 42.6591L264.194 43.2787L263.409 42.6591ZM263.5 37.0455L262.738 37.6936L262.746 37.7028L263.5 37.0455ZM260.818 35.2273L260.424 36.1464L260.429 36.1482L260.818 35.2273ZM256.523 33.8636L256.279 34.8336L256.288 34.8358L256.523 33.8636ZM251.455 32.5909L251.698 31.621L251.691 31.6192L251.455 32.5909ZM242.159 28.1136L241.493 28.8594L242.159 28.1136ZM238.773 19.9091L239.773 19.9135L239.773 19.9037L238.773 19.9091ZM241.023 12.5227L240.214 11.9349L240.211 11.9387L241.023 12.5227ZM265.455 7.59091L265.038 8.49981L265.04 8.50073L265.455 7.59091ZM271.5 12.5227L270.674 13.087V13.087L271.5 12.5227ZM273.727 19.8409V20.8409H274.744L274.727 19.8245L273.727 19.8409ZM255.409 58.8182V0.63636H253.409V58.8182H255.409ZM254.409 1.63636H258.136V-0.36364H254.409V1.63636ZM257.136 0.63636V58.8182H259.136V0.63636H257.136ZM258.136 57.8182H254.409V59.8182H258.136V57.8182ZM265.291 19.7422C265.083 17.6511 264.173 15.9598 262.547 14.7629L261.362 16.3735C262.494 17.2068 263.144 18.364 263.3 19.9396L265.291 19.7422ZM262.547 14.7629C260.942 13.5811 258.838 13.0455 256.341 13.0455V15.0455C258.571 15.0455 260.209 15.5249 261.362 16.3735L262.547 14.7629ZM256.341 13.0455C254.647 13.0455 253.153 13.2844 251.893 13.8023L252.653 15.6522C253.605 15.2611 254.823 15.0455 256.341 15.0455V13.0455ZM251.904 13.7979C250.662 14.2911 249.65 15.0049 248.927 15.9682L250.527 17.1682C250.987 16.5557 251.671 16.0422 252.642 15.6566L251.904 13.7979ZM248.92 15.9782C248.216 16.9418 247.864 18.0435 247.864 19.25H249.864C249.864 18.4565 250.087 17.7703 250.535 17.1582L248.92 15.9782ZM247.864 19.2137C247.828 20.2135 248.037 21.1404 248.533 21.9524L250.24 20.9112C249.978 20.4809 249.839 19.9532 249.863 19.2863L247.864 19.2137ZM248.542 21.9674C249.019 22.7194 249.661 23.3543 250.445 23.8775L251.555 22.2134C250.976 21.8275 250.542 21.3867 250.231 20.8963L248.542 21.9674ZM250.458 23.886C251.21 24.3705 252.064 24.7873 253.014 25.1415L253.713 23.2676C252.875 22.9551 252.154 22.5992 251.542 22.2049L250.458 23.886ZM253.028 25.1466C253.964 25.4797 254.958 25.7633 256.009 25.9986L256.446 24.0469C255.466 23.8276 254.551 23.5658 253.699 23.2624L253.028 25.1466ZM255.995 25.9953L260.177 26.9953L260.642 25.0501L256.46 24.0501L255.995 25.9953ZM260.191 26.9986C262.164 27.4403 263.963 28.0266 265.592 28.754L266.408 26.9278C264.643 26.14 262.715 25.5143 260.628 25.0469L260.191 26.9986ZM265.592 28.754C267.206 29.4746 268.587 30.353 269.744 31.3833L271.074 29.8895C269.746 28.7076 268.188 27.7224 266.408 26.9278L265.592 28.754ZM269.744 31.3833C270.883 32.3975 271.762 33.5874 272.385 34.9593L274.206 34.1316C273.466 32.5035 272.42 31.0873 271.074 29.8895L269.744 31.3833ZM272.389 34.9668C273.016 36.3167 273.349 37.8915 273.364 39.7124L275.364 39.6967C275.348 37.6388 274.969 35.7742 274.202 34.1241L272.389 34.9668ZM273.364 39.6992C273.349 42.3725 272.67 44.6408 271.358 46.5466L273.006 47.6807C274.572 45.4047 275.348 42.7336 275.364 39.7099L273.364 39.6992ZM271.357 46.5479C270.057 48.4427 268.159 49.9454 265.607 51.0349L266.393 52.8742C269.235 51.6607 271.458 49.9361 273.006 47.6794L271.357 46.5479ZM265.61 51.0338C263.083 52.1047 259.988 52.6591 256.295 52.6591V54.6591C260.179 54.6591 263.554 54.0771 266.39 52.8753L265.61 51.0338ZM256.295 52.6591C252.638 52.6591 249.5 52.0984 246.859 51.0076L246.096 52.8561C249.03 54.0682 252.438 54.6591 256.295 54.6591V52.6591ZM246.861 51.0083C244.248 49.9233 242.241 48.3344 240.8 46.2495L239.155 47.3868C240.835 49.8172 243.161 51.6373 246.094 52.8553L246.861 51.0083ZM240.804 46.2559C239.389 44.1744 238.618 41.5619 238.545 38.3637L236.546 38.409C236.625 41.9078 237.475 44.9165 239.15 47.3805L240.804 46.2559ZM237.545 39.3864H247.068V37.3864H237.545V39.3864ZM246.07 38.4542C246.187 40.1701 246.685 41.6689 247.61 42.8973L249.208 41.6936C248.558 40.8311 248.161 39.7239 248.066 38.3186L246.07 38.4542ZM247.62 42.9102C248.543 44.0943 249.762 44.9762 251.244 45.5656L251.983 43.7072C250.798 43.2359 249.881 42.5572 249.198 41.6807L247.62 42.9102ZM251.257 45.5705C252.737 46.1361 254.384 46.4091 256.182 46.4091V44.4091C254.586 44.4091 253.187 44.1669 251.971 43.7022L251.257 45.5705ZM256.182 46.4091C257.943 46.4091 259.52 46.1533 260.89 45.6119L260.155 43.7518C259.071 44.18 257.754 44.4091 256.182 44.4091V46.4091ZM260.886 45.6134C262.259 45.0776 263.381 44.3088 264.194 43.2787L262.624 42.0394C262.074 42.7366 261.271 43.3163 260.159 43.7502L260.886 45.6134ZM264.194 43.2787C265.018 42.235 265.432 41.0233 265.432 39.6818H263.432C263.432 40.5828 263.164 41.3559 262.624 42.0394L264.194 43.2787ZM265.432 39.6818C265.432 38.4223 265.051 37.3021 264.254 36.3881L262.746 37.7028C263.191 38.213 263.432 38.8505 263.432 39.6818H265.432ZM264.262 36.3973C263.524 35.5308 262.483 34.8456 261.208 34.3063L260.429 36.1482C261.517 36.6089 262.264 37.1359 262.738 37.6936L264.262 36.3973ZM261.212 34.3081C259.979 33.7795 258.49 33.3092 256.757 32.8915L256.288 34.8358C257.949 35.2362 259.324 35.675 260.424 36.1464L261.212 34.3081ZM256.766 32.8937L251.698 31.621L251.211 33.5608L256.279 34.8335L256.766 32.8937ZM251.691 31.6192C247.876 30.6914 244.942 29.2589 242.825 27.3679L241.493 28.8594C243.922 31.029 247.184 32.5814 251.218 33.5626L251.691 31.6192ZM242.825 27.3679C240.795 25.554 239.759 23.1075 239.773 19.9135L237.773 19.9047C237.757 23.5894 238.978 26.6127 241.493 28.8594L242.825 27.3679ZM239.773 19.9037C239.759 17.2777 240.454 15.0262 241.834 13.1067L240.211 11.9387C238.562 14.2314 237.757 16.9041 237.773 19.9145L239.773 19.9037ZM241.832 13.1106C243.246 11.1635 245.198 9.6244 247.723 8.50515L246.913 6.67667C244.105 7.92106 241.86 9.66981 240.214 11.9349L241.832 13.1106ZM247.723 8.50515C250.243 7.38838 253.132 6.81818 256.409 6.81818V4.81818C252.898 4.81818 249.726 5.4298 246.913 6.67667L247.723 8.50515ZM256.409 6.81818C259.751 6.81818 262.618 7.38968 265.038 8.4998L265.872 6.68201C263.14 5.4285 259.977 4.81818 256.409 4.81818V6.81818ZM265.04 8.50073C267.484 9.61596 269.349 11.1484 270.674 13.087L272.326 11.9585C270.772 9.68495 268.606 7.9295 265.87 6.68109L265.04 8.50073ZM270.674 13.087C271.994 15.0173 272.685 17.2625 272.727 19.8573L274.727 19.8245C274.679 16.8738 273.885 14.2402 272.326 11.9585L270.674 13.087ZM273.727 18.8409H264.295V20.8409H273.727V18.8409ZM280.983 53H279.983V54H280.983V53ZM280.983 6.45454V5.45454H279.983V6.45454H280.983ZM308.188 7.97727L307.782 8.89133L308.188 7.97727ZM313.347 12.2045L312.504 12.7428L312.506 12.746L313.347 12.2045ZM313.983 23.1818L314.865 23.6524L314.867 23.6484L313.983 23.1818ZM310.983 26.5455L311.549 27.3698L311.551 27.3684L310.983 26.5455ZM306.665 28.3864L306.446 27.4106L305.665 27.5858V28.3864H306.665ZM306.665 28.8409H305.665V29.7991L306.622 29.84L306.665 28.8409ZM311.642 30.3409L311.129 31.1992L311.132 31.2013L311.642 30.3409ZM315.438 34.2273L314.573 34.7302L314.575 34.7336L315.438 34.2273ZM315.051 46.75L314.206 46.2153L314.205 46.217L315.051 46.75ZM309.665 51.3182L309.238 50.4136L309.665 51.3182ZM290.824 44.9545H289.824V45.9545H290.824V44.9545ZM304.847 43.3864L305.486 44.1554L305.491 44.1508L304.847 43.3864ZM305.801 35.75L304.955 36.2835L305.801 35.75ZM303.142 33.4318L302.7 34.3286L302.704 34.3309L303.142 33.4318ZM290.824 32.5909V31.5909H289.824V32.5909H290.824ZM290.824 25.9318H289.824V26.9318H290.824V25.9318ZM301.71 25.2273L302.12 26.1395L302.126 26.1367L301.71 25.2273ZM304.21 23.1818L303.394 22.6045L303.387 22.6141L304.21 23.1818ZM303.347 15.9545L302.689 16.7083L302.694 16.7124L303.347 15.9545ZM290.824 14.4091V13.4091H289.824V14.4091H290.824ZM281.983 53V6.45454H279.983V53H281.983ZM280.983 7.45454H299.619V5.45454H280.983V7.45454ZM299.619 7.45454C302.952 7.45454 305.66 7.94963 307.782 8.89133L308.593 7.06321C306.14 5.97461 303.135 5.45454 299.619 5.45454V7.45454ZM307.782 8.89133C309.922 9.84069 311.475 11.1318 312.504 12.7428L314.189 11.6663C312.915 9.67121 311.029 8.14416 308.593 7.06321L307.782 8.89133ZM312.506 12.746C313.543 14.3569 314.074 16.2257 314.074 18.3864H316.074C316.074 15.8804 315.453 13.628 314.187 11.6631L312.506 12.746ZM314.074 18.3864C314.074 20.0691 313.738 21.5025 313.098 22.7153L314.867 23.6484C315.682 22.1036 316.074 20.34 316.074 18.3864H314.074ZM313.101 22.7112C312.448 23.9339 311.556 24.9344 310.415 25.7226L311.551 27.3684C312.955 26.399 314.063 25.157 314.865 23.6524L313.101 22.7112ZM310.417 25.7211C309.273 26.5064 307.954 27.0724 306.446 27.4106L306.884 29.3621C308.618 28.9731 310.177 28.3117 311.549 27.3698L310.417 25.7211ZM305.665 28.3864V28.8409H307.665V28.3864H305.665ZM306.622 29.84C308.226 29.9085 309.724 30.3589 311.129 31.1991L312.155 29.4827C310.469 28.4744 308.649 27.9248 306.707 27.8418L306.622 29.84ZM311.132 31.2013C312.537 32.0331 313.684 33.2014 314.573 34.7302L316.302 33.7244C315.252 31.9198 313.868 30.4972 312.152 29.4805L311.132 31.2013ZM314.575 34.7336C315.439 36.2042 315.892 37.9917 315.892 40.1364H317.892C317.892 37.7052 317.376 35.5534 316.3 33.7209L314.575 34.7336ZM315.892 40.1364C315.892 42.4318 315.324 44.4481 314.206 46.2153L315.896 47.2847C317.232 45.1731 317.892 42.7804 317.892 40.1364H315.892ZM314.205 46.217C313.11 47.9559 311.472 49.3607 309.238 50.4136L310.091 52.2227C312.615 51.0332 314.568 49.3926 315.897 47.283L314.205 46.217ZM309.238 50.4136C307.029 51.455 304.253 52 300.869 52V54C304.456 54 307.543 53.4238 310.091 52.2227L309.238 50.4136ZM300.869 52H280.983V54H300.869V52ZM290.824 45.9545H298.847V43.9545H290.824V45.9545ZM298.847 45.9545C301.677 45.9545 303.962 45.4222 305.486 44.1553L304.207 42.6174C303.216 43.4415 301.501 43.9545 298.847 43.9545V45.9545ZM305.491 44.1508C306.991 42.8859 307.733 41.1884 307.733 39.1591H305.733C305.733 40.6449 305.217 41.7656 304.202 42.6219L305.491 44.1508ZM307.733 39.1591C307.733 37.7031 307.379 36.3777 306.647 35.2165L304.955 36.2835C305.465 37.092 305.733 38.0393 305.733 39.1591H307.733ZM306.647 35.2165C305.917 34.0587 304.881 33.1664 303.58 32.5327L302.704 34.3309C303.706 34.8185 304.443 35.4716 304.955 36.2835L306.647 35.2165ZM303.584 32.535C302.281 31.892 300.767 31.5909 299.074 31.5909V33.5909C300.533 33.5909 301.73 33.8504 302.7 34.3286L303.584 32.535ZM299.074 31.5909H290.824V33.5909H299.074V31.5909ZM289.824 32.5909V44.9545H291.824V32.5909H289.824ZM290.824 26.9318H298.119V24.9318H290.824V26.9318ZM298.119 26.9318C299.584 26.9318 300.925 26.6764 302.12 26.1394L301.3 24.3151C300.405 24.7176 299.351 24.9318 298.119 24.9318V26.9318ZM302.126 26.1367C303.335 25.584 304.316 24.7905 305.033 23.7495L303.387 22.6141C302.893 23.3307 302.207 23.9008 301.294 24.3178L302.126 26.1367ZM305.027 23.7591C305.784 22.6884 306.142 21.4266 306.142 20.0227H304.142C304.142 21.0734 303.879 21.9176 303.394 22.6046L305.027 23.7591ZM306.142 20.0227C306.142 18.0712 305.432 16.4305 303.999 15.1966L302.694 16.7124C303.655 17.5392 304.142 18.6106 304.142 20.0227H306.142ZM304.004 15.2008C302.579 13.9591 300.63 13.4091 298.301 13.4091V15.4091C300.336 15.4091 301.75 15.8894 302.689 16.7083L304.004 15.2008ZM298.301 13.4091H290.824V15.4091H298.301V13.4091ZM289.824 14.4091V25.9318H291.824V14.4091H289.824ZM352.045 6.45454V5.45454H351.045V6.45454H352.045ZM361.886 6.45454H362.886V5.45454H361.886V6.45454ZM359.455 45.5909L358.611 45.0537L358.609 45.0573L359.455 45.5909ZM352.705 51.5455L353.142 52.4445L353.146 52.4427L352.705 51.5455ZM332.455 51.5455L332.013 52.4427L332.017 52.4445L332.455 51.5455ZM325.705 45.5909L324.859 46.1245L325.705 45.5909ZM323.295 6.45454V5.45454H322.295V6.45454H323.295ZM333.136 6.45454H334.136V5.45454H333.136V6.45454ZM334.295 40.5682L333.423 41.0571L333.427 41.0643L334.295 40.5682ZM337.614 43.8182L337.13 44.6932L337.614 43.8182ZM347.568 43.8182L347.084 42.9431L347.08 42.9454L347.568 43.8182ZM350.864 40.5682L349.995 40.072L349.991 40.0793L350.864 40.5682ZM352.045 7.45454H361.886V5.45454H352.045V7.45454ZM360.886 6.45454V36.6818H362.886V6.45454H360.886ZM360.886 36.6818C360.886 39.9099 360.118 42.6882 358.611 45.0537L360.298 46.1281C362.034 43.4027 362.886 40.2416 362.886 36.6818H360.886ZM358.609 45.0573C357.108 47.4353 355.004 49.2995 352.263 50.6482L353.146 52.4427C356.193 50.943 358.589 48.8374 360.3 46.1245L358.609 45.0573ZM352.267 50.6464C349.533 51.9773 346.317 52.6591 342.591 52.6591V54.6591C346.562 54.6591 350.088 53.9318 353.142 52.4445L352.267 50.6464ZM342.591 52.6591C338.849 52.6591 335.625 51.9771 332.892 50.6464L332.017 52.4445C335.072 53.932 338.606 54.6591 342.591 54.6591V52.6591ZM332.896 50.6482C330.156 49.2995 328.051 47.4353 326.55 45.0573L324.859 46.1245C326.571 48.8374 328.966 50.943 332.013 52.4427L332.896 50.6482ZM326.55 45.0573C325.057 42.6913 324.295 39.9117 324.295 36.6818H322.295C322.295 40.2398 323.14 43.3996 324.859 46.1245L326.55 45.0573ZM324.295 36.6818V6.45454H322.295V36.6818H324.295ZM323.295 7.45454H333.136V5.45454H323.295V7.45454ZM332.136 6.45454V35.8409H334.136V6.45454H332.136ZM332.136 35.8409C332.136 37.7636 332.557 39.5115 333.423 41.0571L335.168 40.0793C334.489 38.8673 334.136 37.4636 334.136 35.8409H332.136ZM333.427 41.0643C334.308 42.6063 335.549 43.819 337.13 44.6932L338.098 42.9431C336.83 42.2416 335.858 41.2876 335.164 40.072L333.427 41.0643ZM337.13 44.6932C338.725 45.5756 340.556 46 342.591 46V44C340.838 44 339.351 43.6365 338.098 42.9431L337.13 44.6932ZM342.591 46C344.64 46 346.473 45.5763 348.056 44.691L347.08 42.9454C345.845 43.6358 344.36 44 342.591 44V46ZM348.052 44.6932C349.634 43.8181 350.869 42.6032 351.736 41.0571L349.991 40.0793C349.312 41.2907 348.351 42.2425 347.084 42.9431L348.052 44.6932ZM351.732 41.0643C352.616 39.5174 353.045 37.767 353.045 35.8409H351.045C351.045 37.4603 350.687 38.8614 349.995 40.072L351.732 41.0643ZM353.045 35.8409V6.45454H351.045V35.8409H353.045ZM395.233 19.8409L394.238 19.9396L394.327 20.8409H395.233V19.8409ZM383.21 14.7273L383.579 15.6567L383.59 15.6522L383.21 14.7273ZM380.665 16.5682L379.865 15.9681L379.857 15.9782L380.665 16.5682ZM379.801 19.25L380.8 19.2863L380.801 19.2682V19.25H379.801ZM380.324 21.4318L379.47 21.9524L379.475 21.9599L379.479 21.9674L380.324 21.4318ZM381.938 23.0455L381.383 23.8775L381.389 23.8818L381.396 23.886L381.938 23.0455ZM384.301 24.2045L383.952 25.1415L383.959 25.1441L383.966 25.1466L384.301 24.2045ZM387.165 25.0227L387.397 24.0501L387.39 24.0485L387.383 24.0469L387.165 25.0227ZM391.347 26.0227L391.114 26.9953L391.121 26.997L391.128 26.9986L391.347 26.0227ZM396.938 27.8409L396.53 28.754L396.938 27.8409ZM401.347 30.6364L402.012 29.8895L401.347 30.6364ZM404.233 34.5455L403.323 34.9593L403.326 34.9668L404.233 34.5455ZM405.301 39.7045L406.301 39.7099L406.301 39.6967L405.301 39.7045ZM403.119 47.1136L402.296 46.5466L402.295 46.5479L403.119 47.1136ZM396.938 51.9545L397.328 52.8753L397.33 52.8742L396.938 51.9545ZM377.415 51.9318L377.031 52.8553L377.033 52.8561L377.415 51.9318ZM370.915 46.8182L370.088 47.3805L370.092 47.3868L370.915 46.8182ZM368.483 38.3864V37.3864H367.46L367.483 38.409L368.483 38.3864ZM378.006 38.3864L379.003 38.3186L378.94 37.3864H378.006V38.3864ZM379.347 42.2955L378.548 42.8973L378.553 42.9038L378.558 42.9102L379.347 42.2955ZM382.551 44.6364L382.182 45.5657L382.194 45.5705L382.551 44.6364ZM391.46 44.6818L391.097 43.7502L391.093 43.7518L391.46 44.6818ZM394.347 42.6591L395.131 43.2787L394.347 42.6591ZM394.438 37.0455L393.676 37.6936L393.684 37.7028L394.438 37.0455ZM391.756 35.2273L391.362 36.1464L391.366 36.1482L391.756 35.2273ZM387.46 33.8636L387.217 34.8336L387.226 34.8358L387.46 33.8636ZM382.392 32.5909L382.636 31.621L382.628 31.6192L382.392 32.5909ZM373.097 28.1136L372.43 28.8594L373.097 28.1136ZM369.71 19.9091L370.71 19.9135L370.71 19.9037L369.71 19.9091ZM371.96 12.5227L371.151 11.9349L371.148 11.9387L371.96 12.5227ZM396.392 7.59091L395.975 8.49981L395.977 8.50073L396.392 7.59091ZM402.438 12.5227L401.612 13.087V13.087L402.438 12.5227ZM404.665 19.8409V20.8409H405.681L405.665 19.8245L404.665 19.8409ZM396.228 19.7422C396.021 17.6511 395.111 15.9598 393.485 14.7629L392.299 16.3735C393.431 17.2068 394.082 18.364 394.238 19.9396L396.228 19.7422ZM393.485 14.7629C391.88 13.5811 389.776 13.0455 387.278 13.0455V15.0455C389.508 15.0455 391.147 15.5249 392.299 16.3735L393.485 14.7629ZM387.278 13.0455C385.584 13.0455 384.09 13.2844 382.83 13.8023L383.59 15.6522C384.542 15.2611 385.761 15.0455 387.278 15.0455V13.0455ZM382.841 13.7979C381.6 14.2911 380.587 15.0049 379.865 15.9682L381.465 17.1682C381.924 16.5557 382.609 16.0422 383.579 15.6566L382.841 13.7979ZM379.857 15.9782C379.153 16.9418 378.801 18.0435 378.801 19.25H380.801C380.801 18.4565 381.025 17.7703 381.472 17.1582L379.857 15.9782ZM378.802 19.2137C378.765 20.2135 378.975 21.1404 379.47 21.9524L381.178 20.9112C380.915 20.4809 380.776 19.9532 380.8 19.2863L378.802 19.2137ZM379.479 21.9674C379.956 22.7194 380.598 23.3543 381.383 23.8775L382.492 22.2134C381.913 21.8275 381.479 21.3867 381.168 20.8963L379.479 21.9674ZM381.396 23.886C382.148 24.3705 383.002 24.7873 383.952 25.1415L384.651 23.2676C383.812 22.9551 383.091 22.5992 382.479 22.2049L381.396 23.886ZM383.966 25.1466C384.901 25.4797 385.895 25.7633 386.946 25.9986L387.383 24.0469C386.404 23.8276 385.489 23.5658 384.636 23.2624L383.966 25.1466ZM386.932 25.9953L391.114 26.9953L391.579 25.0501L387.397 24.0501L386.932 25.9953ZM391.128 26.9986C393.101 27.4403 394.9 28.0266 396.53 28.754L397.345 26.9278C395.581 26.14 393.653 25.5143 391.565 25.0469L391.128 26.9986ZM396.53 28.754C398.144 29.4746 399.524 30.353 400.682 31.3833L402.012 29.8895C400.684 28.7076 399.125 27.7224 397.345 26.9278L396.53 28.754ZM400.682 31.3833C401.821 32.3975 402.699 33.5874 403.323 34.9593L405.143 34.1316C404.403 32.5035 403.357 31.0873 402.012 29.8895L400.682 31.3833ZM403.326 34.9668C403.953 36.3167 404.287 37.8915 404.301 39.7124L406.301 39.6967C406.285 37.6388 405.907 35.7742 405.14 34.1241L403.326 34.9668ZM404.301 39.6992C404.287 42.3725 403.608 44.6408 402.296 46.5466L403.943 47.6807C405.51 45.4047 406.285 42.7336 406.301 39.7099L404.301 39.6992ZM402.295 46.5479C400.995 48.4427 399.096 49.9454 396.545 51.0349L397.33 52.8742C400.172 51.6607 402.395 49.9361 403.944 47.6794L402.295 46.5479ZM396.547 51.0338C394.02 52.1047 390.925 52.6591 387.233 52.6591V54.6591C391.116 54.6591 394.491 54.0771 397.328 52.8753L396.547 51.0338ZM387.233 52.6591C383.575 52.6591 380.438 52.0984 377.797 51.0076L377.033 52.8561C379.968 54.0682 383.376 54.6591 387.233 54.6591V52.6591ZM377.798 51.0083C375.186 49.9233 373.179 48.3344 371.737 46.2495L370.092 47.3868C371.772 49.8172 374.098 51.6373 377.031 52.8553L377.798 51.0083ZM371.742 46.2559C370.326 44.1744 369.555 41.5619 369.483 38.3637L367.483 38.409C367.562 41.9078 368.412 44.9165 370.088 47.3805L371.742 46.2559ZM368.483 39.3864H378.006V37.3864H368.483V39.3864ZM377.008 38.4542C377.125 40.1701 377.622 41.6689 378.548 42.8973L380.145 41.6936C379.495 40.8311 379.099 39.7239 379.003 38.3186L377.008 38.4542ZM378.558 42.9102C379.481 44.0943 380.7 44.9762 382.182 45.5656L382.921 43.7072C381.736 43.2359 380.819 42.5572 380.135 41.6807L378.558 42.9102ZM382.194 45.5705C383.675 46.1361 385.321 46.4091 387.119 46.4091V44.4091C385.523 44.4091 384.124 44.1669 382.908 43.7022L382.194 45.5705ZM387.119 46.4091C388.88 46.4091 390.457 46.1533 391.828 45.6119L391.093 43.7518C390.009 44.18 388.692 44.4091 387.119 44.4091V46.4091ZM391.824 45.6134C393.197 45.0776 394.318 44.3088 395.131 43.2787L393.562 42.0394C393.011 42.7366 392.209 43.3163 391.097 43.7502L391.824 45.6134ZM395.131 43.2787C395.955 42.235 396.369 41.0233 396.369 39.6818H394.369C394.369 40.5828 394.101 41.3559 393.562 42.0394L395.131 43.2787ZM396.369 39.6818C396.369 38.4223 395.988 37.3021 395.191 36.3881L393.684 37.7028C394.129 38.213 394.369 38.8505 394.369 39.6818H396.369ZM395.199 36.3973C394.462 35.5308 393.42 34.8456 392.145 34.3063L391.366 36.1482C392.455 36.6089 393.201 37.1359 393.676 37.6936L395.199 36.3973ZM392.15 34.3081C390.916 33.7795 389.427 33.3092 387.695 32.8915L387.226 34.8358C388.887 35.2362 390.262 35.675 391.362 36.1464L392.15 34.3081ZM387.704 32.8937L382.636 31.621L382.148 33.5608L387.217 34.8335L387.704 32.8937ZM382.628 31.6192C378.814 30.6914 375.88 29.2589 373.763 27.3679L372.43 28.8594C374.859 31.029 378.122 32.5814 382.156 33.5626L382.628 31.6192ZM373.763 27.3679C371.732 25.554 370.696 23.1075 370.71 19.9135L368.71 19.9047C368.694 23.5894 369.915 26.6127 372.43 28.8594L373.763 27.3679ZM370.71 19.9037C370.696 17.2777 371.391 15.0262 372.772 13.1067L371.148 11.9387C369.499 14.2314 368.694 16.9041 368.71 19.9145L370.71 19.9037ZM372.769 13.1106C374.184 11.1635 376.135 9.6244 378.661 8.50515L377.85 6.67667C375.043 7.92106 372.797 9.66981 371.151 11.9349L372.769 13.1106ZM378.661 8.50515C381.181 7.38838 384.07 6.81818 387.347 6.81818V4.81818C383.836 4.81818 380.664 5.4298 377.85 6.67667L378.661 8.50515ZM387.347 6.81818C390.688 6.81818 393.556 7.38968 395.975 8.4998L396.809 6.68201C394.077 5.4285 390.914 4.81818 387.347 4.81818V6.81818ZM395.977 8.50073C398.422 9.61596 400.287 11.1484 401.612 13.087L403.263 11.9585C401.709 9.68495 399.544 7.9295 396.807 6.68109L395.977 8.50073ZM401.612 13.087C402.931 15.0173 403.622 17.2625 403.665 19.8573L405.665 19.8245C405.616 16.8738 404.823 14.2402 403.263 11.9585L401.612 13.087ZM404.665 18.8409H395.233V20.8409H404.665V18.8409ZM421.761 6.45454H422.761V5.45454H421.761V6.45454ZM421.761 53V54H422.761V53H421.761ZM411.92 53H410.92V54H411.92V53ZM411.92 6.45454V5.45454H410.92V6.45454H411.92ZM420.761 6.45454V53H422.761V6.45454H420.761ZM421.761 52H411.92V54H421.761V52ZM412.92 53V6.45454H410.92V53H412.92ZM411.92 7.45454H421.761V5.45454H411.92V7.45454ZM468.79 6.45454H469.79V5.45454H468.79V6.45454ZM468.79 53V54H469.79V53H468.79ZM460.29 53L459.467 53.5686L459.765 54H460.29V53ZM440.04 23.7045L440.862 23.1359L440.564 22.7045H440.04V23.7045ZM439.699 23.7045V22.7045H438.699V23.7045H439.699ZM439.699 53V54H440.699V53H439.699ZM429.858 53H428.858V54H429.858V53ZM429.858 6.45454V5.45454H428.858V6.45454H429.858ZM438.494 6.45454L439.319 5.88867L439.021 5.45454H438.494V6.45454ZM458.585 35.7273L457.761 36.2931L458.059 36.7273H458.585V35.7273ZM458.994 35.7273V36.7273H459.994V35.7273H458.994ZM458.994 6.45454V5.45454H457.994V6.45454H458.994ZM467.79 6.45454V53H469.79V6.45454H467.79ZM468.79 52H460.29V54H468.79V52ZM461.112 52.4314L440.862 23.1359L439.217 24.2732L459.467 53.5686L461.112 52.4314ZM440.04 22.7045H439.699V24.7045H440.04V22.7045ZM438.699 23.7045V53H440.699V23.7045H438.699ZM439.699 52H429.858V54H439.699V52ZM430.858 53V6.45454H428.858V53H430.858ZM429.858 7.45454H438.494V5.45454H429.858V7.45454ZM437.67 7.02042L457.761 36.2931L459.41 35.1614L439.319 5.88867L437.67 7.02042ZM458.585 36.7273H458.994V34.7273H458.585V36.7273ZM459.994 35.7273V6.45454H457.994V35.7273H459.994ZM458.994 7.45454H468.79V5.45454H458.994V7.45454ZM476.92 53H475.92V54H476.92V53ZM476.92 6.45454V5.45454H475.92V6.45454H476.92ZM508.284 6.45454H509.284V5.45454H508.284V6.45454ZM508.284 14.5682V15.5682H509.284V14.5682H508.284ZM486.761 14.5682V13.5682H485.761V14.5682H486.761ZM486.761 25.6591H485.761V26.6591H486.761V25.6591ZM506.67 25.6591H507.67V24.6591H506.67V25.6591ZM506.67 33.7727V34.7727H507.67V33.7727H506.67ZM486.761 33.7727V32.7727H485.761V33.7727H486.761ZM486.761 44.8864H485.761V45.8864H486.761V44.8864ZM508.375 44.8864H509.375V43.8864H508.375V44.8864ZM508.375 53V54H509.375V53H508.375ZM477.92 53V6.45454H475.92V53H477.92ZM476.92 7.45454H508.284V5.45454H476.92V7.45454ZM507.284 6.45454V14.5682H509.284V6.45454H507.284ZM508.284 13.5682H486.761V15.5682H508.284V13.5682ZM485.761 14.5682V25.6591H487.761V14.5682H485.761ZM486.761 26.6591H506.67V24.6591H486.761V26.6591ZM505.67 25.6591V33.7727H507.67V25.6591H505.67ZM506.67 32.7727H486.761V34.7727H506.67V32.7727ZM485.761 33.7727V44.8864H487.761V33.7727H485.761ZM486.761 45.8864H508.375V43.8864H486.761V45.8864ZM507.375 44.8864V53H509.375V44.8864H507.375ZM508.375 52H476.92V54H508.375V52ZM541.358 19.8409L540.363 19.9396L540.452 20.8409H541.358V19.8409ZM529.335 14.7273L529.704 15.6567L529.715 15.6522L529.335 14.7273ZM526.79 16.5682L525.99 15.9681L525.982 15.9782L526.79 16.5682ZM525.926 19.25L526.925 19.2863L526.926 19.2682V19.25H525.926ZM526.449 21.4318L525.595 21.9524L525.6 21.9599L525.604 21.9674L526.449 21.4318ZM528.062 23.0455L527.508 23.8775L527.514 23.8818L527.521 23.886L528.062 23.0455ZM530.426 24.2045L530.077 25.1415L530.084 25.1441L530.091 25.1466L530.426 24.2045ZM533.29 25.0227L533.522 24.0501L533.515 24.0485L533.508 24.0469L533.29 25.0227ZM537.472 26.0227L537.239 26.9953L537.246 26.997L537.253 26.9986L537.472 26.0227ZM543.062 27.8409L542.655 28.754L543.062 27.8409ZM547.472 30.6364L548.137 29.8895L547.472 30.6364ZM550.358 34.5455L549.448 34.9593L549.451 34.9668L550.358 34.5455ZM551.426 39.7045L552.426 39.7099L552.426 39.6967L551.426 39.7045ZM549.244 47.1136L548.421 46.5466L548.42 46.5479L549.244 47.1136ZM543.062 51.9545L543.453 52.8753L543.455 52.8742L543.062 51.9545ZM523.54 51.9318L523.156 52.8553L523.158 52.8561L523.54 51.9318ZM517.04 46.8182L516.213 47.3805L516.217 47.3868L517.04 46.8182ZM514.608 38.3864V37.3864H513.585L513.608 38.409L514.608 38.3864ZM524.131 38.3864L525.128 38.3186L525.065 37.3864H524.131V38.3864ZM525.472 42.2955L524.673 42.8973L524.678 42.9038L524.683 42.9102L525.472 42.2955ZM528.676 44.6364L528.307 45.5657L528.319 45.5705L528.676 44.6364ZM537.585 44.6818L537.222 43.7502L537.218 43.7518L537.585 44.6818ZM540.472 42.6591L541.256 43.2787L540.472 42.6591ZM540.562 37.0455L539.801 37.6936L539.809 37.7028L540.562 37.0455ZM537.881 35.2273L537.487 36.1464L537.491 36.1482L537.881 35.2273ZM533.585 33.8636L533.342 34.8336L533.351 34.8358L533.585 33.8636ZM528.517 32.5909L528.761 31.621L528.753 31.6192L528.517 32.5909ZM519.222 28.1136L518.555 28.8594L519.222 28.1136ZM515.835 19.9091L516.835 19.9135L516.835 19.9037L515.835 19.9091ZM518.085 12.5227L517.276 11.9349L517.273 11.9387L518.085 12.5227ZM542.517 7.59091L542.1 8.49981L542.102 8.50073L542.517 7.59091ZM548.562 12.5227L547.737 13.087V13.087L548.562 12.5227ZM550.79 19.8409V20.8409H551.806L551.79 19.8245L550.79 19.8409ZM542.353 19.7422C542.146 17.6511 541.236 15.9598 539.61 14.7629L538.424 16.3735C539.556 17.2068 540.207 18.364 540.363 19.9396L542.353 19.7422ZM539.61 14.7629C538.005 13.5811 535.901 13.0455 533.403 13.0455V15.0455C535.633 15.0455 537.272 15.5249 538.424 16.3735L539.61 14.7629ZM533.403 13.0455C531.709 13.0455 530.215 13.2844 528.955 13.8023L529.715 15.6522C530.667 15.2611 531.886 15.0455 533.403 15.0455V13.0455ZM528.966 13.7979C527.725 14.2911 526.712 15.0049 525.99 15.9682L527.59 17.1682C528.049 16.5557 528.734 16.0422 529.704 15.6566L528.966 13.7979ZM525.982 15.9782C525.278 16.9418 524.926 18.0435 524.926 19.25H526.926C526.926 18.4565 527.15 17.7703 527.597 17.1582L525.982 15.9782ZM524.927 19.2137C524.89 20.2135 525.1 21.1404 525.595 21.9524L527.303 20.9112C527.04 20.4809 526.901 19.9532 526.925 19.2863L524.927 19.2137ZM525.604 21.9674C526.081 22.7194 526.723 23.3543 527.508 23.8775L528.617 22.2134C528.038 21.8275 527.604 21.3867 527.293 20.8963L525.604 21.9674ZM527.521 23.886C528.273 24.3705 529.127 24.7873 530.077 25.1415L530.776 23.2676C529.938 22.9551 529.216 22.5992 528.604 22.2049L527.521 23.886ZM530.091 25.1466C531.026 25.4797 532.02 25.7633 533.071 25.9986L533.508 24.0469C532.529 23.8276 531.614 23.5658 530.761 23.2624L530.091 25.1466ZM533.057 25.9953L537.239 26.9953L537.704 25.0501L533.522 24.0501L533.057 25.9953ZM537.253 26.9986C539.226 27.4403 541.025 28.0266 542.655 28.754L543.47 26.9278C541.706 26.14 539.778 25.5143 537.69 25.0469L537.253 26.9986ZM542.655 28.754C544.269 29.4746 545.649 30.353 546.807 31.3833L548.137 29.8895C546.809 28.7076 545.25 27.7224 543.47 26.9278L542.655 28.754ZM546.807 31.3833C547.946 32.3975 548.824 33.5874 549.448 34.9593L551.268 34.1316C550.528 32.5035 549.482 31.0873 548.137 29.8895L546.807 31.3833ZM549.451 34.9668C550.078 36.3167 550.412 37.8915 550.426 39.7124L552.426 39.6967C552.41 37.6388 552.032 35.7742 551.265 34.1241L549.451 34.9668ZM550.426 39.6992C550.412 42.3725 549.733 44.6408 548.421 46.5466L550.068 47.6807C551.635 45.4047 552.41 42.7336 552.426 39.7099L550.426 39.6992ZM548.42 46.5479C547.12 48.4427 545.221 49.9454 542.67 51.0349L543.455 52.8742C546.297 51.6607 548.52 49.9361 550.069 47.6794L548.42 46.5479ZM542.672 51.0338C540.145 52.1047 537.05 52.6591 533.358 52.6591V54.6591C537.241 54.6591 540.616 54.0771 543.453 52.8753L542.672 51.0338ZM533.358 52.6591C529.7 52.6591 526.563 52.0984 523.922 51.0076L523.158 52.8561C526.093 54.0682 529.5 54.6591 533.358 54.6591V52.6591ZM523.923 51.0083C521.311 49.9233 519.304 48.3344 517.862 46.2495L516.217 47.3868C517.897 49.8172 520.223 51.6373 523.156 52.8553L523.923 51.0083ZM517.867 46.2559C516.451 44.1744 515.68 41.5619 515.608 38.3637L513.608 38.409C513.687 41.9078 514.537 44.9165 516.213 47.3805L517.867 46.2559ZM514.608 39.3864H524.131V37.3864H514.608V39.3864ZM523.133 38.4542C523.25 40.1701 523.747 41.6689 524.673 42.8973L526.27 41.6936C525.62 40.8311 525.224 39.7239 525.128 38.3186L523.133 38.4542ZM524.683 42.9102C525.606 44.0943 526.825 44.9762 528.307 45.5656L529.046 43.7072C527.861 43.2359 526.943 42.5572 526.26 41.6807L524.683 42.9102ZM528.319 45.5705C529.8 46.1361 531.446 46.4091 533.244 46.4091V44.4091C531.648 44.4091 530.249 44.1669 529.033 43.7022L528.319 45.5705ZM533.244 46.4091C535.005 46.4091 536.582 46.1533 537.953 45.6119L537.218 43.7518C536.134 44.18 534.817 44.4091 533.244 44.4091V46.4091ZM537.949 45.6134C539.322 45.0776 540.443 44.3088 541.256 43.2787L539.687 42.0394C539.136 42.7366 538.334 43.3163 537.222 43.7502L537.949 45.6134ZM541.256 43.2787C542.08 42.235 542.494 41.0233 542.494 39.6818H540.494C540.494 40.5828 540.226 41.3559 539.687 42.0394L541.256 43.2787ZM542.494 39.6818C542.494 38.4223 542.113 37.3021 541.316 36.3881L539.809 37.7028C540.254 38.213 540.494 38.8505 540.494 39.6818H542.494ZM541.324 36.3973C540.587 35.5308 539.545 34.8456 538.27 34.3063L537.491 36.1482C538.58 36.6089 539.326 37.1359 539.801 37.6936L541.324 36.3973ZM538.275 34.3081C537.041 33.7795 535.552 33.3092 533.82 32.8915L533.351 34.8358C535.012 35.2362 536.387 35.675 537.487 36.1464L538.275 34.3081ZM533.829 32.8937L528.761 31.621L528.273 33.5608L533.342 34.8335L533.829 32.8937ZM528.753 31.6192C524.939 30.6914 522.005 29.2589 519.888 27.3679L518.555 28.8594C520.984 31.029 524.247 32.5814 528.281 33.5626L528.753 31.6192ZM519.888 27.3679C517.857 25.554 516.821 23.1075 516.835 19.9135L514.835 19.9047C514.819 23.5894 516.04 26.6127 518.555 28.8594L519.888 27.3679ZM516.835 19.9037C516.821 17.2777 517.516 15.0262 518.897 13.1067L517.273 11.9387C515.624 14.2314 514.819 16.9041 514.835 19.9145L516.835 19.9037ZM518.894 13.1106C520.309 11.1635 522.26 9.6244 524.786 8.50515L523.976 6.67667C521.168 7.92106 518.922 9.66981 517.276 11.9349L518.894 13.1106ZM524.786 8.50515C527.306 7.38838 530.195 6.81818 533.472 6.81818V4.81818C529.961 4.81818 526.789 5.4298 523.976 6.67667L524.786 8.50515ZM533.472 6.81818C536.813 6.81818 539.681 7.38968 542.1 8.4998L542.934 6.68201C540.202 5.4285 537.039 4.81818 533.472 4.81818V6.81818ZM542.102 8.50073C544.547 9.61596 546.412 11.1484 547.737 13.087L549.388 11.9585C547.834 9.68495 545.669 7.9295 542.932 6.68109L542.102 8.50073ZM547.737 13.087C549.056 15.0173 549.747 17.2625 549.79 19.8573L551.79 19.8245C551.741 16.8738 550.948 14.2402 549.388 11.9585L547.737 13.087ZM550.79 18.8409H541.358V20.8409H550.79V18.8409ZM583.295 19.8409L582.3 19.9396L582.39 20.8409H583.295V19.8409ZM571.273 14.7273L571.642 15.6567L571.653 15.6522L571.273 14.7273ZM568.727 16.5682L567.927 15.9681L567.92 15.9782L568.727 16.5682ZM567.864 19.25L568.863 19.2863L568.864 19.2682V19.25H567.864ZM568.386 21.4318L567.533 21.9524L567.537 21.9599L567.542 21.9674L568.386 21.4318ZM570 23.0455L569.445 23.8775L569.452 23.8818L569.458 23.886L570 23.0455ZM572.364 24.2045L572.014 25.1415L572.021 25.1441L572.028 25.1466L572.364 24.2045ZM575.227 25.0227L575.46 24.0501L575.453 24.0485L575.446 24.0469L575.227 25.0227ZM579.409 26.0227L579.177 26.9953L579.184 26.997L579.191 26.9986L579.409 26.0227ZM585 27.8409L584.592 28.754L585 27.8409ZM589.409 30.6364L590.074 29.8895L589.409 30.6364ZM592.295 34.5455L591.385 34.9593L591.389 34.9668L592.295 34.5455ZM593.364 39.7045L594.364 39.7099L594.364 39.6967L593.364 39.7045ZM591.182 47.1136L590.358 46.5466L590.357 46.5479L591.182 47.1136ZM585 51.9545L585.39 52.8753L585.393 52.8742L585 51.9545ZM565.477 51.9318L565.094 52.8553L565.096 52.8561L565.477 51.9318ZM558.977 46.8182L558.15 47.3805L558.155 47.3868L558.977 46.8182ZM556.545 38.3864V37.3864H555.523L555.546 38.409L556.545 38.3864ZM566.068 38.3864L567.066 38.3186L567.003 37.3864H566.068V38.3864ZM567.409 42.2955L566.61 42.8973L566.615 42.9038L566.62 42.9102L567.409 42.2955ZM570.614 44.6364L570.244 45.5657L570.257 45.5705L570.614 44.6364ZM579.523 44.6818L579.159 43.7502L579.155 43.7518L579.523 44.6818ZM582.409 42.6591L583.194 43.2787L582.409 42.6591ZM582.5 37.0455L581.738 37.6936L581.746 37.7028L582.5 37.0455ZM579.818 35.2273L579.424 36.1464L579.429 36.1482L579.818 35.2273ZM575.523 33.8636L575.279 34.8336L575.288 34.8358L575.523 33.8636ZM570.455 32.5909L570.698 31.621L570.691 31.6192L570.455 32.5909ZM561.159 28.1136L560.493 28.8594L561.159 28.1136ZM557.773 19.9091L558.773 19.9135L558.773 19.9037L557.773 19.9091ZM560.023 12.5227L559.214 11.9349L559.211 11.9387L560.023 12.5227ZM584.455 7.59091L584.038 8.49981L584.04 8.50073L584.455 7.59091ZM590.5 12.5227L589.674 13.087V13.087L590.5 12.5227ZM592.727 19.8409V20.8409H593.744L593.727 19.8245L592.727 19.8409ZM584.291 19.7422C584.083 17.6511 583.173 15.9598 581.547 14.7629L580.362 16.3735C581.494 17.2068 582.144 18.364 582.3 19.9396L584.291 19.7422ZM581.547 14.7629C579.942 13.5811 577.838 13.0455 575.341 13.0455V15.0455C577.571 15.0455 579.209 15.5249 580.362 16.3735L581.547 14.7629ZM575.341 13.0455C573.647 13.0455 572.153 13.2844 570.893 13.8023L571.653 15.6522C572.605 15.2611 573.823 15.0455 575.341 15.0455V13.0455ZM570.904 13.7979C569.662 14.2911 568.65 15.0049 567.927 15.9682L569.527 17.1682C569.987 16.5557 570.671 16.0422 571.642 15.6566L570.904 13.7979ZM567.92 15.9782C567.216 16.9418 566.864 18.0435 566.864 19.25H568.864C568.864 18.4565 569.087 17.7703 569.535 17.1582L567.92 15.9782ZM566.864 19.2137C566.828 20.2135 567.037 21.1404 567.533 21.9524L569.24 20.9112C568.978 20.4809 568.839 19.9532 568.863 19.2863L566.864 19.2137ZM567.542 21.9674C568.019 22.7194 568.661 23.3543 569.445 23.8775L570.555 22.2134C569.976 21.8275 569.542 21.3867 569.231 20.8963L567.542 21.9674ZM569.458 23.886C570.21 24.3705 571.064 24.7873 572.014 25.1415L572.713 23.2676C571.875 22.9551 571.154 22.5992 570.542 22.2049L569.458 23.886ZM572.028 25.1466C572.964 25.4797 573.958 25.7633 575.009 25.9986L575.446 24.0469C574.466 23.8276 573.551 23.5658 572.699 23.2624L572.028 25.1466ZM574.995 25.9953L579.177 26.9953L579.642 25.0501L575.46 24.0501L574.995 25.9953ZM579.191 26.9986C581.164 27.4403 582.963 28.0266 584.592 28.754L585.408 26.9278C583.643 26.14 581.715 25.5143 579.628 25.0469L579.191 26.9986ZM584.592 28.754C586.206 29.4746 587.587 30.353 588.744 31.3833L590.074 29.8895C588.746 28.7076 587.188 27.7224 585.408 26.9278L584.592 28.754ZM588.744 31.3833C589.883 32.3975 590.762 33.5874 591.385 34.9593L593.206 34.1316C592.466 32.5035 591.42 31.0873 590.074 29.8895L588.744 31.3833ZM591.389 34.9668C592.016 36.3167 592.349 37.8915 592.364 39.7124L594.364 39.6967C594.348 37.6388 593.969 35.7742 593.202 34.1241L591.389 34.9668ZM592.364 39.6992C592.349 42.3725 591.67 44.6408 590.358 46.5466L592.005 47.6807C593.572 45.4047 594.348 42.7336 594.364 39.7099L592.364 39.6992ZM590.357 46.5479C589.057 48.4427 587.159 49.9454 584.607 51.0349L585.393 52.8742C588.235 51.6607 590.458 49.9361 592.006 47.6794L590.357 46.5479ZM584.61 51.0338C582.083 52.1047 578.988 52.6591 575.295 52.6591V54.6591C579.179 54.6591 582.554 54.0771 585.39 52.8753L584.61 51.0338ZM575.295 52.6591C571.638 52.6591 568.5 52.0984 565.859 51.0076L565.096 52.8561C568.03 54.0682 571.438 54.6591 575.295 54.6591V52.6591ZM565.861 51.0083C563.248 49.9233 561.241 48.3344 559.8 46.2495L558.155 47.3868C559.835 49.8172 562.161 51.6373 565.094 52.8553L565.861 51.0083ZM559.804 46.2559C558.389 44.1744 557.618 41.5619 557.545 38.3637L555.546 38.409C555.625 41.9078 556.475 44.9165 558.15 47.3805L559.804 46.2559ZM556.545 39.3864H566.068V37.3864H556.545V39.3864ZM565.07 38.4542C565.187 40.1701 565.685 41.6689 566.61 42.8973L568.208 41.6936C567.558 40.8311 567.161 39.7239 567.066 38.3186L565.07 38.4542ZM566.62 42.9102C567.543 44.0943 568.762 44.9762 570.244 45.5656L570.983 43.7072C569.798 43.2359 568.881 42.5572 568.198 41.6807L566.62 42.9102ZM570.257 45.5705C571.737 46.1361 573.384 46.4091 575.182 46.4091V44.4091C573.586 44.4091 572.187 44.1669 570.971 43.7022L570.257 45.5705ZM575.182 46.4091C576.943 46.4091 578.52 46.1533 579.89 45.6119L579.155 43.7518C578.071 44.18 576.754 44.4091 575.182 44.4091V46.4091ZM579.886 45.6134C581.259 45.0776 582.381 44.3088 583.194 43.2787L581.624 42.0394C581.074 42.7366 580.271 43.3163 579.159 43.7502L579.886 45.6134ZM583.194 43.2787C584.018 42.235 584.432 41.0233 584.432 39.6818H582.432C582.432 40.5828 582.164 41.3559 581.624 42.0394L583.194 43.2787ZM584.432 39.6818C584.432 38.4223 584.051 37.3021 583.254 36.3881L581.746 37.7028C582.191 38.213 582.432 38.8505 582.432 39.6818H584.432ZM583.262 36.3973C582.524 35.5308 581.483 34.8456 580.208 34.3063L579.429 36.1482C580.517 36.6089 581.264 37.1359 581.738 37.6936L583.262 36.3973ZM580.212 34.3081C578.979 33.7795 577.49 33.3092 575.757 32.8915L575.288 34.8358C576.949 35.2362 578.324 35.675 579.424 36.1464L580.212 34.3081ZM575.766 32.8937L570.698 31.621L570.211 33.5608L575.279 34.8335L575.766 32.8937ZM570.691 31.6192C566.876 30.6914 563.942 29.2589 561.825 27.3679L560.493 28.8594C562.922 31.029 566.184 32.5814 570.218 33.5626L570.691 31.6192ZM561.825 27.3679C559.795 25.554 558.759 23.1075 558.773 19.9135L556.773 19.9047C556.757 23.5894 557.978 26.6127 560.493 28.8594L561.825 27.3679ZM558.773 19.9037C558.759 17.2777 559.454 15.0262 560.834 13.1067L559.211 11.9387C557.562 14.2314 556.757 16.9041 556.773 19.9145L558.773 19.9037ZM560.832 13.1106C562.246 11.1635 564.198 9.6244 566.723 8.50515L565.913 6.67667C563.105 7.92106 560.86 9.66981 559.214 11.9349L560.832 13.1106ZM566.723 8.50515C569.243 7.38838 572.132 6.81818 575.409 6.81818V4.81818C571.898 4.81818 568.726 5.4298 565.913 6.67667L566.723 8.50515ZM575.409 6.81818C578.751 6.81818 581.618 7.38968 584.038 8.4998L584.872 6.68201C582.14 5.4285 578.977 4.81818 575.409 4.81818V6.81818ZM584.04 8.50073C586.484 9.61596 588.349 11.1484 589.674 13.087L591.326 11.9585C589.772 9.68495 587.606 7.9295 584.87 6.68109L584.04 8.50073ZM589.674 13.087C590.994 15.0173 591.685 17.2625 591.727 19.8573L593.727 19.8245C593.679 16.8738 592.885 14.2402 591.326 11.9585L589.674 13.087ZM592.727 18.8409H583.295V20.8409H592.727V18.8409ZM622.932 39.0455H621.932V40.0455H622.932V39.0455ZM622.932 38.2727L621.932 38.267V38.2727H622.932ZM623.636 31.9318L622.678 31.6461L622.676 31.6547L623.636 31.9318ZM628.909 25.4773L629.44 26.3248L629.451 26.3176L628.909 25.4773ZM631.432 23.5909L630.772 22.8393V22.8393L631.432 23.5909ZM633.205 21.4318L634.078 21.9189L634.082 21.9118L633.205 21.4318ZM633.114 16L632.269 16.5358V16.5358L633.114 16ZM631.091 14.1818L630.637 15.073L630.644 15.0762L631.091 14.1818ZM625.523 14.2045L625.958 15.1052L625.97 15.099L625.523 14.2045ZM623.364 16.1136L624.193 16.6718L624.198 16.6649L623.364 16.1136ZM622.455 19.2273V20.2273H623.419L623.454 19.2638L622.455 19.2273ZM613.182 19.2273L612.182 19.2023L612.156 20.2273H613.182V19.2273ZM615.364 11.7273L616.183 12.3007L616.185 12.2978L615.364 11.7273ZM620.841 7.29545L621.233 8.21524L621.239 8.21301L620.841 7.29545ZM636.364 7.31818L635.968 8.2364L635.973 8.23857L636.364 7.31818ZM641.818 11.6136L641 12.188L641.818 11.6136ZM642.909 23.1364L641.99 22.7424L641.988 22.7474L642.909 23.1364ZM640.477 26.7727L641.184 27.4799L641.189 27.4747L640.477 26.7727ZM636.773 29.6136L637.284 30.473L637.285 30.4727L636.773 29.6136ZM633.818 31.8409L633.111 31.1338L633.104 31.1408L633.818 31.8409ZM632.114 34.5227L631.177 34.1731L631.172 34.1855L632.114 34.5227ZM631.545 38.2727L630.545 38.2625V38.2727H631.545ZM631.545 39.0455V40.0455H632.545V39.0455H631.545ZM623.545 52L622.833 52.7021L622.838 52.7071L622.843 52.7121L623.545 52ZM621.977 48.1364L622.977 48.1465L622.977 48.1363L622.977 48.1262L621.977 48.1364ZM623.545 44.3182L622.843 43.6061L622.838 43.6111L623.545 44.3182ZM631.227 44.3182L630.53 45.0352L631.227 44.3182ZM632.886 48.1364L633.886 48.1515L633.886 48.1388L633.886 48.1262L632.886 48.1364ZM632.091 50.8864L631.24 50.3605L631.238 50.3649L632.091 50.8864ZM630.114 52.8636L630.623 53.724L630.635 53.7169L630.114 52.8636ZM623.932 39.0455V38.2727H621.932V39.0455H623.932ZM623.932 38.2784C623.947 35.6697 624.179 33.6593 624.597 32.209L622.676 31.6547C622.185 33.3559 621.947 35.5727 621.932 38.267L623.932 38.2784ZM624.595 32.2175C625.031 30.7526 625.649 29.6249 626.417 28.7914L624.947 27.4358C623.927 28.5417 623.181 29.9596 622.678 31.6462L624.595 32.2175ZM626.417 28.7914C627.244 27.8947 628.249 27.0712 629.44 26.3247L628.378 24.6298C627.055 25.4591 625.908 26.3932 624.947 27.4358L626.417 28.7914ZM629.451 26.3176C630.427 25.6883 631.308 25.0303 632.091 24.3425L630.772 22.8393C630.071 23.4545 629.27 24.0541 628.367 24.637L629.451 26.3176ZM632.091 24.3425C632.912 23.6228 633.578 22.8155 634.078 21.9189L632.331 20.9447C631.952 21.6238 631.437 22.256 630.772 22.8393L632.091 24.3425ZM634.082 21.9118C634.608 20.9505 634.864 19.8895 634.864 18.75H632.864C632.864 19.5802 632.68 20.307 632.327 20.9518L634.082 21.9118ZM634.864 18.75C634.864 17.5383 634.572 16.4311 633.958 15.4642L632.269 16.5358C632.656 17.1447 632.864 17.8708 632.864 18.75H634.864ZM633.958 15.4642C633.359 14.5203 632.546 13.7915 631.538 13.2874L630.644 15.0762C631.333 15.4207 631.868 15.904 632.269 16.5358L633.958 15.4642ZM631.545 13.2907C630.559 12.7889 629.477 12.5455 628.318 12.5455V14.5455C629.189 14.5455 629.956 14.7263 630.637 15.073L631.545 13.2907ZM628.318 12.5455C627.178 12.5455 626.094 12.8011 625.076 13.3101L625.97 15.099C626.71 14.7292 627.488 14.5455 628.318 14.5455V12.5455ZM625.088 13.304C624.04 13.8099 623.185 14.5702 622.529 15.5624L624.198 16.6649C624.664 15.9601 625.248 15.4476 625.957 15.1051L625.088 13.304ZM622.534 15.5555C621.847 16.5765 621.506 17.8062 621.455 19.1907L623.454 19.2638C623.494 18.1635 623.759 17.3175 624.193 16.6718L622.534 15.5555ZM622.455 18.2273H613.182V20.2273H622.455V18.2273ZM614.182 19.2523C614.254 16.3674 614.943 14.072 616.183 12.3007L614.544 11.1538C613.027 13.322 612.262 16.0266 612.182 19.2023L614.182 19.2523ZM616.185 12.2978C617.454 10.471 619.129 9.11289 621.233 8.21523L620.448 6.37567C618.007 7.41741 616.031 9.01387 614.542 11.1568L616.185 12.2978ZM621.239 8.21301C623.373 7.28811 625.743 6.81818 628.364 6.81818V4.81818C625.499 4.81818 622.854 5.3331 620.443 6.3779L621.239 8.21301ZM628.364 6.81818C631.269 6.81818 633.796 7.29977 635.968 8.23639L636.76 6.39997C634.295 5.33659 631.489 4.81818 628.364 4.81818V6.81818ZM635.973 8.23857C638.136 9.15768 639.799 10.477 641 12.188L642.637 11.0393C641.201 8.99271 639.228 7.44838 636.755 6.39779L635.973 8.23857ZM641 12.188C642.182 13.8734 642.795 15.9302 642.795 18.4091H644.795C644.795 15.585 644.091 13.1114 642.637 11.0393L641 12.188ZM642.795 18.4091C642.795 20.0706 642.519 21.5086 641.99 22.7424L643.828 23.5303C644.481 22.0065 644.795 20.293 644.795 18.4091H642.795ZM641.988 22.7474C641.462 23.9937 640.722 25.0997 639.765 26.0707L641.189 27.4747C642.323 26.3245 643.205 25.0063 643.83 23.5253L641.988 22.7474ZM639.77 26.0656C638.79 27.0459 637.622 27.9434 636.261 28.7545L637.285 30.4727C638.771 29.5869 640.074 28.5904 641.184 27.4798L639.77 26.0656ZM636.261 28.7542C635.012 29.4978 633.956 30.2889 633.111 31.1338L634.525 32.548C635.226 31.8475 636.14 31.1537 637.284 30.473L636.261 28.7542ZM633.104 31.1408C632.248 32.0136 631.604 33.027 631.177 34.1731L633.051 34.8723C633.38 33.9881 633.873 33.2136 634.532 32.541L633.104 31.1408ZM631.172 34.1855C630.76 35.3369 630.561 36.7051 630.546 38.2625L632.545 38.2829C632.56 36.8706 632.74 35.7388 633.055 34.86L631.172 34.1855ZM630.545 38.2727V39.0455H632.545V38.2727H630.545ZM631.545 38.0455H622.932V40.0455H631.545V38.0455ZM627.432 52.5909C626.179 52.5909 625.136 52.1634 624.248 51.2879L622.843 52.7121C624.107 53.9578 625.655 54.5909 627.432 54.5909V52.5909ZM624.258 51.2979C623.382 50.4103 622.965 49.3781 622.977 48.1465L620.977 48.1263C620.959 49.8946 621.587 51.4382 622.833 52.7021L624.258 51.2979ZM622.977 48.1262C622.965 46.9131 623.38 45.898 624.253 45.0253L622.838 43.6111C621.59 44.8596 620.959 46.3899 620.977 48.1466L622.977 48.1262ZM624.248 45.0303C625.136 44.1548 626.179 43.7273 627.432 43.7273V41.7273C625.655 41.7273 624.107 42.3604 622.843 43.6061L624.248 45.0303ZM627.432 43.7273C628.595 43.7273 629.614 44.1446 630.53 45.0352L631.924 43.6012C630.659 42.3706 629.148 41.7273 627.432 41.7273V43.7273ZM630.53 45.0352C631.435 45.9151 631.874 46.9355 631.886 48.1466L633.886 48.1262C633.868 46.3675 633.201 44.8425 631.924 43.6012L630.53 45.0352ZM631.886 48.1212C631.874 48.9446 631.658 49.6842 631.24 50.3605L632.942 51.4122C633.554 50.4219 633.868 49.3281 633.886 48.1515L631.886 48.1212ZM631.238 50.3649C630.82 51.0477 630.275 51.5931 629.592 52.0104L630.635 53.7169C631.589 53.1342 632.361 52.3614 632.944 51.4078L631.238 50.3649ZM629.604 52.0033C628.943 52.3949 628.226 52.5909 627.432 52.5909V54.5909C628.577 54.5909 629.648 54.3021 630.623 53.7239L629.604 52.0033Z" fill="black" mask="url(#path-1-outside-1_27_165)"/>
</svg>
